<ttFont>
<head>
    <!-- Most of this table will be recalculated by the compiler -->
    <tableVersion value="1.0"/>
    <fontRevision value="1.0"/>
    <checkSumAdjustment value="0x67ed217d"/>
    <magicNumber value="0x5f0f3cf5"/>
    <flags value="00000000 00011011"/>
    <unitsPerEm value="1000"/>
    <created value="Sat Dec  6 13:43:38 2025"/>
    <modified value="Sat Dec  6 13:48:08 2025"/>
    <xMin value="-100"/>
    <yMin value="-250"/>
    <xMax value="1135"/>
    <yMax value="761"/>
    <macStyle value="00000000 00000010"/>
    <lowestRecPPEM value="6"/>
    <fontDirectionHint value="2"/>
    <indexToLocFormat value="0"/>
    <glyphDataFormat value="0"/>
  </head>
    <TTGlyph name="A" xMin="30" yMin="0" xMax="677" yMax="694">
      <contour>
        <pt x="677" y="0" on="1"/>
        <pt x="572" y="0" on="1"/>
        <pt x="536" y="198" on="1"/>
        <pt x="232" y="198" on="1"/>
        <pt x="112" y="0" on="1"/>
        <pt x="30" y="0" on="1"/>
        <pt x="453" y="694" on="1"/>
        <pt x="549" y="694" on="1"/>
      </contour>
      <contour>
        <pt x="474" y="616" on="1"/>
        <pt x="473" y="616" on="1"/>
        <pt x="469" y="604" on="0"/>
        <pt x="442" y="553" on="0"/>
        <pt x="405" y="488" on="0"/>
        <pt x="362" y="414" on="0"/>
        <pt x="319" y="342" on="0"/>
        <pt x="281" y="279" on="0"/>
        <pt x="268" y="257" on="1"/>
        <pt x="524" y="257" on="1"/>
      </contour>
    </TTGlyph>
    <TTGlyph name="AE" xMin="30" yMin="0" xMax="1002" yMax="694">
      <contour>
        <pt x="113" y="0" on="1"/>
        <pt x="30" y="0" on="1"/>
        <pt x="478" y="694" on="1"/>
        <pt x="1002" y="694" on="1"/>
        <pt x="988" y="624" on="1"/>
        <pt x="826" y="624" on="1"/>
        <pt x="817" y="624" on="0"/>
        <pt x="799" y="625" on="0"/>
        <pt x="790" y="625" on="1"/>
        <pt x="678" y="625" on="1"/>
        <pt x="629" y="394" on="1"/>
        <pt x="909" y="394" on="1"/>
        <pt x="895" y="328" on="1"/>
        <pt x="615" y="328" on="1"/>
        <pt x="561" y="76" on="1"/>
        <pt x="595" y="76" on="1"/>
        <pt x="649" y="76" on="0"/>
        <pt x="759" y="78" on="0"/>
        <pt x="813" y="78" on="1"/>
        <pt x="887" y="78" on="1"/>
        <pt x="870" y="0" on="1"/>
        <pt x="445" y="0" on="1"/>
        <pt x="492" y="219" on="1"/>
        <pt x="254" y="219" on="1"/>
      </contour>
      <contour>
        <pt x="293" y="278" on="1"/>
        <pt x="504" y="278" on="1"/>
        <pt x="578" y="625" on="1"/>
        <pt x="517" y="625" on="1"/>
      </contour>
    </TTGlyph>
    <TTGlyph name="B" xMin="100" yMin="0" xMax="731" yMax="694">
      <contour>
        <pt x="503" y="694" on="1"/>
        <pt x="553" y="694" on="0"/>
        <pt x="637" y="670" on="0"/>
        <pt x="697" y="629" on="0"/>
        <pt x="731" y="574" on="0"/>
        <pt x="731" y="543" on="1"/>
        <pt x="731" y="512" on="0"/>
        <pt x="698" y="455" on="0"/>
        <pt x="641" y="408" on="0"/>
        <pt x="565" y="373" on="0"/>
        <pt x="522" y="363" on="1"/>
        <pt x="558" y="357" on="0"/>
        <pt x="620" y="330" on="0"/>
        <pt x="665" y="291" on="0"/>
        <pt x="691" y="242" on="0"/>
        <pt x="691" y="214" on="1"/>
        <pt x="691" y="175" on="0"/>
        <pt x="642" y="98" on="0"/>
        <pt x="559" y="37" on="0"/>
        <pt x="448" y="0" on="0"/>
        <pt x="385" y="0" on="1"/>
        <pt x="100" y="0" on="1"/>
        <pt x="248" y="694" on="1"/>
      </contour>
      <contour>
        <pt x="411" y="394" on="1"/>
        <pt x="458" y="394" on="0"/>
        <pt x="542" y="418" on="0"/>
        <pt x="606" y="457" on="0"/>
        <pt x="643" y="507" on="0"/>
        <pt x="643" y="533" on="1"/>
        <pt x="643" y="554" on="0"/>
        <pt x="616" y="591" on="0"/>
        <pt x="568" y="619" on="0"/>
        <pt x="501" y="635" on="0"/>
        <pt x="461" y="635" on="1"/>
        <pt x="329" y="635" on="1"/>
        <pt x="278" y="394" on="1"/>
      </contour>
      <contour>
        <pt x="367" y="59" on="1"/>
        <pt x="414" y="59" on="0"/>
        <pt x="498" y="84" on="0"/>
        <pt x="562" y="125" on="0"/>
        <pt x="600" y="178" on="0"/>
        <pt x="600" y="207" on="1"/>
        <pt x="600" y="230" on="0"/>
        <pt x="574" y="274" on="0"/>
        <pt x="525" y="308" on="0"/>
        <pt x="453" y="328" on="0"/>
        <pt x="407" y="328" on="1"/>
        <pt x="264" y="328" on="1"/>
        <pt x="207" y="59" on="1"/>
      </contour>
    </TTGlyph>
    <TTGlyph name="C" xMin="133" yMin="-9" xMax="756" yMax="706">
      <contour>
        <pt x="721" y="580" on="1"/>
        <pt x="700" y="596" on="0"/>
        <pt x="661" y="618" on="0"/>
        <pt x="621" y="631" on="0"/>
        <pt x="578" y="636" on="0"/>
        <pt x="552" y="636" on="1"/>
        <pt x="485" y="636" on="0"/>
        <pt x="370" y="571" on="0"/>
        <pt x="284" y="468" on="0"/>
        <pt x="235" y="340" on="0"/>
        <pt x="235" y="277" on="1"/>
        <pt x="235" y="234" on="0"/>
        <pt x="260" y="155" on="0"/>
        <pt x="309" y="95" on="0"/>
        <pt x="380" y="60" on="0"/>
        <pt x="426" y="60" on="1"/>
        <pt x="458" y="60" on="0"/>
        <pt x="509" y="65" on="0"/>
        <pt x="559" y="79" on="0"/>
        <pt x="612" y="104" on="0"/>
        <pt x="645" y="123" on="1"/>
        <pt x="635" y="46" on="1"/>
        <pt x="600" y="28" on="0"/>
        <pt x="547" y="7" on="0"/>
        <pt x="496" y="-5" on="0"/>
        <pt x="440" y="-9" on="0"/>
        <pt x="401" y="-9" on="1"/>
        <pt x="353" y="-9" on="0"/>
        <pt x="257" y="27" on="0"/>
        <pt x="180" y="98" on="0"/>
        <pt x="133" y="203" on="0"/>
        <pt x="133" y="272" on="1"/>
        <pt x="133" y="347" on="0"/>
        <pt x="199" y="502" on="0"/>
        <pt x="316" y="627" on="0"/>
        <pt x="476" y="706" on="0"/>
        <pt x="569" y="706" on="1"/>
        <pt x="596" y="706" on="0"/>
        <pt x="642" y="702" on="0"/>
        <pt x="686" y="694" on="0"/>
        <pt x="731" y="681" on="0"/>
        <pt x="756" y="671" on="1"/>
      </contour>
    </TTGlyph>
    <TTGlyph name="D" xMin="98" yMin="0" xMax="788" yMax="694">
      <contour>
        <pt x="529" y="694" on="1"/>
        <pt x="586" y="694" on="0"/>
        <pt x="682" y="653" on="0"/>
        <pt x="750" y="581" on="0"/>
        <pt x="788" y="481" on="0"/>
        <pt x="788" y="421" on="1"/>
        <pt x="788" y="337" on="0"/>
        <pt x="719" y="184" on="0"/>
        <pt x="605" y="68" on="0"/>
        <pt x="459" y="0" on="0"/>
        <pt x="382" y="0" on="1"/>
        <pt x="98" y="0" on="1"/>
        <pt x="246" y="694" on="1"/>
      </contour>
      <contour>
        <pt x="209" y="59" on="1"/>
        <pt x="368" y="59" on="1"/>
        <pt x="437" y="59" on="0"/>
        <pt x="555" y="120" on="0"/>
        <pt x="642" y="220" on="0"/>
        <pt x="691" y="351" on="0"/>
        <pt x="691" y="421" on="1"/>
        <pt x="691" y="471" on="0"/>
        <pt x="662" y="550" on="0"/>
        <pt x="609" y="605" on="0"/>
        <pt x="535" y="635" on="0"/>
        <pt x="490" y="635" on="1"/>
        <pt x="331" y="635" on="1"/>
      </contour>
    </TTGlyph>
    <TTGlyph name="E" xMin="97" yMin="0" xMax="724" yMax="691">
      <contour>
        <pt x="214" y="76" on="1"/>
        <pt x="266" y="76" on="1"/>
        <pt x="329" y="76" on="0"/>
        <pt x="455" y="78" on="0"/>
        <pt x="518" y="78" on="1"/>
        <pt x="609" y="78" on="1"/>
        <pt x="592" y="0" on="1"/>
        <pt x="97" y="0" on="1"/>
        <pt x="244" y="691" on="1"/>
        <pt x="724" y="691" on="1"/>
        <pt x="709" y="621" on="1"/>
        <pt x="512" y="621" on="1"/>
        <pt x="503" y="621" on="0"/>
        <pt x="485" y="622" on="0"/>
        <pt x="476" y="622" on="1"/>
        <pt x="330" y="622" on="1"/>
        <pt x="281" y="392" on="1"/>
        <pt x="630" y="392" on="1"/>
        <pt x="616" y="326" on="1"/>
        <pt x="267" y="326" on="1"/>
      </contour>
    </TTGlyph>
    <TTGlyph name="F" xMin="97" yMin="0" xMax="710" yMax="691">
      <contour>
        <pt x="198" y="0" on="1"/>
        <pt x="97" y="0" on="1"/>
        <pt x="244" y="691" on="1"/>
        <pt x="710" y="691" on="1"/>
        <pt x="695" y="621" on="1"/>
        <pt x="505" y="621" on="1"/>
        <pt x="496" y="621" on="0"/>
        <pt x="478" y="622" on="0"/>
        <pt x="469" y="622" on="1"/>
        <pt x="330" y="622" on="1"/>
        <pt x="279" y="379" on="1"/>
        <pt x="599" y="379" on="1"/>
        <pt x="585" y="313" on="1"/>
        <pt x="265" y="313" on="1"/>
      </contour>
    </TTGlyph>
    <TTGlyph name="G" xMin="133" yMin="-10" xMax="768" yMax="705">
      <contour>
        <pt x="733" y="567" on="1"/>
        <pt x="711" y="586" on="0"/>
        <pt x="672" y="612" on="0"/>
        <pt x="630" y="629" on="0"/>
        <pt x="582" y="636" on="0"/>
        <pt x="553" y="636" on="1"/>
        <pt x="486" y="636" on="0"/>
        <pt x="369" y="571" on="0"/>
        <pt x="284" y="468" on="0"/>
        <pt x="235" y="339" on="0"/>
        <pt x="235" y="276" on="1"/>
        <pt x="235" y="233" on="0"/>
        <pt x="261" y="154" on="0"/>
        <pt x="310" y="95" on="0"/>
        <pt x="382" y="60" on="0"/>
        <pt x="428" y="60" on="1"/>
        <pt x="463" y="60" on="0"/>
        <pt x="533" y="72" on="0"/>
        <pt x="567" y="81" on="1"/>
        <pt x="599" y="233" on="1"/>
        <pt x="463" y="233" on="1"/>
        <pt x="477" y="299" on="1"/>
        <pt x="701" y="299" on="1"/>
        <pt x="645" y="39" on="1"/>
        <pt x="591" y="16" on="0"/>
        <pt x="476" y="-10" on="0"/>
        <pt x="416" y="-10" on="1"/>
        <pt x="354" y="-10" on="0"/>
        <pt x="250" y="31" on="0"/>
        <pt x="175" y="106" on="0"/>
        <pt x="133" y="210" on="0"/>
        <pt x="133" y="272" on="1"/>
        <pt x="133" y="355" on="0"/>
        <pt x="205" y="511" on="0"/>
        <pt x="325" y="632" on="0"/>
        <pt x="480" y="705" on="0"/>
        <pt x="563" y="705" on="1"/>
        <pt x="622" y="705" on="0"/>
        <pt x="716" y="686" on="0"/>
        <pt x="768" y="657" on="1"/>
      </contour>
    </TTGlyph>
    <TTGlyph name="Gamma" xMin="97" yMin="0" xMax="680" yMax="691">
      <contour>
        <pt x="198" y="0" on="1"/>
        <pt x="97" y="0" on="1"/>
        <pt x="244" y="691" on="1"/>
        <pt x="680" y="691" on="1"/>
        <pt x="665" y="621" on="1"/>
        <pt x="490" y="621" on="1"/>
        <pt x="481" y="621" on="0"/>
        <pt x="463" y="622" on="0"/>
        <pt x="454" y="622" on="1"/>
        <pt x="330" y="622" on="1"/>
      </contour>
    </TTGlyph>
    <TTGlyph name="H" xMin="97" yMin="0" xMax="800" yMax="694">
      <contour>
        <pt x="652" y="0" on="1"/>
        <pt x="551" y="0" on="1"/>
        <pt x="621" y="328" on="1"/>
        <pt x="268" y="328" on="1"/>
        <pt x="198" y="0" on="1"/>
        <pt x="97" y="0" on="1"/>
        <pt x="245" y="694" on="1"/>
        <pt x="346" y="694" on="1"/>
        <pt x="282" y="394" on="1"/>
        <pt x="635" y="394" on="1"/>
        <pt x="699" y="694" on="1"/>
        <pt x="800" y="694" on="1"/>
      </contour>
    </TTGlyph>
    <TTGlyph name="I" xMin="97" yMin="0" xMax="346" yMax="694">
      <contour>
        <pt x="198" y="0" on="1"/>
        <pt x="97" y="0" on="1"/>
        <pt x="245" y="694" on="1"/>
        <pt x="346" y="694" on="1"/>
      </contour>
    </TTGlyph>
    <TTGlyph name="J" xMin="49" yMin="-21" xMax="561" yMax="694">
      <contour>
        <pt x="444" y="147" on="1"/>
        <pt x="435" y="106" on="0"/>
        <pt x="395" y="43" on="0"/>
        <pt x="337" y="1" on="0"/>
        <pt x="264" y="-21" on="0"/>
        <pt x="222" y="-21" on="1"/>
        <pt x="188" y="-21" on="0"/>
        <pt x="96" y="-4" on="0"/>
        <pt x="49" y="21" on="1"/>
        <pt x="81" y="103" on="1"/>
        <pt x="84" y="98" on="0"/>
        <pt x="102" y="79" on="0"/>
        <pt x="131" y="60" on="0"/>
        <pt x="174" y="46" on="0"/>
        <pt x="203" y="46" on="1"/>
        <pt x="263" y="46" on="0"/>
        <pt x="337" y="101" on="0"/>
        <pt x="347" y="148" on="1"/>
        <pt x="463" y="694" on="1"/>
        <pt x="561" y="694" on="1"/>
      </contour>
    </TTGlyph>
    <TTGlyph name="K" xMin="100" yMin="0" xMax="825" yMax="694">
      <contour>
        <pt x="693" y="0" on="1"/>
        <pt x="591" y="0" on="1"/>
        <pt x="410" y="361" on="1"/>
        <pt x="242" y="228" on="1"/>
        <pt x="194" y="0" on="1"/>
        <pt x="100" y="0" on="1"/>
        <pt x="248" y="694" on="1"/>
        <pt x="341" y="694" on="1"/>
        <pt x="263" y="326" on="1"/>
        <pt x="724" y="694" on="1"/>
        <pt x="825" y="694" on="1"/>
        <pt x="483" y="420" on="1"/>
      </contour>
    </TTGlyph>
    <TTGlyph name="L" xMin="97" yMin="0" xMax="548" yMax="694">
      <contour>
        <pt x="213" y="69" on="1"/>
        <pt x="263" y="69" on="1"/>
        <pt x="335" y="69" on="0"/>
        <pt x="476" y="71" on="0"/>
        <pt x="548" y="71" on="1"/>
        <pt x="533" y="0" on="1"/>
        <pt x="97" y="0" on="1"/>
        <pt x="245" y="694" on="1"/>
        <pt x="346" y="694" on="1"/>
      </contour>
    </TTGlyph>
    <TTGlyph name="Lambda" xMin="30" yMin="0" xMax="619" yMax="694">
      <contour>
        <pt x="111" y="0" on="1"/>
        <pt x="30" y="0" on="1"/>
        <pt x="424" y="694" on="1"/>
        <pt x="519" y="694" on="1"/>
        <pt x="619" y="0" on="1"/>
        <pt x="511" y="0" on="1"/>
        <pt x="472" y="285" on="1"/>
        <pt x="461" y="362" on="0"/>
        <pt x="452" y="452" on="0"/>
        <pt x="450" y="466" on="1"/>
        <pt x="449" y="477" on="0"/>
        <pt x="446" y="508" on="0"/>
        <pt x="443" y="542" on="0"/>
        <pt x="441" y="576" on="0"/>
        <pt x="441" y="589" on="1"/>
        <pt x="441" y="610" on="1"/>
        <pt x="440" y="611" on="1"/>
        <pt x="436" y="597" on="0"/>
        <pt x="414" y="551" on="0"/>
        <pt x="389" y="501" on="0"/>
        <pt x="365" y="456" on="0"/>
        <pt x="358" y="442" on="1"/>
        <pt x="257" y="258" on="1"/>
      </contour>
    </TTGlyph>
    <TTGlyph name="M" xMin="105" yMin="0" xMax="969" yMax="694">
      <contour>
        <pt x="821" y="0" on="1"/>
        <pt x="737" y="0" on="1"/>
        <pt x="867" y="614" on="1"/>
        <pt x="866" y="614" on="1"/>
        <pt x="860" y="600" on="0"/>
        <pt x="827" y="544" on="0"/>
        <pt x="787" y="476" on="0"/>
        <pt x="744" y="408" on="0"/>
        <pt x="728" y="382" on="1"/>
        <pt x="505" y="21" on="1"/>
        <pt x="427" y="21" on="1"/>
        <pt x="357" y="386" on="1"/>
        <pt x="353" y="408" on="0"/>
        <pt x="341" y="472" on="0"/>
        <pt x="330" y="537" on="0"/>
        <pt x="321" y="596" on="0"/>
        <pt x="321" y="614" on="1"/>
        <pt x="320" y="614" on="1"/>
        <pt x="189" y="0" on="1"/>
        <pt x="105" y="0" on="1"/>
        <pt x="253" y="694" on="1"/>
        <pt x="375" y="694" on="1"/>
        <pt x="445" y="327" on="1"/>
        <pt x="458" y="258" on="0"/>
        <pt x="473" y="173" on="0"/>
        <pt x="481" y="124" on="0"/>
        <pt x="484" y="103" on="0"/>
        <pt x="484" y="99" on="1"/>
        <pt x="485" y="99" on="1"/>
        <pt x="491" y="113" on="0"/>
        <pt x="520" y="163" on="0"/>
        <pt x="557" y="227" on="0"/>
        <pt x="602" y="300" on="0"/>
        <pt x="625" y="337" on="1"/>
        <pt x="845" y="694" on="1"/>
        <pt x="969" y="694" on="1"/>
      </contour>
    </TTGlyph>
    <TTGlyph name="N" xMin="100" yMin="0" xMax="797" yMax="694">
      <contour>
        <pt x="649" y="0" on="1"/>
        <pt x="513" y="0" on="1"/>
        <pt x="316" y="615" on="1"/>
        <pt x="315" y="615" on="1"/>
        <pt x="184" y="0" on="1"/>
        <pt x="100" y="0" on="1"/>
        <pt x="248" y="694" on="1"/>
        <pt x="384" y="694" on="1"/>
        <pt x="580" y="79" on="1"/>
        <pt x="581" y="79" on="1"/>
        <pt x="713" y="694" on="1"/>
        <pt x="797" y="694" on="1"/>
      </contour>
    </TTGlyph>
    <TTGlyph name="O" xMin="123" yMin="-21" xMax="807" yMax="715">
      <contour>
        <pt x="807" y="429" on="1"/>
        <pt x="807" y="369" on="0"/>
        <pt x="774" y="256" on="0"/>
        <pt x="715" y="156" on="0"/>
        <pt x="635" y="73" on="0"/>
        <pt x="542" y="12" on="0"/>
        <pt x="440" y="-21" on="0"/>
        <pt x="388" y="-21" on="1"/>
        <pt x="330" y="-21" on="0"/>
        <pt x="233" y="20" on="0"/>
        <pt x="163" y="95" on="0"/>
        <pt x="123" y="199" on="0"/>
        <pt x="123" y="261" on="1"/>
        <pt x="123" y="318" on="0"/>
        <pt x="155" y="430" on="0"/>
        <pt x="213" y="530" on="0"/>
        <pt x="292" y="617" on="0"/>
        <pt x="386" y="679" on="0"/>
        <pt x="490" y="715" on="0"/>
        <pt x="544" y="715" on="1"/>
        <pt x="598" y="715" on="0"/>
        <pt x="694" y="676" on="0"/>
        <pt x="766" y="602" on="0"/>
        <pt x="807" y="496" on="0"/>
      </contour>
      <contour>
        <pt x="403" y="50" on="1"/>
        <pt x="464" y="50" on="0"/>
        <pt x="575" y="119" on="0"/>
        <pt x="659" y="230" on="0"/>
        <pt x="709" y="368" on="0"/>
        <pt x="709" y="438" on="1"/>
        <pt x="709" y="490" on="0"/>
        <pt x="679" y="568" on="0"/>
        <pt x="630" y="620" on="0"/>
        <pt x="565" y="646" on="0"/>
        <pt x="529" y="646" on="1"/>
        <pt x="472" y="646" on="0"/>
        <pt x="363" y="587" on="0"/>
        <pt x="278" y="484" on="0"/>
        <pt x="226" y="347" on="0"/>
        <pt x="226" y="269" on="1"/>
        <pt x="226" y="222" on="0"/>
        <pt x="251" y="142" on="0"/>
        <pt x="297" y="83" on="0"/>
        <pt x="363" y="50" on="0"/>
      </contour>
    </TTGlyph>
    <TTGlyph name="OE" xMin="94" yMin="-21" xMax="1120" yMax="715">
      <contour>
        <pt x="615" y="76" on="1"/>
        <pt x="667" y="76" on="1"/>
        <pt x="730" y="76" on="0"/>
        <pt x="853" y="78" on="0"/>
        <pt x="916" y="78" on="1"/>
        <pt x="1005" y="78" on="1"/>
        <pt x="988" y="0" on="1"/>
        <pt x="552" y="0" on="1"/>
        <pt x="542" y="0" on="0"/>
        <pt x="506" y="-3" on="0"/>
        <pt x="464" y="-10" on="1"/>
        <pt x="442" y="-15" on="0"/>
        <pt x="400" y="-21" on="0"/>
        <pt x="377" y="-21" on="1"/>
        <pt x="320" y="-21" on="0"/>
        <pt x="217" y="18" on="0"/>
        <pt x="140" y="91" on="0"/>
        <pt x="94" y="198" on="0"/>
        <pt x="94" y="266" on="1"/>
        <pt x="94" y="324" on="0"/>
        <pt x="129" y="436" on="0"/>
        <pt x="190" y="536" on="0"/>
        <pt x="273" y="620" on="0"/>
        <pt x="371" y="681" on="0"/>
        <pt x="478" y="715" on="0"/>
        <pt x="533" y="715" on="1"/>
        <pt x="552" y="715" on="0"/>
        <pt x="584" y="711" on="0"/>
        <pt x="607" y="706" on="1"/>
        <pt x="626" y="702" on="0"/>
        <pt x="653" y="698" on="0"/>
        <pt x="674" y="695" on="0"/>
        <pt x="691" y="694" on="0"/>
        <pt x="700" y="694" on="1"/>
        <pt x="1120" y="694" on="1"/>
        <pt x="1106" y="624" on="1"/>
        <pt x="912" y="624" on="1"/>
        <pt x="903" y="624" on="0"/>
        <pt x="885" y="625" on="0"/>
        <pt x="876" y="625" on="1"/>
        <pt x="732" y="625" on="1"/>
        <pt x="683" y="394" on="1"/>
        <pt x="1027" y="394" on="1"/>
        <pt x="1013" y="328" on="1"/>
        <pt x="669" y="328" on="1"/>
      </contour>
      <contour>
        <pt x="605" y="492" on="1"/>
        <pt x="609" y="512" on="0"/>
        <pt x="614" y="538" on="0"/>
        <pt x="616" y="557" on="0"/>
        <pt x="616" y="570" on="0"/>
        <pt x="616" y="576" on="1"/>
        <pt x="616" y="592" on="0"/>
        <pt x="611" y="619" on="0"/>
        <pt x="593" y="638" on="0"/>
        <pt x="556" y="649" on="0"/>
        <pt x="524" y="649" on="1"/>
        <pt x="463" y="649" on="0"/>
        <pt x="344" y="591" on="0"/>
        <pt x="252" y="491" on="0"/>
        <pt x="195" y="357" on="0"/>
        <pt x="195" y="280" on="1"/>
        <pt x="195" y="231" on="0"/>
        <pt x="222" y="145" on="0"/>
        <pt x="274" y="81" on="0"/>
        <pt x="349" y="45" on="0"/>
        <pt x="396" y="45" on="1"/>
        <pt x="422" y="45" on="0"/>
        <pt x="467" y="53" on="0"/>
        <pt x="503" y="83" on="0"/>
        <pt x="532" y="143" on="0"/>
        <pt x="543" y="196" on="1"/>
      </contour>
    </TTGlyph>
    <TTGlyph name="Oslash" xMin="124" yMin="-67" xMax="848" yMax="761">
      <contour>
        <pt x="765" y="637" on="1"/>
        <pt x="791" y="611" on="0"/>
        <pt x="823" y="554" on="0"/>
        <pt x="841" y="498" on="0"/>
        <pt x="848" y="446" on="0"/>
        <pt x="848" y="425" on="1"/>
        <pt x="848" y="367" on="0"/>
        <pt x="814" y="255" on="0"/>
        <pt x="753" y="156" on="0"/>
        <pt x="671" y="73" on="0"/>
        <pt x="573" y="13" on="0"/>
        <pt x="464" y="-21" on="0"/>
        <pt x="408" y="-21" on="1"/>
        <pt x="375" y="-21" on="0"/>
        <pt x="322" y="-10" on="0"/>
        <pt x="283" y="4" on="0"/>
        <pt x="260" y="17" on="0"/>
        <pt x="257" y="18" on="1"/>
        <pt x="187" y="-67" on="1"/>
        <pt x="136" y="-31" on="1"/>
        <pt x="207" y="56" on="1"/>
        <pt x="202" y="61" on="0"/>
        <pt x="175" y="91" on="0"/>
        <pt x="146" y="143" on="0"/>
        <pt x="124" y="217" on="0"/>
        <pt x="124" y="266" on="1"/>
        <pt x="124" y="352" on="0"/>
        <pt x="199" y="514" on="0"/>
        <pt x="322" y="639" on="0"/>
        <pt x="480" y="715" on="0"/>
        <pt x="564" y="715" on="1"/>
        <pt x="621" y="715" on="0"/>
        <pt x="691" y="688" on="0"/>
        <pt x="707" y="680" on="1"/>
        <pt x="711" y="678" on="0"/>
        <pt x="713" y="677" on="0"/>
        <pt x="714" y="677" on="1"/>
        <pt x="716" y="677" on="0"/>
        <pt x="719" y="679" on="0"/>
        <pt x="724" y="686" on="1"/>
        <pt x="785" y="761" on="1"/>
        <pt x="837" y="725" on="1"/>
      </contour>
      <contour>
        <pt x="666" y="616" on="1"/>
        <pt x="639" y="634" on="0"/>
        <pt x="579" y="649" on="0"/>
        <pt x="550" y="649" on="1"/>
        <pt x="480" y="649" on="0"/>
        <pt x="359" y="582" on="0"/>
        <pt x="269" y="473" on="0"/>
        <pt x="217" y="335" on="0"/>
        <pt x="217" y="264" on="1"/>
        <pt x="217" y="236" on="0"/>
        <pt x="233" y="157" on="0"/>
        <pt x="260" y="121" on="1"/>
      </contour>
      <contour>
        <pt x="306" y="77" on="1"/>
        <pt x="337" y="59" on="0"/>
        <pt x="394" y="45" on="0"/>
        <pt x="422" y="45" on="1"/>
        <pt x="490" y="45" on="0"/>
        <pt x="611" y="108" on="0"/>
        <pt x="701" y="213" on="0"/>
        <pt x="754" y="351" on="0"/>
        <pt x="754" y="426" on="1"/>
        <pt x="754" y="458" on="0"/>
        <pt x="739" y="534" on="0"/>
        <pt x="712" y="572" on="1"/>
      </contour>
    </TTGlyph>
    <TTGlyph name="P" xMin="98" yMin="0" xMax="727" yMax="694">
      <contour>
        <pt x="199" y="0" on="1"/>
        <pt x="98" y="0" on="1"/>
        <pt x="246" y="694" on="1"/>
        <pt x="516" y="694" on="1"/>
        <pt x="563" y="694" on="0"/>
        <pt x="641" y="668" on="0"/>
        <pt x="696" y="623" on="0"/>
        <pt x="727" y="561" on="0"/>
        <pt x="727" y="525" on="1"/>
        <pt x="727" y="478" on="0"/>
        <pt x="677" y="391" on="0"/>
        <pt x="595" y="325" on="0"/>
        <pt x="490" y="285" on="0"/>
        <pt x="436" y="285" on="1"/>
        <pt x="260" y="285" on="1"/>
      </contour>
      <contour>
        <pt x="270" y="347" on="1"/>
        <pt x="417" y="347" on="1"/>
        <pt x="473" y="347" on="0"/>
        <pt x="555" y="380" on="0"/>
        <pt x="609" y="430" on="0"/>
        <pt x="636" y="490" on="0"/>
        <pt x="636" y="518" on="1"/>
        <pt x="636" y="571" on="0"/>
        <pt x="554" y="635" on="0"/>
        <pt x="478" y="635" on="1"/>
        <pt x="331" y="635" on="1"/>
      </contour>
    </TTGlyph>
    <TTGlyph name="Phi" xMin="129" yMin="0" xMax="785" yMax="694">
      <contour>
        <pt x="552" y="588" on="1"/>
        <pt x="604" y="583" on="0"/>
        <pt x="690" y="547" on="0"/>
        <pt x="751" y="493" on="0"/>
        <pt x="785" y="424" on="0"/>
        <pt x="785" y="385" on="1"/>
        <pt x="785" y="338" on="0"/>
        <pt x="736" y="245" on="0"/>
        <pt x="647" y="168" on="0"/>
        <pt x="524" y="114" on="0"/>
        <pt x="449" y="106" on="1"/>
        <pt x="427" y="0" on="1"/>
        <pt x="333" y="0" on="1"/>
        <pt x="356" y="107" on="1"/>
        <pt x="309" y="112" on="0"/>
        <pt x="226" y="145" on="0"/>
        <pt x="165" y="197" on="0"/>
        <pt x="129" y="267" on="0"/>
        <pt x="129" y="309" on="1"/>
        <pt x="129" y="359" on="0"/>
        <pt x="181" y="453" on="0"/>
        <pt x="271" y="529" on="0"/>
        <pt x="391" y="580" on="0"/>
        <pt x="458" y="587" on="1"/>
        <pt x="480" y="694" on="1"/>
        <pt x="574" y="694" on="1"/>
      </contour>
      <contour>
        <pt x="443" y="520" on="1"/>
        <pt x="389" y="513" on="0"/>
        <pt x="308" y="469" on="0"/>
        <pt x="254" y="411" on="0"/>
        <pt x="227" y="345" on="0"/>
        <pt x="227" y="314" on="1"/>
        <pt x="227" y="291" on="0"/>
        <pt x="243" y="245" on="0"/>
        <pt x="277" y="207" on="0"/>
        <pt x="331" y="180" on="0"/>
        <pt x="370" y="174" on="1"/>
      </contour>
      <contour>
        <pt x="464" y="173" on="1"/>
        <pt x="523" y="181" on="0"/>
        <pt x="607" y="225" on="0"/>
        <pt x="661" y="284" on="0"/>
        <pt x="686" y="350" on="0"/>
        <pt x="686" y="380" on="1"/>
        <pt x="686" y="442" on="0"/>
        <pt x="602" y="513" on="0"/>
        <pt x="538" y="521" on="1"/>
      </contour>
    </TTGlyph>
    <TTGlyph name="Pi" xMin="97" yMin="0" xMax="799" yMax="691">
      <contour>
        <pt x="652" y="0" on="1"/>
        <pt x="551" y="0" on="1"/>
        <pt x="684" y="625" on="1"/>
        <pt x="331" y="625" on="1"/>
        <pt x="198" y="0" on="1"/>
        <pt x="97" y="0" on="1"/>
        <pt x="244" y="691" on="1"/>
        <pt x="799" y="691" on="1"/>
      </contour>
    </TTGlyph>
    <TTGlyph name="Psi" xMin="176" yMin="0" xMax="897" yMax="694">
      <contour>
        <pt x="494" y="176" on="1"/>
        <pt x="551" y="189" on="0"/>
        <pt x="623" y="254" on="0"/>
        <pt x="667" y="332" on="0"/>
        <pt x="688" y="408" on="0"/>
        <pt x="693" y="432" on="1"/>
        <pt x="705" y="490" on="0"/>
        <pt x="730" y="562" on="0"/>
        <pt x="758" y="602" on="0"/>
        <pt x="791" y="616" on="0"/>
        <pt x="813" y="616" on="1"/>
        <pt x="897" y="616" on="1"/>
        <pt x="883" y="550" on="1"/>
        <pt x="858" y="549" on="0"/>
        <pt x="823" y="519" on="0"/>
        <pt x="801" y="477" on="0"/>
        <pt x="787" y="429" on="0"/>
        <pt x="782" y="409" on="1"/>
        <pt x="768" y="350" on="0"/>
        <pt x="720" y="248" on="0"/>
        <pt x="646" y="169" on="0"/>
        <pt x="546" y="116" on="0"/>
        <pt x="479" y="106" on="1"/>
        <pt x="456" y="0" on="1"/>
        <pt x="362" y="0" on="1"/>
        <pt x="385" y="107" on="1"/>
        <pt x="297" y="119" on="0"/>
        <pt x="207" y="227" on="0"/>
        <pt x="207" y="318" on="1"/>
        <pt x="207" y="323" on="0"/>
        <pt x="210" y="375" on="0"/>
        <pt x="218" y="415" on="1"/>
        <pt x="224" y="443" on="0"/>
        <pt x="226" y="474" on="0"/>
        <pt x="226" y="477" on="1"/>
        <pt x="226" y="489" on="0"/>
        <pt x="223" y="514" on="0"/>
        <pt x="212" y="535" on="0"/>
        <pt x="193" y="550" on="0"/>
        <pt x="176" y="551" on="1"/>
        <pt x="190" y="616" on="1"/>
        <pt x="274" y="616" on="1"/>
        <pt x="283" y="616" on="0"/>
        <pt x="304" y="614" on="0"/>
        <pt x="321" y="601" on="0"/>
        <pt x="332" y="572" on="0"/>
        <pt x="332" y="546" on="1"/>
        <pt x="332" y="539" on="0"/>
        <pt x="331" y="522" on="0"/>
        <pt x="328" y="495" on="0"/>
        <pt x="321" y="456" on="0"/>
        <pt x="315" y="427" on="1"/>
        <pt x="308" y="395" on="0"/>
        <pt x="302" y="352" on="0"/>
        <pt x="302" y="328" on="1"/>
        <pt x="302" y="264" on="0"/>
        <pt x="352" y="190" on="0"/>
        <pt x="400" y="176" on="1"/>
        <pt x="510" y="694" on="1"/>
        <pt x="604" y="694" on="1"/>
      </contour>
    </TTGlyph>
    <TTGlyph name="Q" xMin="123" yMin="-128" xMax="807" yMax="715">
      <contour>
        <pt x="487" y="-6" on="1"/>
        <pt x="439" y="-21" on="0"/>
        <pt x="388" y="-21" on="1"/>
        <pt x="330" y="-21" on="0"/>
        <pt x="233" y="20" on="0"/>
        <pt x="163" y="95" on="0"/>
        <pt x="123" y="199" on="0"/>
        <pt x="123" y="261" on="1"/>
        <pt x="123" y="318" on="0"/>
        <pt x="155" y="430" on="0"/>
        <pt x="213" y="530" on="0"/>
        <pt x="292" y="617" on="0"/>
        <pt x="386" y="679" on="0"/>
        <pt x="490" y="715" on="0"/>
        <pt x="544" y="715" on="1"/>
        <pt x="598" y="715" on="0"/>
        <pt x="694" y="676" on="0"/>
        <pt x="766" y="602" on="0"/>
        <pt x="807" y="496" on="0"/>
        <pt x="807" y="429" on="1"/>
        <pt x="807" y="377" on="0"/>
        <pt x="779" y="268" on="0"/>
        <pt x="722" y="164" on="0"/>
        <pt x="634" y="70" on="0"/>
        <pt x="575" y="33" on="1"/>
        <pt x="668" y="-128" on="1"/>
        <pt x="550" y="-128" on="1"/>
      </contour>
      <contour>
        <pt x="540" y="94" on="1"/>
        <pt x="588" y="127" on="0"/>
        <pt x="654" y="214" on="0"/>
        <pt x="693" y="306" on="0"/>
        <pt x="710" y="395" on="0"/>
        <pt x="710" y="429" on="1"/>
        <pt x="710" y="477" on="0"/>
        <pt x="684" y="556" on="0"/>
        <pt x="637" y="614" on="0"/>
        <pt x="570" y="646" on="0"/>
        <pt x="529" y="646" on="1"/>
        <pt x="469" y="646" on="0"/>
        <pt x="357" y="580" on="0"/>
        <pt x="272" y="472" on="0"/>
        <pt x="221" y="334" on="0"/>
        <pt x="221" y="262" on="1"/>
        <pt x="221" y="210" on="0"/>
        <pt x="250" y="130" on="0"/>
        <pt x="300" y="76" on="0"/>
        <pt x="365" y="48" on="0"/>
        <pt x="402" y="48" on="1"/>
        <pt x="431" y="48" on="0"/>
        <pt x="456" y="55" on="1"/>
        <pt x="384" y="194" on="1"/>
        <pt x="482" y="194" on="1"/>
      </contour>
    </TTGlyph>
    <TTGlyph name="R" xMin="98" yMin="0" xMax="739" yMax="694">
      <contour>
        <pt x="657" y="0" on="1"/>
        <pt x="556" y="0" on="1"/>
        <pt x="428" y="314" on="1"/>
        <pt x="263" y="314" on="1"/>
        <pt x="196" y="0" on="1"/>
        <pt x="98" y="0" on="1"/>
        <pt x="246" y="694" on="1"/>
        <pt x="508" y="694" on="1"/>
        <pt x="559" y="694" on="0"/>
        <pt x="643" y="669" on="0"/>
        <pt x="705" y="626" on="0"/>
        <pt x="739" y="567" on="0"/>
        <pt x="739" y="534" on="1"/>
        <pt x="739" y="507" on="0"/>
        <pt x="713" y="447" on="0"/>
        <pt x="659" y="389" on="0"/>
        <pt x="576" y="340" on="0"/>
        <pt x="518" y="324" on="1"/>
      </contour>
      <contour>
        <pt x="277" y="380" on="1"/>
        <pt x="429" y="380" on="1"/>
        <pt x="482" y="380" on="0"/>
        <pt x="563" y="406" on="0"/>
        <pt x="619" y="448" on="0"/>
        <pt x="647" y="501" on="0"/>
        <pt x="647" y="528" on="1"/>
        <pt x="647" y="577" on="0"/>
        <pt x="560" y="635" on="0"/>
        <pt x="483" y="635" on="1"/>
        <pt x="331" y="635" on="1"/>
      </contour>
    </TTGlyph>
    <TTGlyph name="S" xMin="58" yMin="-21" xMax="635" yMax="715">
      <contour>
        <pt x="600" y="576" on="1"/>
        <pt x="580" y="598" on="0"/>
        <pt x="537" y="624" on="0"/>
        <pt x="493" y="638" on="0"/>
        <pt x="452" y="643" on="0"/>
        <pt x="434" y="643" on="1"/>
        <pt x="397" y="643" on="0"/>
        <pt x="332" y="621" on="0"/>
        <pt x="284" y="584" on="0"/>
        <pt x="256" y="537" on="0"/>
        <pt x="256" y="511" on="1"/>
        <pt x="256" y="485" on="0"/>
        <pt x="278" y="452" on="0"/>
        <pt x="313" y="430" on="0"/>
        <pt x="356" y="417" on="0"/>
        <pt x="376" y="412" on="1"/>
        <pt x="407" y="405" on="0"/>
        <pt x="452" y="393" on="0"/>
        <pt x="486" y="380" on="0"/>
        <pt x="514" y="362" on="0"/>
        <pt x="527" y="348" on="1"/>
        <pt x="542" y="333" on="0"/>
        <pt x="575" y="276" on="0"/>
        <pt x="575" y="231" on="1"/>
        <pt x="575" y="185" on="0"/>
        <pt x="530" y="95" on="0"/>
        <pt x="452" y="23" on="0"/>
        <pt x="347" y="-21" on="0"/>
        <pt x="287" y="-21" on="1"/>
        <pt x="235" y="-21" on="0"/>
        <pt x="150" y="0" on="0"/>
        <pt x="90" y="26" on="0"/>
        <pt x="58" y="48" on="0"/>
        <pt x="58" y="49" on="1"/>
        <pt x="58" y="52" on="0"/>
        <pt x="61" y="60" on="0"/>
        <pt x="62" y="62" on="1"/>
        <pt x="93" y="138" on="1"/>
        <pt x="109" y="120" on="0"/>
        <pt x="154" y="90" on="0"/>
        <pt x="208" y="67" on="0"/>
        <pt x="270" y="54" on="0"/>
        <pt x="303" y="54" on="1"/>
        <pt x="343" y="54" on="0"/>
        <pt x="410" y="81" on="0"/>
        <pt x="458" y="123" on="0"/>
        <pt x="485" y="176" on="0"/>
        <pt x="485" y="202" on="1"/>
        <pt x="485" y="240" on="0"/>
        <pt x="438" y="290" on="0"/>
        <pt x="409" y="299" on="1"/>
        <pt x="404" y="300" on="0"/>
        <pt x="380" y="306" on="0"/>
        <pt x="353" y="313" on="0"/>
        <pt x="327" y="319" on="0"/>
        <pt x="320" y="321" on="1"/>
        <pt x="308" y="324" on="0"/>
        <pt x="256" y="340" on="0"/>
        <pt x="204" y="376" on="0"/>
        <pt x="165" y="436" on="0"/>
        <pt x="165" y="482" on="1"/>
        <pt x="165" y="524" on="0"/>
        <pt x="209" y="607" on="0"/>
        <pt x="285" y="674" on="0"/>
        <pt x="389" y="715" on="0"/>
        <pt x="450" y="715" on="1"/>
        <pt x="503" y="715" on="0"/>
        <pt x="590" y="693" on="0"/>
        <pt x="635" y="666" on="1"/>
      </contour>
    </TTGlyph>
    <TTGlyph name="Sigma" xMin="59" yMin="0" xMax="854" yMax="694">
      <contour>
        <pt x="240" y="75" on="1"/>
        <pt x="435" y="75" on="1"/>
        <pt x="444" y="75" on="0"/>
        <pt x="462" y="76" on="0"/>
        <pt x="471" y="76" on="1"/>
        <pt x="723" y="76" on="1"/>
        <pt x="707" y="0" on="1"/>
        <pt x="59" y="0" on="1"/>
        <pt x="378" y="332" on="1"/>
        <pt x="192" y="625" on="1"/>
        <pt x="206" y="694" on="1"/>
        <pt x="854" y="694" on="1"/>
        <pt x="840" y="624" on="1"/>
        <pt x="567" y="624" on="1"/>
        <pt x="558" y="624" on="0"/>
        <pt x="540" y="625" on="0"/>
        <pt x="531" y="625" on="1"/>
        <pt x="324" y="625" on="1"/>
        <pt x="501" y="347" on="1"/>
      </contour>
    </TTGlyph>
    <TTGlyph name="T" xMin="169" yMin="0" xMax="833" yMax="687">
      <contour>
        <pt x="413" y="0" on="1"/>
        <pt x="312" y="0" on="1"/>
        <pt x="443" y="618" on="1"/>
        <pt x="350" y="618" on="1"/>
        <pt x="341" y="618" on="0"/>
        <pt x="323" y="617" on="0"/>
        <pt x="314" y="617" on="1"/>
        <pt x="169" y="617" on="1"/>
        <pt x="184" y="687" on="1"/>
        <pt x="833" y="687" on="1"/>
        <pt x="818" y="617" on="1"/>
        <pt x="674" y="617" on="1"/>
        <pt x="665" y="617" on="0"/>
        <pt x="647" y="618" on="0"/>
        <pt x="638" y="618" on="1"/>
        <pt x="544" y="618" on="1"/>
      </contour>
    </TTGlyph>
    <TTGlyph name="Theta" xMin="124" yMin="-21" xMax="848" yMax="715">
      <contour>
        <pt x="848" y="425" on="1"/>
        <pt x="848" y="367" on="0"/>
        <pt x="814" y="255" on="0"/>
        <pt x="753" y="156" on="0"/>
        <pt x="671" y="73" on="0"/>
        <pt x="573" y="13" on="0"/>
        <pt x="464" y="-21" on="0"/>
        <pt x="408" y="-21" on="1"/>
        <pt x="349" y="-21" on="0"/>
        <pt x="246" y="19" on="0"/>
        <pt x="169" y="93" on="0"/>
        <pt x="124" y="200" on="0"/>
        <pt x="124" y="266" on="1"/>
        <pt x="124" y="352" on="0"/>
        <pt x="199" y="514" on="0"/>
        <pt x="322" y="639" on="0"/>
        <pt x="480" y="715" on="0"/>
        <pt x="564" y="715" on="1"/>
        <pt x="628" y="715" on="0"/>
        <pt x="732" y="671" on="0"/>
        <pt x="807" y="593" on="0"/>
        <pt x="848" y="487" on="0"/>
      </contour>
      <contour>
        <pt x="423" y="47" on="1"/>
        <pt x="488" y="47" on="0"/>
        <pt x="608" y="109" on="0"/>
        <pt x="699" y="213" on="0"/>
        <pt x="754" y="349" on="0"/>
        <pt x="754" y="422" on="1"/>
        <pt x="754" y="473" on="0"/>
        <pt x="724" y="557" on="0"/>
        <pt x="670" y="617" on="0"/>
        <pt x="595" y="649" on="0"/>
        <pt x="550" y="649" on="1"/>
        <pt x="484" y="649" on="0"/>
        <pt x="364" y="584" on="0"/>
        <pt x="273" y="478" on="0"/>
        <pt x="218" y="341" on="0"/>
        <pt x="218" y="269" on="1"/>
        <pt x="218" y="217" on="0"/>
        <pt x="250" y="134" on="0"/>
        <pt x="305" y="77" on="0"/>
        <pt x="380" y="47" on="0"/>
      </contour>
      <contour>
        <pt x="676" y="301" on="1"/>
        <pt x="277" y="301" on="1"/>
        <pt x="297" y="395" on="1"/>
        <pt x="696" y="395" on="1"/>
      </contour>
    </TTGlyph>
    <TTGlyph name="U" xMin="141" yMin="-21" xMax="779" yMax="694">
      <contour>
        <pt x="679" y="228" on="1"/>
        <pt x="669" y="178" on="0"/>
        <pt x="609" y="88" on="0"/>
        <pt x="523" y="19" on="0"/>
        <pt x="419" y="-21" on="0"/>
        <pt x="363" y="-21" on="1"/>
        <pt x="315" y="-21" on="0"/>
        <pt x="234" y="9" on="0"/>
        <pt x="175" y="63" on="0"/>
        <pt x="141" y="138" on="0"/>
        <pt x="141" y="183" on="1"/>
        <pt x="141" y="192" on="0"/>
        <pt x="141" y="204" on="0"/>
        <pt x="142" y="213" on="0"/>
        <pt x="144" y="221" on="0"/>
        <pt x="145" y="228" on="1"/>
        <pt x="245" y="694" on="1"/>
        <pt x="346" y="694" on="1"/>
        <pt x="246" y="228" on="1"/>
        <pt x="243" y="215" on="0"/>
        <pt x="241" y="198" on="0"/>
        <pt x="241" y="177" on="1"/>
        <pt x="241" y="141" on="0"/>
        <pt x="263" y="89" on="0"/>
        <pt x="301" y="54" on="0"/>
        <pt x="349" y="38" on="0"/>
        <pt x="376" y="38" on="1"/>
        <pt x="417" y="38" on="0"/>
        <pt x="489" y="69" on="0"/>
        <pt x="546" y="122" on="0"/>
        <pt x="585" y="191" on="0"/>
        <pt x="593" y="228" on="1"/>
        <pt x="692" y="694" on="1"/>
        <pt x="779" y="694" on="1"/>
      </contour>
    </TTGlyph>
    <TTGlyph name="Upsilon" xMin="177" yMin="0" xMax="887" yMax="715">
      <contour>
        <pt x="463" y="0" on="1"/>
        <pt x="362" y="0" on="1"/>
        <pt x="440" y="369" on="1"/>
        <pt x="449" y="413" on="0"/>
        <pt x="458" y="484" on="0"/>
        <pt x="458" y="510" on="1"/>
        <pt x="458" y="531" on="0"/>
        <pt x="451" y="577" on="0"/>
        <pt x="431" y="615" on="0"/>
        <pt x="395" y="639" on="0"/>
        <pt x="366" y="639" on="1"/>
        <pt x="330" y="639" on="0"/>
        <pt x="272" y="591" on="0"/>
        <pt x="264" y="555" on="1"/>
        <pt x="177" y="555" on="1"/>
        <pt x="185" y="590" on="0"/>
        <pt x="225" y="649" on="0"/>
        <pt x="281" y="691" on="0"/>
        <pt x="347" y="715" on="0"/>
        <pt x="380" y="715" on="1"/>
        <pt x="422" y="715" on="0"/>
        <pt x="476" y="680" on="0"/>
        <pt x="506" y="624" on="0"/>
        <pt x="517" y="554" on="0"/>
        <pt x="517" y="519" on="1"/>
        <pt x="517" y="506" on="0"/>
        <pt x="517" y="497" on="0"/>
        <pt x="516" y="493" on="1"/>
        <pt x="517" y="493" on="1"/>
        <pt x="529" y="523" on="0"/>
        <pt x="567" y="600" on="0"/>
        <pt x="623" y="668" on="0"/>
        <pt x="699" y="715" on="0"/>
        <pt x="748" y="715" on="1"/>
        <pt x="775" y="715" on="0"/>
        <pt x="825" y="699" on="0"/>
        <pt x="864" y="666" on="0"/>
        <pt x="887" y="618" on="0"/>
        <pt x="887" y="586" on="1"/>
        <pt x="887" y="583" on="0"/>
        <pt x="886" y="563" on="0"/>
        <pt x="884" y="555" on="1"/>
        <pt x="797" y="555" on="1"/>
        <pt x="798" y="560" on="0"/>
        <pt x="799" y="566" on="0"/>
        <pt x="799" y="573" on="1"/>
        <pt x="799" y="582" on="0"/>
        <pt x="793" y="605" on="0"/>
        <pt x="777" y="625" on="0"/>
        <pt x="750" y="639" on="0"/>
        <pt x="730" y="639" on="1"/>
        <pt x="689" y="639" on="0"/>
        <pt x="627" y="590" on="0"/>
        <pt x="583" y="513" on="0"/>
        <pt x="553" y="419" on="0"/>
        <pt x="543" y="373" on="1"/>
      </contour>
    </TTGlyph>
    <TTGlyph name="V" xMin="162" yMin="0" xMax="840" yMax="694">
      <contour>
        <pt x="404" y="0" on="1"/>
        <pt x="303" y="0" on="1"/>
        <pt x="162" y="694" on="1"/>
        <pt x="268" y="694" on="1"/>
        <pt x="331" y="375" on="1"/>
        <pt x="338" y="339" on="0"/>
        <pt x="355" y="253" on="0"/>
        <pt x="369" y="170" on="0"/>
        <pt x="379" y="99" on="0"/>
        <pt x="379" y="79" on="1"/>
        <pt x="380" y="79" on="1"/>
        <pt x="381" y="81" on="0"/>
        <pt x="385" y="91" on="0"/>
        <pt x="398" y="115" on="0"/>
        <pt x="422" y="156" on="0"/>
        <pt x="442" y="190" on="1"/>
        <pt x="553" y="374" on="1"/>
        <pt x="753" y="694" on="1"/>
        <pt x="840" y="694" on="1"/>
      </contour>
    </TTGlyph>
    <TTGlyph name="W" xMin="162" yMin="0" xMax="1135" yMax="694">
      <contour>
        <pt x="770" y="0" on="1"/>
        <pt x="678" y="0" on="1"/>
        <pt x="641" y="385" on="1"/>
        <pt x="639" y="407" on="0"/>
        <pt x="634" y="460" on="0"/>
        <pt x="630" y="514" on="0"/>
        <pt x="628" y="566" on="0"/>
        <pt x="628" y="588" on="1"/>
        <pt x="628" y="613" on="1"/>
        <pt x="627" y="613" on="1"/>
        <pt x="624" y="604" on="0"/>
        <pt x="612" y="576" on="0"/>
        <pt x="599" y="549" on="0"/>
        <pt x="588" y="527" on="0"/>
        <pt x="586" y="523" on="1"/>
        <pt x="482" y="316" on="1"/>
        <pt x="317" y="0" on="1"/>
        <pt x="232" y="0" on="1"/>
        <pt x="162" y="694" on="1"/>
        <pt x="258" y="694" on="1"/>
        <pt x="296" y="278" on="1"/>
        <pt x="298" y="260" on="0"/>
        <pt x="301" y="217" on="0"/>
        <pt x="303" y="174" on="0"/>
        <pt x="305" y="132" on="0"/>
        <pt x="305" y="114" on="1"/>
        <pt x="305" y="108" on="0"/>
        <pt x="304" y="86" on="0"/>
        <pt x="303" y="81" on="1"/>
        <pt x="304" y="81" on="1"/>
        <pt x="310" y="98" on="0"/>
        <pt x="336" y="157" on="0"/>
        <pt x="370" y="226" on="0"/>
        <pt x="406" y="299" on="0"/>
        <pt x="438" y="362" on="0"/>
        <pt x="461" y="407" on="0"/>
        <pt x="465" y="414" on="1"/>
        <pt x="611" y="694" on="1"/>
        <pt x="696" y="694" on="1"/>
        <pt x="734" y="296" on="1"/>
        <pt x="736" y="275" on="0"/>
        <pt x="740" y="226" on="0"/>
        <pt x="744" y="175" on="0"/>
        <pt x="746" y="125" on="0"/>
        <pt x="746" y="105" on="1"/>
        <pt x="746" y="81" on="1"/>
        <pt x="747" y="81" on="1"/>
        <pt x="752" y="95" on="0"/>
        <pt x="776" y="149" on="0"/>
        <pt x="808" y="214" on="0"/>
        <pt x="843" y="283" on="0"/>
        <pt x="873" y="340" on="0"/>
        <pt x="892" y="378" on="0"/>
        <pt x="893" y="380" on="1"/>
        <pt x="1057" y="694" on="1"/>
        <pt x="1135" y="694" on="1"/>
      </contour>
    </TTGlyph>
    <TTGlyph name="X" xMin="15" yMin="0" xMax="795" yMax="694">
      <contour>
        <pt x="692" y="0" on="1"/>
        <pt x="573" y="0" on="1"/>
        <pt x="410" y="301" on="1"/>
        <pt x="124" y="0" on="1"/>
        <pt x="15" y="0" on="1"/>
        <pt x="375" y="366" on="1"/>
        <pt x="177" y="694" on="1"/>
        <pt x="296" y="694" on="1"/>
        <pt x="439" y="438" on="1"/>
        <pt x="686" y="694" on="1"/>
        <pt x="795" y="694" on="1"/>
        <pt x="473" y="366" on="1"/>
      </contour>
    </TTGlyph>
    <TTGlyph name="Xi" xMin="44" yMin="0" xMax="803" yMax="687">
      <contour>
        <pt x="785" y="602" on="1"/>
        <pt x="651" y="602" on="1"/>
        <pt x="609" y="602" on="0"/>
        <pt x="523" y="603" on="0"/>
        <pt x="481" y="603" on="1"/>
        <pt x="439" y="603" on="0"/>
        <pt x="354" y="602" on="0"/>
        <pt x="312" y="602" on="1"/>
        <pt x="178" y="602" on="1"/>
        <pt x="196" y="687" on="1"/>
        <pt x="803" y="687" on="1"/>
      </contour>
      <contour>
        <pt x="681" y="85" on="1"/>
        <pt x="663" y="0" on="1"/>
        <pt x="44" y="0" on="1"/>
        <pt x="62" y="85" on="1"/>
        <pt x="199" y="85" on="1"/>
        <pt x="242" y="85" on="0"/>
        <pt x="329" y="84" on="0"/>
        <pt x="372" y="84" on="1"/>
        <pt x="415" y="84" on="0"/>
        <pt x="501" y="85" on="0"/>
        <pt x="544" y="85" on="1"/>
      </contour>
      <contour>
        <pt x="674" y="399" on="1"/>
        <pt x="656" y="315" on="1"/>
        <pt x="185" y="315" on="1"/>
        <pt x="203" y="399" on="1"/>
      </contour>
    </TTGlyph>
    <TTGlyph name="Y" xMin="150" yMin="0" xMax="852" yMax="694">
      <contour>
        <pt x="462" y="278" on="1"/>
        <pt x="403" y="0" on="1"/>
        <pt x="305" y="0" on="1"/>
        <pt x="364" y="278" on="1"/>
        <pt x="150" y="694" on="1"/>
        <pt x="271" y="694" on="1"/>
        <pt x="399" y="441" on="1"/>
        <pt x="408" y="423" on="0"/>
        <pt x="420" y="400" on="0"/>
        <pt x="429" y="381" on="0"/>
        <pt x="435" y="365" on="0"/>
        <pt x="439" y="354" on="1"/>
        <pt x="444" y="360" on="0"/>
        <pt x="468" y="387" on="0"/>
        <pt x="497" y="419" on="0"/>
        <pt x="527" y="451" on="0"/>
        <pt x="538" y="463" on="1"/>
        <pt x="752" y="694" on="1"/>
        <pt x="852" y="694" on="1"/>
      </contour>
    </TTGlyph>
    <TTGlyph name="Z" xMin="59" yMin="0" xMax="736" yMax="694">
      <contour>
        <pt x="204" y="69" on="1"/>
        <pt x="233" y="69" on="1"/>
        <pt x="302" y="69" on="0"/>
        <pt x="439" y="71" on="0"/>
        <pt x="508" y="71" on="1"/>
        <pt x="610" y="71" on="1"/>
        <pt x="595" y="0" on="1"/>
        <pt x="59" y="0" on="1"/>
        <pt x="61" y="12" on="0"/>
        <pt x="62" y="17" on="0"/>
        <pt x="65" y="29" on="1"/>
        <pt x="68" y="41" on="0"/>
        <pt x="71" y="49" on="0"/>
        <pt x="76" y="54" on="1"/>
        <pt x="593" y="628" on="1"/>
        <pt x="454" y="628" on="1"/>
        <pt x="445" y="628" on="0"/>
        <pt x="427" y="627" on="0"/>
        <pt x="418" y="627" on="1"/>
        <pt x="207" y="627" on="1"/>
        <pt x="221" y="694" on="1"/>
        <pt x="736" y="694" on="1"/>
        <pt x="736" y="693" on="0"/>
        <pt x="734" y="684" on="0"/>
        <pt x="732" y="673" on="0"/>
        <pt x="730" y="664" on="0"/>
        <pt x="730" y="664" on="1"/>
        <pt x="728" y="654" on="0"/>
        <pt x="725" y="647" on="0"/>
        <pt x="719" y="641" on="1"/>
      </contour>
    </TTGlyph>
    <TTGlyph name="a" xMin="67" yMin="-10" xMax="492" yMax="459">
      <contour>
        <pt x="426" y="0" on="1"/>
        <pt x="342" y="0" on="1"/>
        <pt x="350" y="38" on="1"/>
        <pt x="322" y="21" on="0"/>
        <pt x="263" y="1" on="0"/>
        <pt x="211" y="-8" on="0"/>
        <pt x="173" y="-10" on="0"/>
        <pt x="165" y="-10" on="1"/>
        <pt x="133" y="-10" on="0"/>
        <pt x="95" y="13" on="0"/>
        <pt x="74" y="45" on="0"/>
        <pt x="67" y="79" on="0"/>
        <pt x="67" y="90" on="1"/>
        <pt x="67" y="127" on="0"/>
        <pt x="105" y="178" on="0"/>
        <pt x="166" y="212" on="0"/>
        <pt x="241" y="233" on="0"/>
        <pt x="313" y="243" on="0"/>
        <pt x="375" y="246" on="0"/>
        <pt x="392" y="247" on="1"/>
        <pt x="397" y="270" on="0"/>
        <pt x="401" y="295" on="0"/>
        <pt x="404" y="308" on="0"/>
        <pt x="404" y="315" on="0"/>
        <pt x="404" y="318" on="1"/>
        <pt x="404" y="347" on="0"/>
        <pt x="371" y="395" on="0"/>
        <pt x="333" y="395" on="1"/>
        <pt x="285" y="395" on="0"/>
        <pt x="202" y="368" on="0"/>
        <pt x="161" y="343" on="1"/>
        <pt x="170" y="416" on="1"/>
        <pt x="218" y="439" on="0"/>
        <pt x="300" y="459" on="0"/>
        <pt x="346" y="459" on="1"/>
        <pt x="384" y="459" on="0"/>
        <pt x="439" y="436" on="0"/>
        <pt x="475" y="399" on="0"/>
        <pt x="492" y="351" on="0"/>
        <pt x="492" y="326" on="1"/>
        <pt x="492" y="312" on="0"/>
        <pt x="491" y="302" on="0"/>
        <pt x="489" y="294" on="1"/>
      </contour>
      <contour>
        <pt x="379" y="191" on="1"/>
        <pt x="370" y="191" on="0"/>
        <pt x="342" y="189" on="0"/>
        <pt x="306" y="186" on="0"/>
        <pt x="266" y="181" on="0"/>
        <pt x="246" y="177" on="1"/>
        <pt x="198" y="166" on="0"/>
        <pt x="149" y="136" on="0"/>
        <pt x="149" y="109" on="1"/>
        <pt x="149" y="83" on="0"/>
        <pt x="199" y="56" on="0"/>
        <pt x="234" y="56" on="1"/>
        <pt x="257" y="56" on="0"/>
        <pt x="317" y="70" on="0"/>
        <pt x="340" y="88" on="1"/>
        <pt x="349" y="96" on="0"/>
        <pt x="359" y="110" on="0"/>
        <pt x="367" y="131" on="0"/>
        <pt x="374" y="164" on="0"/>
      </contour>
    </TTGlyph>
    <TTGlyph name="acute" xMin="329" yMin="527" xMax="589" yMax="694">
      <contour>
        <pt x="395" y="527" on="1"/>
        <pt x="329" y="527" on="1"/>
        <pt x="502" y="694" on="1"/>
        <pt x="589" y="694" on="1"/>
      </contour>
    </TTGlyph>
    <TTGlyph name="ae" xMin="71" yMin="-10" xMax="793" yMax="459">
      <contour>
        <pt x="474" y="219" on="1"/>
        <pt x="473" y="214" on="0"/>
        <pt x="470" y="193" on="0"/>
        <pt x="470" y="185" on="1"/>
        <pt x="470" y="161" on="0"/>
        <pt x="485" y="115" on="0"/>
        <pt x="515" y="78" on="0"/>
        <pt x="560" y="56" on="0"/>
        <pt x="590" y="56" on="1"/>
        <pt x="597" y="56" on="0"/>
        <pt x="628" y="59" on="0"/>
        <pt x="670" y="69" on="0"/>
        <pt x="721" y="90" on="0"/>
        <pt x="748" y="109" on="1"/>
        <pt x="748" y="105" on="0"/>
        <pt x="745" y="84" on="0"/>
        <pt x="742" y="61" on="0"/>
        <pt x="739" y="42" on="0"/>
        <pt x="738" y="40" on="1"/>
        <pt x="738" y="38" on="0"/>
        <pt x="711" y="22" on="0"/>
        <pt x="666" y="4" on="0"/>
        <pt x="608" y="-10" on="0"/>
        <pt x="575" y="-10" on="1"/>
        <pt x="522" y="-10" on="0"/>
        <pt x="441" y="31" on="0"/>
        <pt x="418" y="64" on="1"/>
        <pt x="395" y="38" on="0"/>
        <pt x="324" y="8" on="0"/>
        <pt x="251" y="-7" on="0"/>
        <pt x="187" y="-10" on="0"/>
        <pt x="171" y="-10" on="1"/>
        <pt x="155" y="-10" on="0"/>
        <pt x="117" y="-4" on="0"/>
        <pt x="99" y="14" on="1"/>
        <pt x="89" y="25" on="0"/>
        <pt x="77" y="49" on="0"/>
        <pt x="72" y="71" on="0"/>
        <pt x="71" y="87" on="0"/>
        <pt x="71" y="89" on="1"/>
        <pt x="71" y="124" on="0"/>
        <pt x="105" y="174" on="0"/>
        <pt x="159" y="209" on="0"/>
        <pt x="228" y="231" on="0"/>
        <pt x="300" y="243" on="0"/>
        <pt x="368" y="248" on="0"/>
        <pt x="393" y="249" on="1"/>
        <pt x="397" y="266" on="0"/>
        <pt x="405" y="308" on="0"/>
        <pt x="405" y="318" on="1"/>
        <pt x="405" y="332" on="0"/>
        <pt x="397" y="360" on="0"/>
        <pt x="380" y="382" on="0"/>
        <pt x="353" y="395" on="0"/>
        <pt x="333" y="395" on="1"/>
        <pt x="297" y="395" on="0"/>
        <pt x="209" y="373" on="0"/>
        <pt x="161" y="343" on="1"/>
        <pt x="170" y="416" on="1"/>
        <pt x="211" y="435" on="0"/>
        <pt x="292" y="459" on="0"/>
        <pt x="346" y="459" on="1"/>
        <pt x="376" y="459" on="0"/>
        <pt x="421" y="445" on="0"/>
        <pt x="453" y="424" on="0"/>
        <pt x="474" y="397" on="0"/>
        <pt x="480" y="384" on="1"/>
        <pt x="528" y="427" on="0"/>
        <pt x="622" y="459" on="0"/>
        <pt x="658" y="459" on="1"/>
        <pt x="729" y="459" on="0"/>
        <pt x="793" y="373" on="0"/>
        <pt x="793" y="307" on="1"/>
        <pt x="793" y="283" on="0"/>
        <pt x="786" y="233" on="0"/>
        <pt x="783" y="219" on="1"/>
      </contour>
      <contour>
        <pt x="732" y="279" on="1"/>
        <pt x="732" y="288" on="0"/>
        <pt x="729" y="326" on="0"/>
        <pt x="713" y="364" on="0"/>
        <pt x="677" y="393" on="0"/>
        <pt x="644" y="393" on="1"/>
        <pt x="624" y="393" on="0"/>
        <pt x="581" y="377" on="0"/>
        <pt x="541" y="347" on="0"/>
        <pt x="506" y="305" on="0"/>
        <pt x="494" y="279" on="1"/>
      </contour>
      <contour>
        <pt x="382" y="189" on="1"/>
        <pt x="370" y="189" on="0"/>
        <pt x="326" y="186" on="0"/>
        <pt x="275" y="181" on="0"/>
        <pt x="223" y="171" on="0"/>
        <pt x="180" y="153" on="0"/>
        <pt x="153" y="128" on="0"/>
        <pt x="153" y="110" on="1"/>
        <pt x="153" y="89" on="0"/>
        <pt x="192" y="56" on="0"/>
        <pt x="237" y="56" on="1"/>
        <pt x="284" y="56" on="0"/>
        <pt x="338" y="74" on="0"/>
        <pt x="365" y="98" on="0"/>
        <pt x="374" y="124" on="0"/>
        <pt x="375" y="132" on="1"/>
        <pt x="376" y="137" on="0"/>
        <pt x="377" y="144" on="0"/>
        <pt x="378" y="155" on="0"/>
        <pt x="380" y="173" on="0"/>
      </contour>
    </TTGlyph>
    <TTGlyph name="ampersand" xMin="72" yMin="-21" xMax="790" yMax="715">
      <contour>
        <pt x="790" y="388" on="1"/>
        <pt x="777" y="360" on="0"/>
        <pt x="734" y="287" on="0"/>
        <pt x="671" y="206" on="0"/>
        <pt x="586" y="122" on="0"/>
        <pt x="531" y="81" on="1"/>
        <pt x="560" y="61" on="0"/>
        <pt x="608" y="48" on="0"/>
        <pt x="634" y="48" on="1"/>
        <pt x="645" y="48" on="0"/>
        <pt x="715" y="54" on="0"/>
        <pt x="760" y="67" on="1"/>
        <pt x="744" y="-6" on="1"/>
        <pt x="696" y="-17" on="0"/>
        <pt x="625" y="-21" on="0"/>
        <pt x="619" y="-21" on="1"/>
        <pt x="606" y="-21" on="0"/>
        <pt x="571" y="-18" on="0"/>
        <pt x="529" y="-7" on="0"/>
        <pt x="482" y="16" on="0"/>
        <pt x="457" y="37" on="1"/>
        <pt x="441" y="28" on="0"/>
        <pt x="393" y="8" on="0"/>
        <pt x="336" y="-10" on="0"/>
        <pt x="270" y="-21" on="0"/>
        <pt x="235" y="-21" on="1"/>
        <pt x="196" y="-21" on="0"/>
        <pt x="135" y="2" on="0"/>
        <pt x="93" y="40" on="0"/>
        <pt x="72" y="90" on="0"/>
        <pt x="72" y="117" on="1"/>
        <pt x="72" y="168" on="0"/>
        <pt x="131" y="252" on="0"/>
        <pt x="174" y="281" on="1"/>
        <pt x="278" y="351" on="1"/>
        <pt x="273" y="377" on="0"/>
        <pt x="272" y="411" on="0"/>
        <pt x="272" y="424" on="1"/>
        <pt x="272" y="492" on="0"/>
        <pt x="308" y="599" on="0"/>
        <pt x="365" y="675" on="0"/>
        <pt x="436" y="715" on="0"/>
        <pt x="471" y="715" on="1"/>
        <pt x="523" y="715" on="0"/>
        <pt x="579" y="644" on="0"/>
        <pt x="579" y="593" on="1"/>
        <pt x="579" y="565" on="0"/>
        <pt x="560" y="511" on="0"/>
        <pt x="513" y="452" on="0"/>
        <pt x="431" y="384" on="0"/>
        <pt x="368" y="341" on="1"/>
        <pt x="378" y="308" on="0"/>
        <pt x="410" y="241" on="0"/>
        <pt x="445" y="182" on="0"/>
        <pt x="476" y="137" on="0"/>
        <pt x="486" y="126" on="1"/>
        <pt x="515" y="146" on="0"/>
        <pt x="575" y="196" on="0"/>
        <pt x="637" y="263" on="0"/>
        <pt x="698" y="350" on="0"/>
        <pt x="727" y="406" on="1"/>
      </contour>
      <contour>
        <pt x="350" y="464" on="1"/>
        <pt x="350" y="462" on="0"/>
        <pt x="351" y="443" on="0"/>
        <pt x="352" y="422" on="0"/>
        <pt x="355" y="406" on="0"/>
        <pt x="356" y="406" on="1"/>
        <pt x="357" y="406" on="0"/>
        <pt x="379" y="421" on="0"/>
        <pt x="408" y="443" on="0"/>
        <pt x="439" y="469" on="0"/>
        <pt x="450" y="479" on="1"/>
        <pt x="484" y="512" on="0"/>
        <pt x="504" y="558" on="0"/>
        <pt x="504" y="585" on="1"/>
        <pt x="504" y="615" on="0"/>
        <pt x="480" y="649" on="0"/>
        <pt x="457" y="649" on="1"/>
        <pt x="428" y="649" on="0"/>
        <pt x="381" y="608" on="0"/>
        <pt x="370" y="584" on="1"/>
        <pt x="363" y="568" on="0"/>
        <pt x="354" y="527" on="0"/>
        <pt x="351" y="490" on="0"/>
        <pt x="350" y="464" on="0"/>
      </contour>
      <contour>
        <pt x="226" y="244" on="1"/>
        <pt x="204" y="229" on="0"/>
        <pt x="178" y="196" on="0"/>
        <pt x="165" y="166" on="0"/>
        <pt x="162" y="141" on="0"/>
        <pt x="162" y="134" on="1"/>
        <pt x="162" y="119" on="0"/>
        <pt x="171" y="88" on="0"/>
        <pt x="192" y="63" on="0"/>
        <pt x="226" y="48" on="0"/>
        <pt x="251" y="48" on="1"/>
        <pt x="277" y="48" on="0"/>
        <pt x="357" y="61" on="0"/>
        <pt x="409" y="84" on="1"/>
        <pt x="402" y="93" on="0"/>
        <pt x="372" y="132" on="0"/>
        <pt x="338" y="186" on="0"/>
        <pt x="304" y="253" on="0"/>
        <pt x="293" y="289" on="1"/>
      </contour>
    </TTGlyph>
    <TTGlyph name="asterisk" xMin="160" yMin="306" xMax="594" yMax="750">
      <contour>
        <pt x="378" y="353" on="1"/>
        <pt x="376" y="337" on="0"/>
        <pt x="362" y="318" on="0"/>
        <pt x="347" y="308" on="0"/>
        <pt x="333" y="306" on="0"/>
        <pt x="330" y="306" on="1"/>
        <pt x="319" y="306" on="0"/>
        <pt x="299" y="320" on="0"/>
        <pt x="299" y="335" on="1"/>
        <pt x="299" y="340" on="0"/>
        <pt x="302" y="353" on="0"/>
        <pt x="303" y="355" on="1"/>
        <pt x="337" y="477" on="1"/>
        <pt x="229" y="413" on="1"/>
        <pt x="210" y="402" on="0"/>
        <pt x="199" y="397" on="0"/>
        <pt x="191" y="397" on="1"/>
        <pt x="180" y="397" on="0"/>
        <pt x="160" y="413" on="0"/>
        <pt x="160" y="429" on="1"/>
        <pt x="160" y="449" on="0"/>
        <pt x="184" y="467" on="0"/>
        <pt x="195" y="472" on="1"/>
        <pt x="319" y="528" on="1"/>
        <pt x="218" y="583" on="1"/>
        <pt x="204" y="591" on="0"/>
        <pt x="199" y="606" on="0"/>
        <pt x="199" y="612" on="1"/>
        <pt x="199" y="632" on="0"/>
        <pt x="230" y="659" on="0"/>
        <pt x="246" y="659" on="1"/>
        <pt x="254" y="659" on="0"/>
        <pt x="263" y="653" on="0"/>
        <pt x="270" y="648" on="1"/>
        <pt x="359" y="579" on="1"/>
        <pt x="377" y="705" on="1"/>
        <pt x="379" y="720" on="0"/>
        <pt x="392" y="738" on="0"/>
        <pt x="407" y="747" on="0"/>
        <pt x="421" y="750" on="0"/>
        <pt x="424" y="750" on="1"/>
        <pt x="441" y="750" on="0"/>
        <pt x="456" y="730" on="0"/>
        <pt x="456" y="721" on="1"/>
        <pt x="456" y="720" on="0"/>
        <pt x="455" y="716" on="0"/>
        <pt x="453" y="709" on="1"/>
        <pt x="417" y="579" on="1"/>
        <pt x="538" y="650" on="1"/>
        <pt x="543" y="652" on="0"/>
        <pt x="557" y="659" on="0"/>
        <pt x="563" y="659" on="1"/>
        <pt x="579" y="659" on="0"/>
        <pt x="594" y="638" on="0"/>
        <pt x="594" y="627" on="1"/>
        <pt x="594" y="617" on="0"/>
        <pt x="586" y="601" on="0"/>
        <pt x="575" y="591" on="0"/>
        <pt x="564" y="585" on="0"/>
        <pt x="561" y="584" on="1"/>
        <pt x="436" y="528" on="1"/>
        <pt x="536" y="473" on="1"/>
        <pt x="556" y="462" on="0"/>
        <pt x="556" y="445" on="1"/>
        <pt x="556" y="426" on="0"/>
        <pt x="525" y="397" on="0"/>
        <pt x="509" y="397" on="1"/>
        <pt x="507" y="397" on="0"/>
        <pt x="506" y="398" on="1"/>
        <pt x="500" y="399" on="0"/>
        <pt x="493" y="401" on="0"/>
        <pt x="484" y="409" on="1"/>
        <pt x="396" y="477" on="1"/>
      </contour>
    </TTGlyph>
    <TTGlyph name="at" xMin="125" yMin="-10" xMax="743" yMax="704">
      <contour>
        <pt x="667" y="88" on="1"/>
        <pt x="652" y="75" on="0"/>
        <pt x="601" y="41" on="0"/>
        <pt x="535" y="11" on="0"/>
        <pt x="455" y="-10" on="0"/>
        <pt x="410" y="-10" on="1"/>
        <pt x="350" y="-10" on="0"/>
        <pt x="245" y="30" on="0"/>
        <pt x="169" y="104" on="0"/>
        <pt x="125" y="208" on="0"/>
        <pt x="125" y="272" on="1"/>
        <pt x="125" y="358" on="0"/>
        <pt x="200" y="514" on="0"/>
        <pt x="323" y="633" on="0"/>
        <pt x="479" y="704" on="0"/>
        <pt x="560" y="704" on="1"/>
        <pt x="620" y="704" on="0"/>
        <pt x="692" y="666" on="0"/>
        <pt x="731" y="607" on="0"/>
        <pt x="743" y="538" on="0"/>
        <pt x="743" y="506" on="1"/>
        <pt x="743" y="502" on="0"/>
        <pt x="740" y="442" on="0"/>
        <pt x="726" y="360" on="0"/>
        <pt x="698" y="270" on="0"/>
        <pt x="673" y="235" on="1"/>
        <pt x="628" y="173" on="0"/>
        <pt x="523" y="120" on="0"/>
        <pt x="477" y="120" on="1"/>
        <pt x="445" y="120" on="0"/>
        <pt x="389" y="144" on="0"/>
        <pt x="347" y="189" on="0"/>
        <pt x="323" y="253" on="0"/>
        <pt x="323" y="293" on="1"/>
        <pt x="323" y="348" on="0"/>
        <pt x="367" y="450" on="0"/>
        <pt x="437" y="528" on="0"/>
        <pt x="527" y="574" on="0"/>
        <pt x="573" y="574" on="1"/>
        <pt x="593" y="574" on="0"/>
        <pt x="635" y="563" on="0"/>
        <pt x="654" y="552" on="1"/>
        <pt x="646" y="597" on="0"/>
        <pt x="585" y="638" on="0"/>
        <pt x="546" y="638" on="1"/>
        <pt x="483" y="638" on="0"/>
        <pt x="362" y="580" on="0"/>
        <pt x="266" y="482" on="0"/>
        <pt x="207" y="353" on="0"/>
        <pt x="207" y="283" on="1"/>
        <pt x="207" y="234" on="0"/>
        <pt x="238" y="150" on="0"/>
        <pt x="296" y="90" on="0"/>
        <pt x="377" y="56" on="0"/>
        <pt x="427" y="56" on="1"/>
        <pt x="461" y="56" on="0"/>
        <pt x="543" y="69" on="0"/>
        <pt x="586" y="85" on="1"/>
        <pt x="593" y="87" on="0"/>
        <pt x="601" y="88" on="0"/>
        <pt x="613" y="88" on="1"/>
      </contour>
      <contour>
        <pt x="491" y="186" on="1"/>
        <pt x="520" y="186" on="0"/>
        <pt x="576" y="221" on="0"/>
        <pt x="619" y="280" on="0"/>
        <pt x="646" y="354" on="0"/>
        <pt x="646" y="393" on="1"/>
        <pt x="646" y="416" on="0"/>
        <pt x="635" y="457" on="0"/>
        <pt x="613" y="489" on="0"/>
        <pt x="581" y="508" on="0"/>
        <pt x="559" y="508" on="1"/>
        <pt x="532" y="508" on="0"/>
        <pt x="477" y="474" on="0"/>
        <pt x="433" y="417" on="0"/>
        <pt x="405" y="342" on="0"/>
        <pt x="405" y="301" on="1"/>
        <pt x="405" y="242" on="0"/>
        <pt x="458" y="186" on="0"/>
      </contour>
    </TTGlyph>
    <TTGlyph name="b" xMin="85" yMin="-10" xMax="567" yMax="694">
      <contour>
        <pt x="254" y="398" on="1"/>
        <pt x="311" y="433" on="0"/>
        <pt x="409" y="454" on="0"/>
        <pt x="439" y="454" on="1"/>
        <pt x="475" y="454" on="0"/>
        <pt x="524" y="422" on="0"/>
        <pt x="554" y="373" on="0"/>
        <pt x="567" y="315" on="0"/>
        <pt x="567" y="289" on="1"/>
        <pt x="567" y="229" on="0"/>
        <pt x="524" y="121" on="0"/>
        <pt x="453" y="39" on="0"/>
        <pt x="361" y="-10" on="0"/>
        <pt x="313" y="-10" on="1"/>
        <pt x="301" y="-10" on="0"/>
        <pt x="270" y="-6" on="0"/>
        <pt x="235" y="6" on="0"/>
        <pt x="199" y="29" on="0"/>
        <pt x="182" y="47" on="1"/>
        <pt x="172" y="0" on="1"/>
        <pt x="85" y="0" on="1"/>
        <pt x="233" y="694" on="1"/>
        <pt x="316" y="694" on="1"/>
      </contour>
      <contour>
        <pt x="197" y="119" on="1"/>
        <pt x="210" y="85" on="0"/>
        <pt x="255" y="56" on="0"/>
        <pt x="284" y="56" on="1"/>
        <pt x="327" y="56" on="0"/>
        <pt x="399" y="92" on="0"/>
        <pt x="450" y="152" on="0"/>
        <pt x="478" y="230" on="0"/>
        <pt x="478" y="272" on="1"/>
        <pt x="478" y="304" on="0"/>
        <pt x="458" y="349" on="0"/>
        <pt x="426" y="376" on="0"/>
        <pt x="386" y="388" on="0"/>
        <pt x="365" y="388" on="1"/>
        <pt x="344" y="388" on="0"/>
        <pt x="308" y="377" on="0"/>
        <pt x="279" y="363" on="0"/>
        <pt x="260" y="349" on="0"/>
        <pt x="256" y="346" on="1"/>
        <pt x="248" y="338" on="0"/>
        <pt x="243" y="330" on="0"/>
        <pt x="240" y="318" on="1"/>
      </contour>
    </TTGlyph>
    <TTGlyph name="bracketleft" xMin="54" yMin="-250" xMax="444" yMax="750">
      <contour>
        <pt x="148" y="-184" on="1"/>
        <pt x="246" y="-184" on="1"/>
        <pt x="232" y="-250" on="1"/>
        <pt x="54" y="-250" on="1"/>
        <pt x="266" y="750" on="1"/>
        <pt x="444" y="750" on="1"/>
        <pt x="430" y="684" on="1"/>
        <pt x="332" y="684" on="1"/>
      </contour>
    </TTGlyph>
    <TTGlyph name="bracketright" xMin="-30" yMin="-250" xMax="360" yMax="750">
      <contour>
        <pt x="148" y="-250" on="1"/>
        <pt x="-30" y="-250" on="1"/>
        <pt x="-16" y="-184" on="1"/>
        <pt x="82" y="-184" on="1"/>
        <pt x="266" y="684" on="1"/>
        <pt x="168" y="684" on="1"/>
        <pt x="182" y="750" on="1"/>
        <pt x="360" y="750" on="1"/>
      </contour>
    </TTGlyph>
    <TTGlyph name="breve" xMin="228" yMin="512" xMax="592" yMax="694">
      <contour>
        <pt x="592" y="694" on="1"/>
        <pt x="583" y="652" on="0"/>
        <pt x="538" y="585" on="0"/>
        <pt x="478" y="538" on="0"/>
        <pt x="408" y="512" on="0"/>
        <pt x="374" y="512" on="1"/>
        <pt x="340" y="512" on="0"/>
        <pt x="286" y="535" on="0"/>
        <pt x="248" y="574" on="0"/>
        <pt x="228" y="627" on="0"/>
        <pt x="228" y="656" on="1"/>
        <pt x="228" y="667" on="0"/>
        <pt x="229" y="677" on="0"/>
        <pt x="232" y="694" on="1"/>
        <pt x="298" y="694" on="1"/>
        <pt x="296" y="685" on="0"/>
        <pt x="296" y="678" on="0"/>
        <pt x="296" y="672" on="1"/>
        <pt x="296" y="634" on="0"/>
        <pt x="348" y="585" on="0"/>
        <pt x="389" y="585" on="1"/>
        <pt x="410" y="585" on="0"/>
        <pt x="454" y="600" on="0"/>
        <pt x="492" y="628" on="0"/>
        <pt x="520" y="669" on="0"/>
        <pt x="526" y="694" on="1"/>
      </contour>
    </TTGlyph>
    <TTGlyph name="c" xMin="78" yMin="-10" xMax="524" yMax="459">
      <contour>
        <pt x="449" y="36" on="1"/>
        <pt x="440" y="31" on="0"/>
        <pt x="405" y="16" on="0"/>
        <pt x="358" y="1" on="0"/>
        <pt x="299" y="-10" on="0"/>
        <pt x="266" y="-10" on="1"/>
        <pt x="222" y="-10" on="0"/>
        <pt x="152" y="19" on="0"/>
        <pt x="104" y="68" on="0"/>
        <pt x="78" y="135" on="0"/>
        <pt x="78" y="174" on="1"/>
        <pt x="78" y="223" on="0"/>
        <pt x="121" y="324" on="0"/>
        <pt x="199" y="407" on="0"/>
        <pt x="306" y="459" on="0"/>
        <pt x="370" y="459" on="1"/>
        <pt x="398" y="459" on="0"/>
        <pt x="439" y="454" on="0"/>
        <pt x="473" y="444" on="0"/>
        <pt x="505" y="427" on="0"/>
        <pt x="524" y="416" on="1"/>
        <pt x="496" y="344" on="1"/>
        <pt x="479" y="357" on="0"/>
        <pt x="448" y="375" on="0"/>
        <pt x="415" y="385" on="0"/>
        <pt x="378" y="390" on="0"/>
        <pt x="355" y="390" on="1"/>
        <pt x="306" y="390" on="0"/>
        <pt x="234" y="347" on="0"/>
        <pt x="187" y="282" on="0"/>
        <pt x="165" y="209" on="0"/>
        <pt x="165" y="179" on="1"/>
        <pt x="165" y="161" on="0"/>
        <pt x="175" y="119" on="0"/>
        <pt x="202" y="83" on="0"/>
        <pt x="247" y="59" on="0"/>
        <pt x="282" y="59" on="1"/>
        <pt x="331" y="59" on="0"/>
        <pt x="419" y="86" on="0"/>
        <pt x="458" y="109" on="1"/>
      </contour>
    </TTGlyph>
    <TTGlyph name="caron" xMin="222" yMin="486" xMax="585" yMax="653">
      <contour>
        <pt x="403" y="486" on="1"/>
        <pt x="334" y="486" on="1"/>
        <pt x="222" y="653" on="1"/>
        <pt x="288" y="653" on="1"/>
        <pt x="378" y="532" on="1"/>
        <pt x="519" y="653" on="1"/>
        <pt x="585" y="653" on="1"/>
      </contour>
    </TTGlyph>
    <TTGlyph name="cedilla" xMin="112" yMin="-191" xMax="293" yMax="-23">
      <contour>
        <pt x="189" y="-191" on="1"/>
        <pt x="112" y="-191" on="1"/>
        <pt x="227" y="-23" on="1"/>
        <pt x="293" y="-23" on="1"/>
      </contour>
    </TTGlyph>
    <TTGlyph name="circumflex" xMin="196" yMin="527" xMax="558" yMax="694">
      <contour>
        <pt x="558" y="527" on="1"/>
        <pt x="492" y="527" on="1"/>
        <pt x="403" y="648" on="1"/>
        <pt x="262" y="527" on="1"/>
        <pt x="196" y="527" on="1"/>
        <pt x="378" y="694" on="1"/>
        <pt x="447" y="694" on="1"/>
      </contour>
    </TTGlyph>
    <TTGlyph name="colon" xMin="102" yMin="0" xMax="286" yMax="444">
      <contour>
        <pt x="267" y="354" on="1"/>
        <pt x="177" y="354" on="1"/>
        <pt x="196" y="444" on="1"/>
        <pt x="286" y="444" on="1"/>
      </contour>
      <contour>
        <pt x="121" y="90" on="1"/>
        <pt x="211" y="90" on="1"/>
        <pt x="192" y="0" on="1"/>
        <pt x="102" y="0" on="1"/>
      </contour>
    </TTGlyph>
    <TTGlyph name="comma" xMin="74" yMin="-128" xMax="211" yMax="90">
      <contour>
        <pt x="199" y="35" on="1"/>
        <pt x="197" y="24" on="0"/>
        <pt x="191" y="-1" on="0"/>
        <pt x="188" y="-6" on="1"/>
        <pt x="182" y="-17" on="0"/>
        <pt x="164" y="-50" on="0"/>
        <pt x="143" y="-85" on="0"/>
        <pt x="125" y="-118" on="0"/>
        <pt x="119" y="-128" on="1"/>
        <pt x="74" y="-128" on="1"/>
        <pt x="130" y="0" on="1"/>
        <pt x="102" y="0" on="1"/>
        <pt x="121" y="90" on="1"/>
        <pt x="211" y="90" on="1"/>
      </contour>
    </TTGlyph>
    <TTGlyph name="d" xMin="76" yMin="-10" xMax="611" yMax="694">
      <contour>
        <pt x="463" y="0" on="1"/>
        <pt x="376" y="0" on="1"/>
        <pt x="387" y="52" on="1"/>
        <pt x="332" y="12" on="0"/>
        <pt x="242" y="-10" on="0"/>
        <pt x="216" y="-10" on="1"/>
        <pt x="180" y="-10" on="0"/>
        <pt x="127" y="20" on="0"/>
        <pt x="93" y="68" on="0"/>
        <pt x="76" y="129" on="0"/>
        <pt x="76" y="160" on="1"/>
        <pt x="76" y="214" on="0"/>
        <pt x="116" y="320" on="0"/>
        <pt x="183" y="403" on="0"/>
        <pt x="270" y="454" on="0"/>
        <pt x="317" y="454" on="1"/>
        <pt x="352" y="454" on="0"/>
        <pt x="432" y="430" on="0"/>
        <pt x="464" y="401" on="1"/>
        <pt x="527" y="694" on="1"/>
        <pt x="611" y="694" on="1"/>
      </contour>
      <contour>
        <pt x="445" y="322" on="1"/>
        <pt x="447" y="330" on="0"/>
        <pt x="447" y="334" on="1"/>
        <pt x="447" y="337" on="0"/>
        <pt x="437" y="355" on="0"/>
        <pt x="416" y="373" on="0"/>
        <pt x="382" y="388" on="0"/>
        <pt x="358" y="388" on="1"/>
        <pt x="317" y="388" on="0"/>
        <pt x="246" y="354" on="0"/>
        <pt x="194" y="296" on="0"/>
        <pt x="165" y="217" on="0"/>
        <pt x="165" y="173" on="1"/>
        <pt x="165" y="131" on="0"/>
        <pt x="194" y="83" on="0"/>
        <pt x="232" y="61" on="0"/>
        <pt x="269" y="56" on="0"/>
        <pt x="276" y="56" on="1"/>
        <pt x="299" y="56" on="0"/>
        <pt x="335" y="69" on="0"/>
        <pt x="363" y="86" on="0"/>
        <pt x="383" y="104" on="0"/>
        <pt x="388" y="109" on="1"/>
        <pt x="398" y="118" on="0"/>
        <pt x="402" y="127" on="0"/>
        <pt x="405" y="139" on="1"/>
      </contour>
    </TTGlyph>
    <TTGlyph name="dieresis" xMin="241" yMin="592" xMax="560" yMax="686">
      <contour>
        <pt x="335" y="592" on="1"/>
        <pt x="241" y="592" on="1"/>
        <pt x="261" y="686" on="1"/>
        <pt x="355" y="686" on="1"/>
      </contour>
      <contour>
        <pt x="541" y="592" on="1"/>
        <pt x="447" y="592" on="1"/>
        <pt x="466" y="686" on="1"/>
        <pt x="560" y="686" on="1"/>
      </contour>
    </TTGlyph>
    <TTGlyph name="dollar" xMin="60" yMin="-56" xMax="591" yMax="750">
      <contour>
        <pt x="383" y="405" on="1"/>
        <pt x="425" y="396" on="0"/>
        <pt x="478" y="357" on="0"/>
        <pt x="508" y="310" on="0"/>
        <pt x="518" y="261" on="0"/>
        <pt x="518" y="242" on="1"/>
        <pt x="518" y="202" on="0"/>
        <pt x="485" y="119" on="0"/>
        <pt x="426" y="50" on="0"/>
        <pt x="344" y="1" on="0"/>
        <pt x="295" y="-7" on="1"/>
        <pt x="292" y="-22" on="0"/>
        <pt x="287" y="-47" on="0"/>
        <pt x="285" y="-56" on="1"/>
        <pt x="222" y="-56" on="1"/>
        <pt x="225" y="-44" on="0"/>
        <pt x="230" y="-21" on="0"/>
        <pt x="232" y="-9" on="1"/>
        <pt x="196" y="-6" on="0"/>
        <pt x="104" y="24" on="0"/>
        <pt x="60" y="59" on="1"/>
        <pt x="89" y="133" on="1"/>
        <pt x="115" y="108" on="0"/>
        <pt x="191" y="66" on="0"/>
        <pt x="247" y="61" on="1"/>
        <pt x="301" y="317" on="1"/>
        <pt x="259" y="325" on="0"/>
        <pt x="205" y="362" on="0"/>
        <pt x="174" y="406" on="0"/>
        <pt x="163" y="453" on="0"/>
        <pt x="163" y="472" on="1"/>
        <pt x="163" y="511" on="0"/>
        <pt x="197" y="588" on="0"/>
        <pt x="257" y="651" on="0"/>
        <pt x="337" y="695" on="0"/>
        <pt x="383" y="702" on="1"/>
        <pt x="386" y="715" on="0"/>
        <pt x="391" y="738" on="0"/>
        <pt x="393" y="750" on="1"/>
        <pt x="456" y="750" on="1"/>
        <pt x="447" y="703" on="1"/>
        <pt x="479" y="701" on="0"/>
        <pt x="552" y="679" on="0"/>
        <pt x="591" y="647" on="1"/>
        <pt x="562" y="576" on="1"/>
        <pt x="540" y="596" on="0"/>
        <pt x="480" y="629" on="0"/>
        <pt x="432" y="634" on="1"/>
      </contour>
      <contour>
        <pt x="368" y="632" on="1"/>
        <pt x="344" y="626" on="0"/>
        <pt x="300" y="602" on="0"/>
        <pt x="268" y="569" on="0"/>
        <pt x="249" y="529" on="0"/>
        <pt x="249" y="506" on="1"/>
        <pt x="249" y="485" on="0"/>
        <pt x="264" y="455" on="0"/>
        <pt x="286" y="435" on="0"/>
        <pt x="312" y="423" on="0"/>
        <pt x="323" y="420" on="1"/>
      </contour>
      <contour>
        <pt x="310" y="63" on="1"/>
        <pt x="336" y="69" on="0"/>
        <pt x="380" y="98" on="0"/>
        <pt x="413" y="136" on="0"/>
        <pt x="432" y="183" on="0"/>
        <pt x="432" y="207" on="1"/>
        <pt x="432" y="243" on="0"/>
        <pt x="394" y="292" on="0"/>
        <pt x="361" y="301" on="1"/>
      </contour>
    </TTGlyph>
    <TTGlyph name="dotaccent" xMin="221" yMin="585" xMax="343" yMax="686">
      <contour>
        <pt x="322" y="585" on="1"/>
        <pt x="221" y="585" on="1"/>
        <pt x="242" y="686" on="1"/>
        <pt x="343" y="686" on="1"/>
      </contour>
    </TTGlyph>
    <TTGlyph name="dotlessi" xMin="84" yMin="0" xMax="262" yMax="444">
      <contour>
        <pt x="168" y="0" on="1"/>
        <pt x="84" y="0" on="1"/>
        <pt x="178" y="444" on="1"/>
        <pt x="262" y="444" on="1"/>
      </contour>
    </TTGlyph>
    <TTGlyph name="e" xMin="77" yMin="-10" xMax="496" yMax="459">
      <contour>
        <pt x="158" y="219" on="1"/>
        <pt x="156" y="206" on="0"/>
        <pt x="155" y="197" on="0"/>
        <pt x="155" y="186" on="1"/>
        <pt x="155" y="161" on="0"/>
        <pt x="170" y="114" on="0"/>
        <pt x="202" y="78" on="0"/>
        <pt x="249" y="56" on="0"/>
        <pt x="280" y="56" on="1"/>
        <pt x="321" y="56" on="0"/>
        <pt x="413" y="84" on="0"/>
        <pt x="453" y="109" on="1"/>
        <pt x="453" y="105" on="0"/>
        <pt x="450" y="84" on="0"/>
        <pt x="447" y="61" on="0"/>
        <pt x="444" y="42" on="0"/>
        <pt x="443" y="40" on="1"/>
        <pt x="443" y="38" on="0"/>
        <pt x="413" y="22" on="0"/>
        <pt x="364" y="4" on="0"/>
        <pt x="300" y="-10" on="0"/>
        <pt x="265" y="-10" on="1"/>
        <pt x="220" y="-10" on="0"/>
        <pt x="150" y="21" on="0"/>
        <pt x="102" y="72" on="0"/>
        <pt x="77" y="139" on="0"/>
        <pt x="77" y="175" on="1"/>
        <pt x="77" y="227" on="0"/>
        <pt x="121" y="328" on="0"/>
        <pt x="196" y="409" on="0"/>
        <pt x="294" y="459" on="0"/>
        <pt x="348" y="459" on="1"/>
        <pt x="423" y="459" on="0"/>
        <pt x="496" y="374" on="0"/>
        <pt x="496" y="302" on="1"/>
        <pt x="496" y="291" on="0"/>
        <pt x="493" y="248" on="0"/>
        <pt x="487" y="219" on="1"/>
      </contour>
      <contour>
        <pt x="438" y="279" on="1"/>
        <pt x="438" y="285" on="0"/>
        <pt x="435" y="323" on="0"/>
        <pt x="415" y="362" on="0"/>
        <pt x="374" y="393" on="0"/>
        <pt x="335" y="393" on="1"/>
        <pt x="318" y="393" on="0"/>
        <pt x="278" y="382" on="0"/>
        <pt x="236" y="355" on="0"/>
        <pt x="195" y="312" on="0"/>
        <pt x="178" y="279" on="1"/>
      </contour>
    </TTGlyph>
    <TTGlyph name="eight" xMin="79" yMin="-21" xMax="581" yMax="677">
      <contour>
        <pt x="417" y="354" on="1"/>
        <pt x="471" y="336" on="0"/>
        <pt x="528" y="261" on="0"/>
        <pt x="528" y="214" on="1"/>
        <pt x="528" y="173" on="0"/>
        <pt x="485" y="89" on="0"/>
        <pt x="412" y="22" on="0"/>
        <pt x="315" y="-21" on="0"/>
        <pt x="261" y="-21" on="1"/>
        <pt x="222" y="-21" on="0"/>
        <pt x="155" y="3" on="0"/>
        <pt x="106" y="47" on="0"/>
        <pt x="79" y="107" on="0"/>
        <pt x="79" y="144" on="1"/>
        <pt x="79" y="186" on="0"/>
        <pt x="113" y="256" on="0"/>
        <pt x="167" y="309" on="0"/>
        <pt x="232" y="345" on="0"/>
        <pt x="263" y="354" on="1"/>
        <pt x="215" y="371" on="0"/>
        <pt x="163" y="434" on="0"/>
        <pt x="163" y="476" on="1"/>
        <pt x="163" y="511" on="0"/>
        <pt x="202" y="582" on="0"/>
        <pt x="268" y="640" on="0"/>
        <pt x="358" y="677" on="0"/>
        <pt x="409" y="677" on="1"/>
        <pt x="448" y="677" on="0"/>
        <pt x="511" y="654" on="0"/>
        <pt x="556" y="615" on="0"/>
        <pt x="581" y="562" on="0"/>
        <pt x="581" y="532" on="1"/>
        <pt x="581" y="500" on="0"/>
        <pt x="554" y="444" on="0"/>
        <pt x="509" y="398" on="0"/>
        <pt x="450" y="364" on="0"/>
      </contour>
      <contour>
        <pt x="347" y="387" on="1"/>
        <pt x="382" y="387" on="0"/>
        <pt x="440" y="410" on="0"/>
        <pt x="481" y="449" on="0"/>
        <pt x="503" y="499" on="0"/>
        <pt x="503" y="526" on="1"/>
        <pt x="503" y="552" on="0"/>
        <pt x="484" y="586" on="0"/>
        <pt x="453" y="607" on="0"/>
        <pt x="415" y="615" on="0"/>
        <pt x="396" y="615" on="1"/>
        <pt x="357" y="615" on="0"/>
        <pt x="298" y="589" on="0"/>
        <pt x="259" y="549" on="0"/>
        <pt x="240" y="500" on="0"/>
        <pt x="240" y="477" on="1"/>
        <pt x="240" y="448" on="0"/>
        <pt x="264" y="413" on="0"/>
        <pt x="297" y="393" on="0"/>
        <pt x="334" y="387" on="0"/>
      </contour>
      <contour>
        <pt x="275" y="45" on="1"/>
        <pt x="314" y="45" on="0"/>
        <pt x="375" y="76" on="0"/>
        <pt x="416" y="126" on="0"/>
        <pt x="438" y="189" on="0"/>
        <pt x="438" y="220" on="1"/>
        <pt x="438" y="273" on="0"/>
        <pt x="375" y="321" on="0"/>
        <pt x="333" y="321" on="1"/>
        <pt x="296" y="321" on="0"/>
        <pt x="236" y="291" on="0"/>
        <pt x="193" y="242" on="0"/>
        <pt x="170" y="179" on="0"/>
        <pt x="170" y="146" on="1"/>
        <pt x="170" y="115" on="0"/>
        <pt x="191" y="76" on="0"/>
        <pt x="222" y="53" on="0"/>
        <pt x="259" y="45" on="0"/>
      </contour>
    </TTGlyph>
    <TTGlyph name="emdash" xMin="51" yMin="241" xMax="1127" yMax="307">
      <contour>
        <pt x="1113" y="241" on="1"/>
        <pt x="51" y="241" on="1"/>
        <pt x="65" y="307" on="1"/>
        <pt x="1127" y="307" on="1"/>
      </contour>
    </TTGlyph>
    <TTGlyph name="endash" xMin="51" yMin="241" xMax="595" yMax="307">
      <contour>
        <pt x="581" y="241" on="1"/>
        <pt x="51" y="241" on="1"/>
        <pt x="65" y="307" on="1"/>
        <pt x="595" y="307" on="1"/>
      </contour>
    </TTGlyph>
    <TTGlyph name="equal" xMin="89" yMin="118" xMax="842" yMax="382">
      <contour>
        <pt x="171" y="336" on="1"/>
        <pt x="161" y="336" on="0"/>
        <pt x="135" y="342" on="0"/>
        <pt x="135" y="359" on="1"/>
        <pt x="135" y="376" on="0"/>
        <pt x="161" y="382" on="0"/>
        <pt x="171" y="382" on="1"/>
        <pt x="806" y="382" on="1"/>
        <pt x="817" y="382" on="0"/>
        <pt x="842" y="376" on="0"/>
        <pt x="842" y="359" on="1"/>
        <pt x="842" y="342" on="0"/>
        <pt x="817" y="336" on="0"/>
        <pt x="806" y="336" on="1"/>
      </contour>
      <contour>
        <pt x="125" y="118" on="1"/>
        <pt x="114" y="118" on="0"/>
        <pt x="89" y="124" on="0"/>
        <pt x="89" y="141" on="1"/>
        <pt x="89" y="158" on="0"/>
        <pt x="114" y="164" on="0"/>
        <pt x="125" y="164" on="1"/>
        <pt x="760" y="164" on="1"/>
        <pt x="771" y="164" on="0"/>
        <pt x="796" y="158" on="0"/>
        <pt x="796" y="141" on="1"/>
        <pt x="796" y="124" on="0"/>
        <pt x="771" y="118" on="0"/>
        <pt x="760" y="118" on="1"/>
      </contour>
    </TTGlyph>
    <TTGlyph name="exclam" xMin="123" yMin="0" xMax="361" yMax="694">
      <contour>
        <pt x="242" y="180" on="1"/>
        <pt x="170" y="180" on="1"/>
        <pt x="270" y="694" on="1"/>
        <pt x="361" y="694" on="1"/>
      </contour>
      <contour>
        <pt x="142" y="90" on="1"/>
        <pt x="232" y="90" on="1"/>
        <pt x="213" y="0" on="1"/>
        <pt x="123" y="0" on="1"/>
      </contour>
    </TTGlyph>
    <TTGlyph name="exclamdown" xMin="82" yMin="-194" xMax="319" yMax="500">
      <contour>
        <pt x="300" y="410" on="1"/>
        <pt x="210" y="410" on="1"/>
        <pt x="229" y="500" on="1"/>
        <pt x="319" y="500" on="1"/>
      </contour>
      <contour>
        <pt x="200" y="320" on="1"/>
        <pt x="272" y="320" on="1"/>
        <pt x="172" y="-194" on="1"/>
        <pt x="82" y="-194" on="1"/>
      </contour>
    </TTGlyph>
    <TTGlyph name="f" xMin="106" yMin="0" xMax="515" yMax="704">
      <contour>
        <pt x="190" y="0" on="1"/>
        <pt x="106" y="0" on="1"/>
        <pt x="187" y="381" on="1"/>
        <pt x="110" y="381" on="1"/>
        <pt x="123" y="444" on="1"/>
        <pt x="200" y="444" on="1"/>
        <pt x="220" y="535" on="1"/>
        <pt x="228" y="569" on="0"/>
        <pt x="266" y="630" on="0"/>
        <pt x="322" y="677" on="0"/>
        <pt x="393" y="704" on="0"/>
        <pt x="433" y="704" on="1"/>
        <pt x="458" y="704" on="0"/>
        <pt x="498" y="699" on="0"/>
        <pt x="515" y="694" on="1"/>
        <pt x="500" y="621" on="1"/>
        <pt x="480" y="630" on="0"/>
        <pt x="438" y="638" on="0"/>
        <pt x="418" y="638" on="1"/>
        <pt x="410" y="638" on="0"/>
        <pt x="366" y="633" on="0"/>
        <pt x="342" y="616" on="1"/>
        <pt x="322" y="602" on="0"/>
        <pt x="310" y="576" on="0"/>
        <pt x="307" y="562" on="1"/>
        <pt x="281" y="444" on="1"/>
        <pt x="398" y="444" on="1"/>
        <pt x="385" y="381" on="1"/>
        <pt x="271" y="381" on="1"/>
      </contour>
    </TTGlyph>
    <TTGlyph name="f_f" xMin="106" yMin="0" xMax="810" yMax="704">
      <contour>
        <pt x="190" y="0" on="1"/>
        <pt x="106" y="0" on="1"/>
        <pt x="187" y="381" on="1"/>
        <pt x="110" y="381" on="1"/>
        <pt x="123" y="444" on="1"/>
        <pt x="200" y="444" on="1"/>
        <pt x="220" y="535" on="1"/>
        <pt x="228" y="569" on="0"/>
        <pt x="266" y="630" on="0"/>
        <pt x="323" y="677" on="0"/>
        <pt x="394" y="704" on="0"/>
        <pt x="434" y="704" on="1"/>
        <pt x="463" y="704" on="0"/>
        <pt x="505" y="696" on="0"/>
        <pt x="516" y="694" on="1"/>
        <pt x="501" y="621" on="1"/>
        <pt x="473" y="634" on="0"/>
        <pt x="425" y="638" on="0"/>
        <pt x="419" y="638" on="1"/>
        <pt x="411" y="638" on="0"/>
        <pt x="369" y="633" on="0"/>
        <pt x="346" y="619" on="1"/>
        <pt x="323" y="603" on="0"/>
        <pt x="310" y="577" on="0"/>
        <pt x="307" y="562" on="1"/>
        <pt x="281" y="444" on="1"/>
        <pt x="399" y="444" on="1"/>
        <pt x="386" y="381" on="1"/>
        <pt x="271" y="381" on="1"/>
      </contour>
      <contour>
        <pt x="484" y="0" on="1"/>
        <pt x="400" y="0" on="1"/>
        <pt x="513" y="531" on="1"/>
        <pt x="521" y="569" on="0"/>
        <pt x="562" y="633" on="0"/>
        <pt x="620" y="679" on="0"/>
        <pt x="690" y="704" on="0"/>
        <pt x="728" y="704" on="1"/>
        <pt x="757" y="704" on="0"/>
        <pt x="799" y="696" on="0"/>
        <pt x="810" y="694" on="1"/>
        <pt x="795" y="621" on="1"/>
        <pt x="767" y="634" on="0"/>
        <pt x="719" y="638" on="0"/>
        <pt x="713" y="638" on="1"/>
        <pt x="705" y="638" on="0"/>
        <pt x="663" y="633" on="0"/>
        <pt x="640" y="619" on="1"/>
        <pt x="617" y="603" on="0"/>
        <pt x="604" y="577" on="0"/>
        <pt x="601" y="562" on="1"/>
        <pt x="575" y="444" on="1"/>
        <pt x="693" y="444" on="1"/>
        <pt x="680" y="381" on="1"/>
        <pt x="565" y="381" on="1"/>
      </contour>
    </TTGlyph>
    <TTGlyph name="f_f_i" xMin="106" yMin="0" xMax="929" yMax="704">
      <contour>
        <pt x="910" y="605" on="1"/>
        <pt x="820" y="605" on="1"/>
        <pt x="839" y="695" on="1"/>
        <pt x="929" y="695" on="1"/>
      </contour>
      <contour>
        <pt x="789" y="444" on="1"/>
        <pt x="873" y="444" on="1"/>
        <pt x="779" y="0" on="1"/>
        <pt x="695" y="0" on="1"/>
      </contour>
      <contour>
        <pt x="515" y="539" on="1"/>
        <pt x="520" y="564" on="0"/>
        <pt x="550" y="622" on="0"/>
        <pt x="597" y="671" on="0"/>
        <pt x="658" y="704" on="0"/>
        <pt x="694" y="704" on="1"/>
        <pt x="710" y="704" on="0"/>
        <pt x="740" y="700" on="0"/>
        <pt x="755" y="695" on="1"/>
        <pt x="739" y="620" on="1"/>
        <pt x="722" y="633" on="0"/>
        <pt x="688" y="638" on="0"/>
        <pt x="680" y="638" on="1"/>
        <pt x="662" y="638" on="0"/>
        <pt x="635" y="624" on="0"/>
        <pt x="616" y="603" on="0"/>
        <pt x="604" y="578" on="0"/>
        <pt x="602" y="567" on="1"/>
        <pt x="576" y="444" on="1"/>
        <pt x="702" y="444" on="1"/>
        <pt x="689" y="381" on="1"/>
        <pt x="566" y="381" on="1"/>
        <pt x="485" y="0" on="1"/>
        <pt x="401" y="0" on="1"/>
      </contour>
      <contour>
        <pt x="190" y="0" on="1"/>
        <pt x="106" y="0" on="1"/>
        <pt x="187" y="381" on="1"/>
        <pt x="110" y="381" on="1"/>
        <pt x="123" y="444" on="1"/>
        <pt x="200" y="444" on="1"/>
        <pt x="220" y="535" on="1"/>
        <pt x="228" y="571" on="0"/>
        <pt x="265" y="632" on="0"/>
        <pt x="317" y="678" on="0"/>
        <pt x="381" y="704" on="0"/>
        <pt x="415" y="704" on="1"/>
        <pt x="433" y="704" on="0"/>
        <pt x="471" y="699" on="0"/>
        <pt x="486" y="694" on="1"/>
        <pt x="471" y="621" on="1"/>
        <pt x="456" y="629" on="0"/>
        <pt x="419" y="638" on="0"/>
        <pt x="401" y="638" on="1"/>
        <pt x="397" y="638" on="0"/>
        <pt x="371" y="636" on="0"/>
        <pt x="341" y="621" on="0"/>
        <pt x="313" y="591" on="0"/>
        <pt x="307" y="562" on="1"/>
        <pt x="281" y="444" on="1"/>
        <pt x="407" y="444" on="1"/>
        <pt x="394" y="381" on="1"/>
        <pt x="271" y="381" on="1"/>
      </contour>
    </TTGlyph>
    <TTGlyph name="f_f_l" xMin="106" yMin="0" xMax="927" yMax="704">
      <contour>
        <pt x="190" y="0" on="1"/>
        <pt x="106" y="0" on="1"/>
        <pt x="187" y="381" on="1"/>
        <pt x="110" y="381" on="1"/>
        <pt x="123" y="444" on="1"/>
        <pt x="200" y="444" on="1"/>
        <pt x="220" y="535" on="1"/>
        <pt x="228" y="571" on="0"/>
        <pt x="265" y="632" on="0"/>
        <pt x="317" y="678" on="0"/>
        <pt x="381" y="704" on="0"/>
        <pt x="415" y="704" on="1"/>
        <pt x="433" y="704" on="0"/>
        <pt x="471" y="699" on="0"/>
        <pt x="486" y="694" on="1"/>
        <pt x="471" y="621" on="1"/>
        <pt x="456" y="629" on="0"/>
        <pt x="419" y="638" on="0"/>
        <pt x="401" y="638" on="1"/>
        <pt x="397" y="638" on="0"/>
        <pt x="371" y="636" on="0"/>
        <pt x="341" y="621" on="0"/>
        <pt x="313" y="591" on="0"/>
        <pt x="307" y="562" on="1"/>
        <pt x="281" y="444" on="1"/>
        <pt x="407" y="444" on="1"/>
        <pt x="394" y="381" on="1"/>
        <pt x="271" y="381" on="1"/>
      </contour>
      <contour>
        <pt x="779" y="0" on="1"/>
        <pt x="695" y="0" on="1"/>
        <pt x="843" y="694" on="1"/>
        <pt x="927" y="694" on="1"/>
      </contour>
      <contour>
        <pt x="485" y="0" on="1"/>
        <pt x="401" y="0" on="1"/>
        <pt x="515" y="539" on="1"/>
        <pt x="520" y="564" on="0"/>
        <pt x="550" y="622" on="0"/>
        <pt x="597" y="671" on="0"/>
        <pt x="658" y="704" on="0"/>
        <pt x="694" y="704" on="1"/>
        <pt x="715" y="704" on="0"/>
        <pt x="748" y="696" on="0"/>
        <pt x="755" y="694" on="1"/>
        <pt x="740" y="621" on="1"/>
        <pt x="731" y="627" on="0"/>
        <pt x="700" y="638" on="0"/>
        <pt x="680" y="638" on="1"/>
        <pt x="662" y="638" on="0"/>
        <pt x="635" y="624" on="0"/>
        <pt x="616" y="603" on="0"/>
        <pt x="604" y="578" on="0"/>
        <pt x="602" y="567" on="1"/>
        <pt x="576" y="444" on="1"/>
        <pt x="702" y="444" on="1"/>
        <pt x="689" y="381" on="1"/>
        <pt x="566" y="381" on="1"/>
      </contour>
    </TTGlyph>
    <TTGlyph name="fi" xMin="106" yMin="0" xMax="633" yMax="704">
      <contour>
        <pt x="614" y="605" on="1"/>
        <pt x="524" y="605" on="1"/>
        <pt x="543" y="695" on="1"/>
        <pt x="633" y="695" on="1"/>
      </contour>
      <contour>
        <pt x="493" y="444" on="1"/>
        <pt x="577" y="444" on="1"/>
        <pt x="483" y="0" on="1"/>
        <pt x="399" y="0" on="1"/>
      </contour>
      <contour>
        <pt x="281" y="444" on="1"/>
        <pt x="407" y="444" on="1"/>
        <pt x="394" y="381" on="1"/>
        <pt x="271" y="381" on="1"/>
        <pt x="190" y="0" on="1"/>
        <pt x="106" y="0" on="1"/>
        <pt x="187" y="381" on="1"/>
        <pt x="110" y="381" on="1"/>
        <pt x="123" y="444" on="1"/>
        <pt x="200" y="444" on="1"/>
        <pt x="208" y="481" on="0"/>
        <pt x="216" y="516" on="0"/>
        <pt x="219" y="531" on="0"/>
        <pt x="220" y="535" on="0"/>
        <pt x="221" y="541" on="1"/>
        <pt x="230" y="577" on="0"/>
        <pt x="266" y="636" on="0"/>
        <pt x="313" y="680" on="0"/>
        <pt x="369" y="704" on="0"/>
        <pt x="399" y="704" on="1"/>
        <pt x="420" y="704" on="0"/>
        <pt x="453" y="696" on="0"/>
        <pt x="460" y="694" on="1"/>
        <pt x="444" y="620" on="1"/>
        <pt x="438" y="625" on="0"/>
        <pt x="407" y="638" on="0"/>
        <pt x="385" y="638" on="1"/>
        <pt x="367" y="638" on="0"/>
        <pt x="340" y="624" on="0"/>
        <pt x="321" y="603" on="0"/>
        <pt x="309" y="578" on="0"/>
        <pt x="307" y="567" on="1"/>
      </contour>
    </TTGlyph>
    <TTGlyph name="five" xMin="56" yMin="-21" xMax="580" yMax="656">
      <contour>
        <pt x="246" y="386" on="1"/>
        <pt x="273" y="405" on="0"/>
        <pt x="332" y="426" on="0"/>
        <pt x="365" y="426" on="1"/>
        <pt x="403" y="426" on="0"/>
        <pt x="462" y="398" on="0"/>
        <pt x="504" y="351" on="0"/>
        <pt x="526" y="289" on="0"/>
        <pt x="526" y="254" on="1"/>
        <pt x="526" y="199" on="0"/>
        <pt x="477" y="99" on="0"/>
        <pt x="396" y="23" on="0"/>
        <pt x="293" y="-21" on="0"/>
        <pt x="238" y="-21" on="1"/>
        <pt x="217" y="-21" on="0"/>
        <pt x="169" y="-13" on="0"/>
        <pt x="120" y="9" on="0"/>
        <pt x="74" y="47" on="0"/>
        <pt x="56" y="77" on="1"/>
        <pt x="107" y="137" on="1"/>
        <pt x="119" y="107" on="0"/>
        <pt x="157" y="71" on="0"/>
        <pt x="198" y="52" on="0"/>
        <pt x="237" y="45" on="0"/>
        <pt x="251" y="45" on="1"/>
        <pt x="296" y="45" on="0"/>
        <pt x="362" y="86" on="0"/>
        <pt x="405" y="150" on="0"/>
        <pt x="427" y="228" on="0"/>
        <pt x="427" y="264" on="1"/>
        <pt x="427" y="282" on="0"/>
        <pt x="419" y="317" on="0"/>
        <pt x="400" y="344" on="0"/>
        <pt x="371" y="360" on="0"/>
        <pt x="350" y="360" on="1"/>
        <pt x="309" y="360" on="0"/>
        <pt x="240" y="317" on="0"/>
        <pt x="217" y="282" on="1"/>
        <pt x="144" y="282" on="1"/>
        <pt x="223" y="656" on="1"/>
        <pt x="580" y="656" on="1"/>
        <pt x="566" y="587" on="1"/>
        <pt x="289" y="587" on="1"/>
      </contour>
    </TTGlyph>
    <TTGlyph name="fl" xMin="106" yMin="0" xMax="631" yMax="704">
      <contour>
        <pt x="190" y="0" on="1"/>
        <pt x="106" y="0" on="1"/>
        <pt x="187" y="381" on="1"/>
        <pt x="110" y="381" on="1"/>
        <pt x="123" y="444" on="1"/>
        <pt x="200" y="444" on="1"/>
        <pt x="208" y="481" on="0"/>
        <pt x="216" y="516" on="0"/>
        <pt x="219" y="531" on="0"/>
        <pt x="220" y="535" on="0"/>
        <pt x="221" y="541" on="1"/>
        <pt x="230" y="577" on="0"/>
        <pt x="266" y="636" on="0"/>
        <pt x="313" y="680" on="0"/>
        <pt x="369" y="704" on="0"/>
        <pt x="399" y="704" on="1"/>
        <pt x="420" y="704" on="0"/>
        <pt x="453" y="696" on="0"/>
        <pt x="460" y="694" on="1"/>
        <pt x="445" y="621" on="1"/>
        <pt x="436" y="627" on="0"/>
        <pt x="405" y="638" on="0"/>
        <pt x="385" y="638" on="1"/>
        <pt x="367" y="638" on="0"/>
        <pt x="340" y="624" on="0"/>
        <pt x="321" y="603" on="0"/>
        <pt x="309" y="578" on="0"/>
        <pt x="307" y="567" on="1"/>
        <pt x="281" y="444" on="1"/>
        <pt x="407" y="444" on="1"/>
        <pt x="394" y="381" on="1"/>
        <pt x="271" y="381" on="1"/>
      </contour>
      <contour>
        <pt x="483" y="0" on="1"/>
        <pt x="399" y="0" on="1"/>
        <pt x="547" y="694" on="1"/>
        <pt x="631" y="694" on="1"/>
      </contour>
    </TTGlyph>
    <TTGlyph name="four" xMin="66" yMin="0" xMax="549" yMax="656">
      <contour>
        <pt x="396" y="0" on="1"/>
        <pt x="310" y="0" on="1"/>
        <pt x="345" y="167" on="1"/>
        <pt x="66" y="167" on="1"/>
        <pt x="74" y="206" on="1"/>
        <pt x="78" y="225" on="0"/>
        <pt x="81" y="235" on="0"/>
        <pt x="87" y="241" on="1"/>
        <pt x="436" y="656" on="1"/>
        <pt x="535" y="656" on="1"/>
        <pt x="446" y="233" on="1"/>
        <pt x="549" y="233" on="1"/>
        <pt x="536" y="167" on="1"/>
        <pt x="431" y="167" on="1"/>
      </contour>
      <contour>
        <pt x="367" y="233" on="1"/>
        <pt x="447" y="614" on="1"/>
        <pt x="446" y="614" on="1"/>
        <pt x="440" y="594" on="0"/>
        <pt x="410" y="541" on="0"/>
        <pt x="371" y="486" on="0"/>
        <pt x="331" y="434" on="0"/>
        <pt x="316" y="415" on="1"/>
        <pt x="165" y="233" on="1"/>
      </contour>
    </TTGlyph>
    <TTGlyph name="g" xMin="13" yMin="-205" xMax="600" yMax="454">
      <contour>
        <pt x="597" y="386" on="1"/>
        <pt x="572" y="389" on="0"/>
        <pt x="545" y="390" on="0"/>
        <pt x="522" y="390" on="1"/>
        <pt x="520" y="390" on="0"/>
        <pt x="499" y="390" on="0"/>
        <pt x="476" y="389" on="0"/>
        <pt x="457" y="387" on="0"/>
        <pt x="457" y="385" on="1"/>
        <pt x="457" y="384" on="0"/>
        <pt x="458" y="381" on="0"/>
        <pt x="461" y="375" on="1"/>
        <pt x="469" y="356" on="0"/>
        <pt x="471" y="330" on="0"/>
        <pt x="471" y="322" on="1"/>
        <pt x="471" y="285" on="0"/>
        <pt x="436" y="214" on="0"/>
        <pt x="378" y="160" on="0"/>
        <pt x="303" y="127" on="0"/>
        <pt x="263" y="127" on="1"/>
        <pt x="235" y="127" on="0"/>
        <pt x="189" y="142" on="0"/>
        <pt x="172" y="156" on="1"/>
        <pt x="161" y="144" on="0"/>
        <pt x="154" y="119" on="0"/>
        <pt x="154" y="112" on="1"/>
        <pt x="154" y="97" on="0"/>
        <pt x="165" y="81" on="0"/>
        <pt x="180" y="73" on="0"/>
        <pt x="197" y="72" on="0"/>
        <pt x="203" y="72" on="1"/>
        <pt x="299" y="72" on="1"/>
        <pt x="396" y="72" on="0"/>
        <pt x="488" y="15" on="0"/>
        <pt x="488" y="-42" on="1"/>
        <pt x="488" y="-84" on="0"/>
        <pt x="437" y="-145" on="0"/>
        <pt x="358" y="-186" on="0"/>
        <pt x="264" y="-205" on="0"/>
        <pt x="222" y="-205" on="1"/>
        <pt x="172" y="-205" on="0"/>
        <pt x="94" y="-184" on="0"/>
        <pt x="41" y="-151" on="0"/>
        <pt x="13" y="-109" on="0"/>
        <pt x="13" y="-87" on="1"/>
        <pt x="13" y="-77" on="0"/>
        <pt x="21" y="-48" on="0"/>
        <pt x="41" y="-15" on="0"/>
        <pt x="76" y="19" on="0"/>
        <pt x="103" y="33" on="1"/>
        <pt x="91" y="56" on="0"/>
        <pt x="91" y="83" on="1"/>
        <pt x="91" y="105" on="0"/>
        <pt x="105" y="143" on="0"/>
        <pt x="123" y="172" on="0"/>
        <pt x="139" y="190" on="0"/>
        <pt x="141" y="192" on="1"/>
        <pt x="127" y="215" on="0"/>
        <pt x="123" y="253" on="0"/>
        <pt x="123" y="258" on="1"/>
        <pt x="123" y="296" on="0"/>
        <pt x="158" y="366" on="0"/>
        <pt x="216" y="421" on="0"/>
        <pt x="291" y="454" on="0"/>
        <pt x="331" y="454" on="1"/>
        <pt x="374" y="454" on="0"/>
        <pt x="423" y="426" on="0"/>
        <pt x="430" y="419" on="1"/>
        <pt x="431" y="419" on="1"/>
        <pt x="428" y="425" on="1"/>
        <pt x="482" y="443" on="0"/>
        <pt x="570" y="454" on="0"/>
        <pt x="600" y="454" on="1"/>
      </contour>
      <contour>
        <pt x="276" y="189" on="1"/>
        <pt x="305" y="189" on="0"/>
        <pt x="349" y="213" on="0"/>
        <pt x="379" y="250" on="0"/>
        <pt x="394" y="297" on="0"/>
        <pt x="394" y="320" on="1"/>
        <pt x="394" y="343" on="0"/>
        <pt x="378" y="372" on="0"/>
        <pt x="355" y="387" on="0"/>
        <pt x="329" y="392" on="0"/>
        <pt x="319" y="392" on="1"/>
        <pt x="287" y="392" on="0"/>
        <pt x="242" y="365" on="0"/>
        <pt x="213" y="326" on="0"/>
        <pt x="200" y="280" on="0"/>
        <pt x="200" y="261" on="1"/>
        <pt x="200" y="226" on="0"/>
        <pt x="241" y="189" on="0"/>
      </contour>
      <contour>
        <pt x="184" y="-6" on="1"/>
        <pt x="155" y="-6" on="0"/>
        <pt x="118" y="-25" on="0"/>
        <pt x="97" y="-49" on="0"/>
        <pt x="90" y="-73" on="0"/>
        <pt x="90" y="-78" on="1"/>
        <pt x="90" y="-105" on="0"/>
        <pt x="171" y="-143" on="0"/>
        <pt x="235" y="-143" on="1"/>
        <pt x="267" y="-143" on="0"/>
        <pt x="330" y="-131" on="0"/>
        <pt x="379" y="-110" on="0"/>
        <pt x="410" y="-80" on="0"/>
        <pt x="410" y="-62" on="1"/>
        <pt x="410" y="-41" on="0"/>
        <pt x="377" y="-18" on="0"/>
        <pt x="334" y="-8" on="0"/>
        <pt x="293" y="-6" on="0"/>
        <pt x="284" y="-6" on="1"/>
      </contour>
    </TTGlyph>
    <TTGlyph name="germandbls" xMin="85" yMin="-10" xMax="571" yMax="704">
      <contour>
        <pt x="440" y="408" on="1"/>
        <pt x="465" y="390" on="0"/>
        <pt x="497" y="347" on="0"/>
        <pt x="516" y="301" on="0"/>
        <pt x="523" y="256" on="0"/>
        <pt x="523" y="236" on="1"/>
        <pt x="523" y="179" on="0"/>
        <pt x="480" y="87" on="0"/>
        <pt x="413" y="24" on="0"/>
        <pt x="331" y="-10" on="0"/>
        <pt x="291" y="-10" on="1"/>
        <pt x="276" y="-10" on="0"/>
        <pt x="227" y="-4" on="0"/>
        <pt x="202" y="7" on="1"/>
        <pt x="238" y="70" on="1"/>
        <pt x="261" y="60" on="0"/>
        <pt x="297" y="56" on="0"/>
        <pt x="304" y="56" on="1"/>
        <pt x="332" y="56" on="0"/>
        <pt x="380" y="82" on="0"/>
        <pt x="416" y="129" on="0"/>
        <pt x="437" y="193" on="0"/>
        <pt x="437" y="232" on="1"/>
        <pt x="437" y="260" on="0"/>
        <pt x="422" y="312" on="0"/>
        <pt x="391" y="352" on="0"/>
        <pt x="342" y="377" on="0"/>
        <pt x="308" y="378" on="1"/>
        <pt x="322" y="444" on="1"/>
        <pt x="363" y="444" on="0"/>
        <pt x="423" y="470" on="0"/>
        <pt x="464" y="509" on="0"/>
        <pt x="484" y="554" on="0"/>
        <pt x="484" y="573" on="1"/>
        <pt x="484" y="609" on="0"/>
        <pt x="434" y="638" on="0"/>
        <pt x="402" y="638" on="1"/>
        <pt x="392" y="638" on="0"/>
        <pt x="357" y="632" on="0"/>
        <pt x="322" y="614" on="0"/>
        <pt x="292" y="580" on="0"/>
        <pt x="286" y="551" on="1"/>
        <pt x="169" y="0" on="1"/>
        <pt x="85" y="0" on="1"/>
        <pt x="202" y="553" on="1"/>
        <pt x="209" y="586" on="0"/>
        <pt x="250" y="641" on="0"/>
        <pt x="308" y="681" on="0"/>
        <pt x="379" y="704" on="0"/>
        <pt x="416" y="704" on="1"/>
        <pt x="451" y="704" on="0"/>
        <pt x="509" y="685" on="0"/>
        <pt x="549" y="652" on="0"/>
        <pt x="571" y="607" on="0"/>
        <pt x="571" y="581" on="1"/>
        <pt x="571" y="563" on="0"/>
        <pt x="557" y="518" on="0"/>
        <pt x="525" y="471" on="0"/>
        <pt x="475" y="426" on="0"/>
      </contour>
    </TTGlyph>
    <TTGlyph name="grave" xMin="236" yMin="527" xMax="425" yMax="694">
      <contour>
        <pt x="236" y="694" on="1"/>
        <pt x="323" y="694" on="1"/>
        <pt x="425" y="527" on="1"/>
        <pt x="359" y="527" on="1"/>
      </contour>
    </TTGlyph>
    <TTGlyph name="h" xMin="83" yMin="0" xMax="535" yMax="694">
      <contour>
        <pt x="465" y="0" on="1"/>
        <pt x="378" y="0" on="1"/>
        <pt x="442" y="299" on="1"/>
        <pt x="443" y="304" on="0"/>
        <pt x="444" y="312" on="0"/>
        <pt x="444" y="323" on="1"/>
        <pt x="444" y="359" on="0"/>
        <pt x="396" y="388" on="0"/>
        <pt x="358" y="388" on="1"/>
        <pt x="304" y="388" on="0"/>
        <pt x="267" y="341" on="1"/>
        <pt x="255" y="326" on="0"/>
        <pt x="239" y="298" on="0"/>
        <pt x="228" y="267" on="0"/>
        <pt x="219" y="231" on="0"/>
        <pt x="214" y="208" on="1"/>
        <pt x="170" y="0" on="1"/>
        <pt x="83" y="0" on="1"/>
        <pt x="231" y="694" on="1"/>
        <pt x="315" y="694" on="1"/>
        <pt x="249" y="384" on="1"/>
        <pt x="280" y="412" on="0"/>
        <pt x="362" y="454" on="0"/>
        <pt x="415" y="454" on="1"/>
        <pt x="436" y="454" on="0"/>
        <pt x="478" y="446" on="0"/>
        <pt x="513" y="424" on="0"/>
        <pt x="535" y="384" on="0"/>
        <pt x="535" y="352" on="1"/>
        <pt x="535" y="333" on="0"/>
        <pt x="532" y="312" on="0"/>
        <pt x="529" y="299" on="1"/>
      </contour>
    </TTGlyph>
    <TTGlyph name="hungarumlaut" xMin="226" yMin="527" xMax="589" yMax="694">
      <contour>
        <pt x="292" y="527" on="1"/>
        <pt x="226" y="527" on="1"/>
        <pt x="325" y="694" on="1"/>
        <pt x="412" y="694" on="1"/>
      </contour>
      <contour>
        <pt x="469" y="527" on="1"/>
        <pt x="403" y="527" on="1"/>
        <pt x="502" y="694" on="1"/>
        <pt x="589" y="694" on="1"/>
      </contour>
    </TTGlyph>
    <TTGlyph name="hyphen" xMin="53" yMin="191" xMax="348" yMax="254">
      <contour>
        <pt x="335" y="191" on="1"/>
        <pt x="53" y="191" on="1"/>
        <pt x="66" y="254" on="1"/>
        <pt x="348" y="254" on="1"/>
      </contour>
    </TTGlyph>
    <TTGlyph name="i" xMin="84" yMin="0" xMax="322" yMax="686">
      <contour>
        <pt x="300" y="585" on="1"/>
        <pt x="199" y="585" on="1"/>
        <pt x="221" y="686" on="1"/>
        <pt x="322" y="686" on="1"/>
      </contour>
      <contour>
        <pt x="178" y="444" on="1"/>
        <pt x="262" y="444" on="1"/>
        <pt x="168" y="0" on="1"/>
        <pt x="84" y="0" on="1"/>
      </contour>
    </TTGlyph>
    <TTGlyph name="j" xMin="-100" yMin="-204" xMax="344" yMax="686">
      <contour>
        <pt x="322" y="585" on="1"/>
        <pt x="221" y="585" on="1"/>
        <pt x="243" y="686" on="1"/>
        <pt x="344" y="686" on="1"/>
      </contour>
      <contour>
        <pt x="208" y="444" on="1"/>
        <pt x="292" y="444" on="1"/>
        <pt x="184" y="-64" on="1"/>
        <pt x="178" y="-93" on="0"/>
        <pt x="146" y="-144" on="0"/>
        <pt x="103" y="-182" on="0"/>
        <pt x="49" y="-204" on="0"/>
        <pt x="20" y="-204" on="1"/>
        <pt x="-4" y="-204" on="0"/>
        <pt x="-48" y="-194" on="0"/>
        <pt x="-81" y="-182" on="0"/>
        <pt x="-100" y="-170" on="0"/>
        <pt x="-100" y="-168" on="1"/>
        <pt x="-100" y="-167" on="0"/>
        <pt x="-95" y="-157" on="1"/>
        <pt x="-69" y="-104" on="1"/>
        <pt x="-60" y="-115" on="0"/>
        <pt x="-24" y="-134" on="0"/>
        <pt x="5" y="-134" on="1"/>
        <pt x="9" y="-134" on="0"/>
        <pt x="35" y="-132" on="0"/>
        <pt x="66" y="-120" on="0"/>
        <pt x="94" y="-93" on="0"/>
        <pt x="99" y="-69" on="1"/>
      </contour>
    </TTGlyph>
    <TTGlyph name="k" xMin="88" yMin="0" xMax="571" yMax="694">
      <contour>
        <pt x="500" y="0" on="1"/>
        <pt x="412" y="0" on="1"/>
        <pt x="294" y="222" on="1"/>
        <pt x="192" y="140" on="1"/>
        <pt x="162" y="0" on="1"/>
        <pt x="88" y="0" on="1"/>
        <pt x="236" y="694" on="1"/>
        <pt x="314" y="694" on="1"/>
        <pt x="216" y="237" on="1"/>
        <pt x="475" y="444" on="1"/>
        <pt x="571" y="444" on="1"/>
        <pt x="356" y="272" on="1"/>
      </contour>
    </TTGlyph>
    <TTGlyph name="l" xMin="84" yMin="0" xMax="316" yMax="694">
      <contour>
        <pt x="168" y="0" on="1"/>
        <pt x="84" y="0" on="1"/>
        <pt x="232" y="694" on="1"/>
        <pt x="316" y="694" on="1"/>
      </contour>
    </TTGlyph>
    <TTGlyph name="m" xMin="83" yMin="0" xMax="830" yMax="454">
      <contour>
        <pt x="760" y="0" on="1"/>
        <pt x="673" y="0" on="1"/>
        <pt x="737" y="299" on="1"/>
        <pt x="738" y="304" on="0"/>
        <pt x="739" y="312" on="0"/>
        <pt x="739" y="323" on="1"/>
        <pt x="739" y="359" on="0"/>
        <pt x="691" y="388" on="0"/>
        <pt x="653" y="388" on="1"/>
        <pt x="599" y="388" on="0"/>
        <pt x="562" y="341" on="1"/>
        <pt x="550" y="326" on="0"/>
        <pt x="534" y="298" on="0"/>
        <pt x="523" y="267" on="0"/>
        <pt x="514" y="231" on="0"/>
        <pt x="509" y="208" on="1"/>
        <pt x="465" y="0" on="1"/>
        <pt x="378" y="0" on="1"/>
        <pt x="442" y="299" on="1"/>
        <pt x="443" y="304" on="0"/>
        <pt x="444" y="312" on="0"/>
        <pt x="444" y="323" on="1"/>
        <pt x="444" y="359" on="0"/>
        <pt x="396" y="388" on="0"/>
        <pt x="358" y="388" on="1"/>
        <pt x="304" y="388" on="0"/>
        <pt x="267" y="341" on="1"/>
        <pt x="255" y="326" on="0"/>
        <pt x="239" y="298" on="0"/>
        <pt x="228" y="267" on="0"/>
        <pt x="219" y="231" on="0"/>
        <pt x="214" y="208" on="1"/>
        <pt x="170" y="0" on="1"/>
        <pt x="83" y="0" on="1"/>
        <pt x="179" y="451" on="1"/>
        <pt x="259" y="451" on="1"/>
        <pt x="244" y="379" on="1"/>
        <pt x="285" y="418" on="0"/>
        <pt x="372" y="454" on="0"/>
        <pt x="415" y="454" on="1"/>
        <pt x="470" y="454" on="0"/>
        <pt x="527" y="414" on="0"/>
        <pt x="533" y="373" on="1"/>
        <pt x="547" y="388" on="0"/>
        <pt x="584" y="417" on="0"/>
        <pt x="629" y="440" on="0"/>
        <pt x="681" y="454" on="0"/>
        <pt x="710" y="454" on="1"/>
        <pt x="731" y="454" on="0"/>
        <pt x="773" y="446" on="0"/>
        <pt x="808" y="424" on="0"/>
        <pt x="830" y="384" on="0"/>
        <pt x="830" y="352" on="1"/>
        <pt x="830" y="333" on="0"/>
        <pt x="827" y="312" on="0"/>
        <pt x="824" y="299" on="1"/>
      </contour>
    </TTGlyph>
    <TTGlyph name="macron" xMin="194" yMin="566" xMax="591" yMax="636">
      <contour>
        <pt x="576" y="566" on="1"/>
        <pt x="194" y="566" on="1"/>
        <pt x="209" y="636" on="1"/>
        <pt x="591" y="636" on="1"/>
      </contour>
    </TTGlyph>
    <TTGlyph name="n" xMin="83" yMin="0" xMax="535" yMax="454">
      <contour>
        <pt x="465" y="0" on="1"/>
        <pt x="378" y="0" on="1"/>
        <pt x="442" y="299" on="1"/>
        <pt x="443" y="304" on="0"/>
        <pt x="444" y="312" on="0"/>
        <pt x="444" y="323" on="1"/>
        <pt x="444" y="359" on="0"/>
        <pt x="396" y="388" on="0"/>
        <pt x="358" y="388" on="1"/>
        <pt x="304" y="388" on="0"/>
        <pt x="267" y="341" on="1"/>
        <pt x="255" y="326" on="0"/>
        <pt x="239" y="298" on="0"/>
        <pt x="228" y="267" on="0"/>
        <pt x="219" y="231" on="0"/>
        <pt x="214" y="208" on="1"/>
        <pt x="170" y="0" on="1"/>
        <pt x="83" y="0" on="1"/>
        <pt x="179" y="451" on="1"/>
        <pt x="259" y="451" on="1"/>
        <pt x="244" y="379" on="1"/>
        <pt x="285" y="418" on="0"/>
        <pt x="372" y="454" on="0"/>
        <pt x="415" y="454" on="1"/>
        <pt x="436" y="454" on="0"/>
        <pt x="478" y="446" on="0"/>
        <pt x="513" y="424" on="0"/>
        <pt x="535" y="384" on="0"/>
        <pt x="535" y="352" on="1"/>
        <pt x="535" y="333" on="0"/>
        <pt x="532" y="312" on="0"/>
        <pt x="529" y="299" on="1"/>
      </contour>
    </TTGlyph>
    <TTGlyph name="nine" xMin="82" yMin="-21" xMax="574" yMax="677">
      <contour>
        <pt x="128" y="83" on="1"/>
        <pt x="154" y="58" on="0"/>
        <pt x="206" y="45" on="0"/>
        <pt x="228" y="45" on="1"/>
        <pt x="264" y="45" on="0"/>
        <pt x="332" y="79" on="0"/>
        <pt x="390" y="140" on="0"/>
        <pt x="436" y="224" on="0"/>
        <pt x="450" y="274" on="1"/>
        <pt x="412" y="239" on="0"/>
        <pt x="311" y="193" on="0"/>
        <pt x="253" y="193" on="1"/>
        <pt x="210" y="193" on="0"/>
        <pt x="159" y="239" on="0"/>
        <pt x="134" y="297" on="0"/>
        <pt x="127" y="351" on="0"/>
        <pt x="127" y="359" on="1"/>
        <pt x="127" y="430" on="0"/>
        <pt x="179" y="547" on="0"/>
        <pt x="261" y="631" on="0"/>
        <pt x="362" y="677" on="0"/>
        <pt x="412" y="677" on="1"/>
        <pt x="460" y="677" on="0"/>
        <pt x="523" y="639" on="0"/>
        <pt x="560" y="580" on="0"/>
        <pt x="574" y="507" on="0"/>
        <pt x="574" y="472" on="1"/>
        <pt x="574" y="459" on="0"/>
        <pt x="569" y="385" on="0"/>
        <pt x="547" y="286" on="0"/>
        <pt x="501" y="173" on="0"/>
        <pt x="460" y="120" on="1"/>
        <pt x="438" y="92" on="0"/>
        <pt x="383" y="41" on="0"/>
        <pt x="321" y="2" on="0"/>
        <pt x="251" y="-21" on="0"/>
        <pt x="214" y="-21" on="1"/>
        <pt x="172" y="-21" on="0"/>
        <pt x="110" y="2" on="0"/>
        <pt x="82" y="26" on="1"/>
      </contour>
      <contour>
        <pt x="484" y="437" on="1"/>
        <pt x="486" y="454" on="0"/>
        <pt x="487" y="487" on="0"/>
        <pt x="487" y="489" on="1"/>
        <pt x="487" y="500" on="0"/>
        <pt x="484" y="542" on="0"/>
        <pt x="468" y="584" on="0"/>
        <pt x="432" y="615" on="0"/>
        <pt x="399" y="615" on="1"/>
        <pt x="353" y="615" on="0"/>
        <pt x="286" y="566" on="0"/>
        <pt x="241" y="491" on="0"/>
        <pt x="219" y="404" on="0"/>
        <pt x="219" y="365" on="1"/>
        <pt x="219" y="350" on="0"/>
        <pt x="226" y="314" on="0"/>
        <pt x="246" y="281" on="0"/>
        <pt x="283" y="259" on="0"/>
        <pt x="313" y="259" on="1"/>
        <pt x="346" y="259" on="0"/>
        <pt x="404" y="288" on="0"/>
        <pt x="449" y="337" on="0"/>
        <pt x="480" y="401" on="0"/>
      </contour>
    </TTGlyph>
    <TTGlyph name="numbersign" xMin="89" yMin="-194" xMax="901" yMax="694">
      <contour>
        <pt x="430" y="-175" on="1"/>
        <pt x="426" y="-183" on="0"/>
        <pt x="415" y="-194" on="0"/>
        <pt x="406" y="-194" on="1"/>
        <pt x="398" y="-194" on="0"/>
        <pt x="383" y="-182" on="0"/>
        <pt x="383" y="-171" on="1"/>
        <pt x="383" y="-167" on="0"/>
        <pt x="385" y="-161" on="0"/>
        <pt x="390" y="-151" on="1"/>
        <pt x="524" y="118" on="1"/>
        <pt x="333" y="118" on="1"/>
        <pt x="188" y="-175" on="1"/>
        <pt x="184" y="-183" on="0"/>
        <pt x="173" y="-194" on="0"/>
        <pt x="164" y="-194" on="1"/>
        <pt x="156" y="-194" on="0"/>
        <pt x="141" y="-182" on="0"/>
        <pt x="141" y="-171" on="1"/>
        <pt x="141" y="-167" on="0"/>
        <pt x="143" y="-161" on="0"/>
        <pt x="148" y="-151" on="1"/>
        <pt x="282" y="118" on="1"/>
        <pt x="125" y="118" on="1"/>
        <pt x="114" y="118" on="0"/>
        <pt x="89" y="124" on="0"/>
        <pt x="89" y="141" on="1"/>
        <pt x="89" y="158" on="0"/>
        <pt x="114" y="164" on="0"/>
        <pt x="125" y="164" on="1"/>
        <pt x="306" y="164" on="1"/>
        <pt x="391" y="336" on="1"/>
        <pt x="171" y="336" on="1"/>
        <pt x="161" y="336" on="0"/>
        <pt x="135" y="342" on="0"/>
        <pt x="135" y="359" on="1"/>
        <pt x="135" y="376" on="0"/>
        <pt x="161" y="382" on="0"/>
        <pt x="171" y="382" on="1"/>
        <pt x="415" y="382" on="1"/>
        <pt x="560" y="673" on="1"/>
        <pt x="564" y="681" on="0"/>
        <pt x="574" y="694" on="0"/>
        <pt x="585" y="694" on="1"/>
        <pt x="595" y="694" on="0"/>
        <pt x="607" y="680" on="0"/>
        <pt x="607" y="671" on="1"/>
        <pt x="607" y="661" on="0"/>
        <pt x="602" y="653" on="1"/>
        <pt x="467" y="382" on="1"/>
        <pt x="657" y="382" on="1"/>
        <pt x="802" y="673" on="1"/>
        <pt x="806" y="681" on="0"/>
        <pt x="816" y="694" on="0"/>
        <pt x="827" y="694" on="1"/>
        <pt x="837" y="694" on="0"/>
        <pt x="849" y="680" on="0"/>
        <pt x="849" y="671" on="1"/>
        <pt x="849" y="661" on="0"/>
        <pt x="844" y="653" on="1"/>
        <pt x="709" y="382" on="1"/>
        <pt x="865" y="382" on="1"/>
        <pt x="876" y="382" on="0"/>
        <pt x="901" y="376" on="0"/>
        <pt x="901" y="359" on="1"/>
        <pt x="901" y="342" on="0"/>
        <pt x="876" y="336" on="0"/>
        <pt x="865" y="336" on="1"/>
        <pt x="685" y="336" on="1"/>
        <pt x="599" y="164" on="1"/>
        <pt x="819" y="164" on="1"/>
        <pt x="830" y="164" on="0"/>
        <pt x="855" y="158" on="0"/>
        <pt x="855" y="141" on="1"/>
        <pt x="855" y="124" on="0"/>
        <pt x="830" y="118" on="0"/>
        <pt x="819" y="118" on="1"/>
        <pt x="575" y="118" on="1"/>
      </contour>
      <contour>
        <pt x="633" y="336" on="1"/>
        <pt x="443" y="336" on="1"/>
        <pt x="357" y="164" on="1"/>
        <pt x="548" y="164" on="1"/>
      </contour>
    </TTGlyph>
    <TTGlyph name="o" xMin="72" yMin="-10" xMax="552" yMax="459">
      <contour>
        <pt x="552" y="269" on="1"/>
        <pt x="552" y="213" on="0"/>
        <pt x="503" y="112" on="0"/>
        <pt x="422" y="35" on="0"/>
        <pt x="318" y="-10" on="0"/>
        <pt x="263" y="-10" on="1"/>
        <pt x="222" y="-10" on="0"/>
        <pt x="152" y="17" on="0"/>
        <pt x="101" y="65" on="0"/>
        <pt x="72" y="132" on="0"/>
        <pt x="72" y="173" on="1"/>
        <pt x="72" y="226" on="0"/>
        <pt x="120" y="328" on="0"/>
        <pt x="200" y="409" on="0"/>
        <pt x="305" y="459" on="0"/>
        <pt x="362" y="459" on="1"/>
        <pt x="404" y="459" on="0"/>
        <pt x="473" y="431" on="0"/>
        <pt x="524" y="380" on="0"/>
        <pt x="552" y="311" on="0"/>
      </contour>
      <contour>
        <pt x="278" y="59" on="1"/>
        <pt x="322" y="59" on="0"/>
        <pt x="392" y="99" on="0"/>
        <pt x="441" y="161" on="0"/>
        <pt x="467" y="237" on="0"/>
        <pt x="467" y="274" on="1"/>
        <pt x="467" y="309" on="0"/>
        <pt x="445" y="354" on="0"/>
        <pt x="410" y="382" on="0"/>
        <pt x="368" y="393" on="0"/>
        <pt x="348" y="393" on="1"/>
        <pt x="307" y="393" on="0"/>
        <pt x="238" y="358" on="0"/>
        <pt x="188" y="299" on="0"/>
        <pt x="160" y="222" on="0"/>
        <pt x="160" y="181" on="1"/>
        <pt x="160" y="121" on="0"/>
        <pt x="227" y="59" on="0"/>
      </contour>
    </TTGlyph>
    <TTGlyph name="oe" xMin="72" yMin="-10" xMax="852" yMax="459">
      <contour>
        <pt x="533" y="219" on="1"/>
        <pt x="532" y="214" on="0"/>
        <pt x="529" y="193" on="0"/>
        <pt x="529" y="185" on="1"/>
        <pt x="529" y="161" on="0"/>
        <pt x="544" y="115" on="0"/>
        <pt x="574" y="78" on="0"/>
        <pt x="619" y="56" on="0"/>
        <pt x="649" y="56" on="1"/>
        <pt x="656" y="56" on="0"/>
        <pt x="687" y="59" on="0"/>
        <pt x="729" y="69" on="0"/>
        <pt x="780" y="90" on="0"/>
        <pt x="807" y="109" on="1"/>
        <pt x="807" y="105" on="0"/>
        <pt x="804" y="84" on="0"/>
        <pt x="801" y="61" on="0"/>
        <pt x="798" y="42" on="0"/>
        <pt x="797" y="40" on="1"/>
        <pt x="797" y="38" on="0"/>
        <pt x="770" y="22" on="0"/>
        <pt x="725" y="4" on="0"/>
        <pt x="667" y="-10" on="0"/>
        <pt x="634" y="-10" on="1"/>
        <pt x="567" y="-10" on="0"/>
        <pt x="481" y="49" on="0"/>
        <pt x="462" y="88" on="1"/>
        <pt x="459" y="84" on="0"/>
        <pt x="426" y="52" on="0"/>
        <pt x="372" y="18" on="0"/>
        <pt x="299" y="-10" on="0"/>
        <pt x="255" y="-10" on="1"/>
        <pt x="213" y="-10" on="0"/>
        <pt x="145" y="19" on="0"/>
        <pt x="98" y="69" on="0"/>
        <pt x="72" y="136" on="0"/>
        <pt x="72" y="174" on="1"/>
        <pt x="72" y="228" on="0"/>
        <pt x="119" y="331" on="0"/>
        <pt x="197" y="410" on="0"/>
        <pt x="299" y="459" on="0"/>
        <pt x="354" y="459" on="1"/>
        <pt x="404" y="459" on="0"/>
        <pt x="495" y="411" on="0"/>
        <pt x="518" y="363" on="1"/>
        <pt x="529" y="374" on="0"/>
        <pt x="565" y="406" on="0"/>
        <pt x="616" y="437" on="0"/>
        <pt x="679" y="459" on="0"/>
        <pt x="717" y="459" on="1"/>
        <pt x="788" y="459" on="0"/>
        <pt x="852" y="373" on="0"/>
        <pt x="852" y="307" on="1"/>
        <pt x="852" y="283" on="0"/>
        <pt x="845" y="233" on="0"/>
        <pt x="842" y="219" on="1"/>
      </contour>
      <contour>
        <pt x="791" y="279" on="1"/>
        <pt x="791" y="288" on="0"/>
        <pt x="788" y="326" on="0"/>
        <pt x="772" y="364" on="0"/>
        <pt x="736" y="393" on="0"/>
        <pt x="703" y="393" on="1"/>
        <pt x="683" y="393" on="0"/>
        <pt x="640" y="377" on="0"/>
        <pt x="600" y="347" on="0"/>
        <pt x="565" y="305" on="0"/>
        <pt x="553" y="279" on="1"/>
      </contour>
      <contour>
        <pt x="268" y="56" on="1"/>
        <pt x="311" y="56" on="0"/>
        <pt x="379" y="97" on="0"/>
        <pt x="427" y="161" on="0"/>
        <pt x="453" y="239" on="0"/>
        <pt x="453" y="276" on="1"/>
        <pt x="453" y="311" on="0"/>
        <pt x="431" y="356" on="0"/>
        <pt x="398" y="383" on="0"/>
        <pt x="357" y="393" on="0"/>
        <pt x="339" y="393" on="1"/>
        <pt x="298" y="393" on="0"/>
        <pt x="230" y="357" on="0"/>
        <pt x="180" y="298" on="0"/>
        <pt x="153" y="221" on="0"/>
        <pt x="153" y="180" on="1"/>
        <pt x="153" y="148" on="0"/>
        <pt x="172" y="101" on="0"/>
        <pt x="203" y="71" on="0"/>
        <pt x="245" y="56" on="0"/>
      </contour>
    </TTGlyph>
    <TTGlyph name="one" xMin="98" yMin="0" xMax="467" yMax="677">
      <contour>
        <pt x="334" y="63" on="1"/>
        <pt x="467" y="63" on="1"/>
        <pt x="454" y="0" on="1"/>
        <pt x="98" y="0" on="1"/>
        <pt x="112" y="63" on="1"/>
        <pt x="244" y="63" on="1"/>
        <pt x="352" y="571" on="1"/>
        <pt x="312" y="556" on="0"/>
        <pt x="238" y="549" on="0"/>
        <pt x="209" y="548" on="1"/>
        <pt x="222" y="611" on="1"/>
        <pt x="246" y="612" on="0"/>
        <pt x="299" y="616" on="0"/>
        <pt x="355" y="629" on="0"/>
        <pt x="414" y="655" on="0"/>
        <pt x="443" y="677" on="1"/>
        <pt x="465" y="677" on="1"/>
      </contour>
    </TTGlyph>
    <TTGlyph name="oslash" xMin="28" yMin="-114" xMax="596" yMax="559">
      <contour>
        <pt x="499" y="404" on="1"/>
        <pt x="526" y="375" on="0"/>
        <pt x="549" y="306" on="0"/>
        <pt x="549" y="270" on="1"/>
        <pt x="549" y="213" on="0"/>
        <pt x="500" y="111" on="0"/>
        <pt x="419" y="35" on="0"/>
        <pt x="317" y="-10" on="0"/>
        <pt x="263" y="-10" on="1"/>
        <pt x="249" y="-10" on="0"/>
        <pt x="203" y="-4" on="0"/>
        <pt x="176" y="8" on="1"/>
        <pt x="78" y="-114" on="1"/>
        <pt x="28" y="-80" on="1"/>
        <pt x="127" y="42" on="1"/>
        <pt x="109" y="59" on="0"/>
        <pt x="88" y="96" on="0"/>
        <pt x="77" y="131" on="0"/>
        <pt x="74" y="162" on="0"/>
        <pt x="74" y="172" on="1"/>
        <pt x="74" y="224" on="0"/>
        <pt x="121" y="326" on="0"/>
        <pt x="201" y="408" on="0"/>
        <pt x="305" y="459" on="0"/>
        <pt x="362" y="459" on="1"/>
        <pt x="390" y="459" on="0"/>
        <pt x="437" y="447" on="0"/>
        <pt x="451" y="440" on="1"/>
        <pt x="547" y="559" on="1"/>
        <pt x="596" y="525" on="1"/>
      </contour>
      <contour>
        <pt x="403" y="382" on="1"/>
        <pt x="395" y="385" on="0"/>
        <pt x="368" y="393" on="0"/>
        <pt x="348" y="393" on="1"/>
        <pt x="305" y="393" on="0"/>
        <pt x="235" y="354" on="0"/>
        <pt x="184" y="292" on="0"/>
        <pt x="156" y="215" on="0"/>
        <pt x="156" y="176" on="1"/>
        <pt x="156" y="163" on="0"/>
        <pt x="162" y="123" on="0"/>
        <pt x="176" y="103" on="1"/>
      </contour>
      <contour>
        <pt x="224" y="66" on="1"/>
        <pt x="224" y="65" on="1"/>
        <pt x="229" y="63" on="0"/>
        <pt x="258" y="56" on="0"/>
        <pt x="277" y="56" on="1"/>
        <pt x="319" y="56" on="0"/>
        <pt x="390" y="91" on="0"/>
        <pt x="440" y="150" on="0"/>
        <pt x="468" y="226" on="0"/>
        <pt x="468" y="268" on="1"/>
        <pt x="468" y="275" on="0"/>
        <pt x="463" y="320" on="0"/>
        <pt x="449" y="343" on="1"/>
      </contour>
    </TTGlyph>
    <TTGlyph name="p" xMin="44" yMin="-194" xMax="567" yMax="454">
      <contour>
        <pt x="131" y="-194" on="1"/>
        <pt x="44" y="-194" on="1"/>
        <pt x="179" y="444" on="1"/>
        <pt x="263" y="444" on="1"/>
        <pt x="253" y="396" on="1"/>
        <pt x="296" y="424" on="0"/>
        <pt x="392" y="454" on="0"/>
        <pt x="443" y="454" on="1"/>
        <pt x="478" y="454" on="0"/>
        <pt x="525" y="423" on="0"/>
        <pt x="554" y="375" on="0"/>
        <pt x="567" y="317" on="0"/>
        <pt x="567" y="291" on="1"/>
        <pt x="567" y="229" on="0"/>
        <pt x="523" y="119" on="0"/>
        <pt x="451" y="37" on="0"/>
        <pt x="361" y="-10" on="0"/>
        <pt x="314" y="-10" on="1"/>
        <pt x="264" y="-10" on="0"/>
        <pt x="199" y="28" on="0"/>
        <pt x="182" y="47" on="1"/>
      </contour>
      <contour>
        <pt x="197" y="118" on="1"/>
        <pt x="205" y="95" on="0"/>
        <pt x="246" y="56" on="0"/>
        <pt x="284" y="56" on="1"/>
        <pt x="319" y="56" on="0"/>
        <pt x="387" y="89" on="0"/>
        <pt x="442" y="144" on="0"/>
        <pt x="476" y="218" on="0"/>
        <pt x="476" y="260" on="1"/>
        <pt x="476" y="291" on="0"/>
        <pt x="458" y="338" on="0"/>
        <pt x="427" y="369" on="0"/>
        <pt x="386" y="385" on="0"/>
        <pt x="364" y="385" on="1"/>
        <pt x="340" y="385" on="0"/>
        <pt x="298" y="371" on="0"/>
        <pt x="267" y="353" on="0"/>
        <pt x="246" y="335" on="0"/>
        <pt x="242" y="331" on="1"/>
      </contour>
    </TTGlyph>
    <TTGlyph name="parenleft" xMin="118" yMin="-250" xMax="512" yMax="750">
      <contour>
        <pt x="512" y="750" on="1"/>
        <pt x="445" y="698" on="0"/>
        <pt x="347" y="572" on="0"/>
        <pt x="279" y="439" on="0"/>
        <pt x="235" y="306" on="0"/>
        <pt x="211" y="186" on="0"/>
        <pt x="202" y="86" on="0"/>
        <pt x="202" y="54" on="1"/>
        <pt x="202" y="25" on="0"/>
        <pt x="208" y="-49" on="0"/>
        <pt x="228" y="-129" on="0"/>
        <pt x="267" y="-211" on="0"/>
        <pt x="300" y="-250" on="1"/>
        <pt x="234" y="-250" on="1"/>
        <pt x="191" y="-206" on="0"/>
        <pt x="143" y="-107" on="0"/>
        <pt x="122" y="-17" on="0"/>
        <pt x="118" y="56" on="0"/>
        <pt x="118" y="75" on="1"/>
        <pt x="118" y="94" on="0"/>
        <pt x="121" y="167" on="0"/>
        <pt x="132" y="224" on="1"/>
        <pt x="150" y="320" on="0"/>
        <pt x="211" y="478" on="0"/>
        <pt x="293" y="607" on="0"/>
        <pt x="392" y="710" on="0"/>
        <pt x="446" y="750" on="1"/>
      </contour>
    </TTGlyph>
    <TTGlyph name="parenright" xMin="6" yMin="-250" xMax="401" yMax="750">
      <contour>
        <pt x="284" y="750" on="1"/>
        <pt x="298" y="737" on="0"/>
        <pt x="338" y="686" on="0"/>
        <pt x="375" y="607" on="0"/>
        <pt x="401" y="498" on="0"/>
        <pt x="401" y="426" on="1"/>
        <pt x="401" y="399" on="0"/>
        <pt x="393" y="308" on="0"/>
        <pt x="370" y="194" on="0"/>
        <pt x="325" y="63" on="0"/>
        <pt x="252" y="-69" on="0"/>
        <pt x="146" y="-196" on="0"/>
        <pt x="72" y="-250" on="1"/>
        <pt x="6" y="-250" on="1"/>
        <pt x="85" y="-187" on="0"/>
        <pt x="178" y="-58" on="0"/>
        <pt x="204" y="-7" on="1"/>
        <pt x="245" y="74" on="0"/>
        <pt x="290" y="226" on="0"/>
        <pt x="312" y="348" on="0"/>
        <pt x="317" y="432" on="0"/>
        <pt x="317" y="446" on="1"/>
        <pt x="317" y="470" on="0"/>
        <pt x="311" y="543" on="0"/>
        <pt x="291" y="625" on="0"/>
        <pt x="252" y="711" on="0"/>
        <pt x="218" y="750" on="1"/>
      </contour>
    </TTGlyph>
    <TTGlyph name="percent" xMin="169" yMin="-56" xMax="862" yMax="750">
      <contour>
        <pt x="223" y="-43" on="1"/>
        <pt x="218" y="-48" on="0"/>
        <pt x="209" y="-56" on="0"/>
        <pt x="201" y="-56" on="1"/>
        <pt x="191" y="-56" on="0"/>
        <pt x="178" y="-43" on="0"/>
        <pt x="178" y="-33" on="1"/>
        <pt x="178" y="-24" on="0"/>
        <pt x="180" y="-22" on="1"/>
        <pt x="811" y="734" on="1"/>
        <pt x="819" y="743" on="0"/>
        <pt x="827" y="750" on="0"/>
        <pt x="835" y="750" on="1"/>
        <pt x="846" y="750" on="0"/>
        <pt x="857" y="735" on="0"/>
        <pt x="857" y="727" on="1"/>
        <pt x="857" y="723" on="0"/>
        <pt x="854" y="713" on="0"/>
        <pt x="846" y="704" on="1"/>
      </contour>
      <contour>
        <pt x="862" y="203" on="1"/>
        <pt x="862" y="152" on="0"/>
        <pt x="828" y="59" on="0"/>
        <pt x="772" y="-13" on="0"/>
        <pt x="703" y="-56" on="0"/>
        <pt x="668" y="-56" on="1"/>
        <pt x="646" y="-56" on="0"/>
        <pt x="605" y="-37" on="0"/>
        <pt x="574" y="0" on="0"/>
        <pt x="556" y="55" on="0"/>
        <pt x="556" y="90" on="1"/>
        <pt x="556" y="140" on="0"/>
        <pt x="591" y="233" on="0"/>
        <pt x="647" y="304" on="0"/>
        <pt x="717" y="347" on="0"/>
        <pt x="753" y="347" on="1"/>
        <pt x="775" y="347" on="0"/>
        <pt x="815" y="328" on="0"/>
        <pt x="845" y="291" on="0"/>
        <pt x="862" y="237" on="0"/>
      </contour>
      <contour>
        <pt x="682" y="10" on="1"/>
        <pt x="702" y="10" on="0"/>
        <pt x="740" y="45" on="0"/>
        <pt x="770" y="99" on="0"/>
        <pt x="788" y="165" on="0"/>
        <pt x="788" y="196" on="1"/>
        <pt x="788" y="204" on="0"/>
        <pt x="785" y="232" on="0"/>
        <pt x="774" y="260" on="0"/>
        <pt x="755" y="281" on="0"/>
        <pt x="739" y="281" on="1"/>
        <pt x="712" y="281" on="0"/>
        <pt x="673" y="236" on="0"/>
        <pt x="648" y="173" on="0"/>
        <pt x="635" y="106" on="0"/>
        <pt x="635" y="83" on="1"/>
        <pt x="635" y="61" on="0"/>
        <pt x="644" y="32" on="0"/>
        <pt x="658" y="16" on="0"/>
        <pt x="675" y="10" on="0"/>
      </contour>
      <contour>
        <pt x="476" y="606" on="1"/>
        <pt x="476" y="556" on="0"/>
        <pt x="442" y="463" on="0"/>
        <pt x="387" y="391" on="0"/>
        <pt x="317" y="347" on="0"/>
        <pt x="282" y="347" on="1"/>
        <pt x="256" y="347" on="0"/>
        <pt x="214" y="370" on="0"/>
        <pt x="185" y="410" on="0"/>
        <pt x="169" y="462" on="0"/>
        <pt x="169" y="492" on="1"/>
        <pt x="169" y="540" on="0"/>
        <pt x="203" y="633" on="0"/>
        <pt x="259" y="705" on="0"/>
        <pt x="330" y="750" on="0"/>
        <pt x="367" y="750" on="1"/>
        <pt x="415" y="750" on="0"/>
        <pt x="476" y="669" on="0"/>
      </contour>
      <contour>
        <pt x="296" y="413" on="1"/>
        <pt x="314" y="413" on="0"/>
        <pt x="352" y="446" on="0"/>
        <pt x="382" y="498" on="0"/>
        <pt x="401" y="565" on="0"/>
        <pt x="401" y="599" on="1"/>
        <pt x="401" y="637" on="0"/>
        <pt x="376" y="684" on="0"/>
        <pt x="353" y="684" on="1"/>
        <pt x="325" y="684" on="0"/>
        <pt x="285" y="635" on="0"/>
        <pt x="259" y="569" on="0"/>
        <pt x="248" y="503" on="0"/>
        <pt x="248" y="486" on="1"/>
        <pt x="248" y="478" on="0"/>
        <pt x="251" y="453" on="0"/>
        <pt x="261" y="430" on="0"/>
        <pt x="280" y="413" on="0"/>
      </contour>
    </TTGlyph>
    <TTGlyph name="period" xMin="102" yMin="0" xMax="211" yMax="90">
      <contour>
        <pt x="192" y="0" on="1"/>
        <pt x="102" y="0" on="1"/>
        <pt x="121" y="90" on="1"/>
        <pt x="211" y="90" on="1"/>
      </contour>
    </TTGlyph>
    <TTGlyph name="plus" xMin="112" yMin="-104" xMax="819" yMax="604">
      <contour>
        <pt x="420" y="-76" on="1"/>
        <pt x="418" y="-86" on="0"/>
        <pt x="410" y="-104" on="0"/>
        <pt x="396" y="-104" on="1"/>
        <pt x="388" y="-104" on="0"/>
        <pt x="373" y="-92" on="0"/>
        <pt x="373" y="-81" on="1"/>
        <pt x="373" y="-79" on="0"/>
        <pt x="376" y="-63" on="0"/>
        <pt x="377" y="-61" on="1"/>
        <pt x="438" y="227" on="1"/>
        <pt x="148" y="227" on="1"/>
        <pt x="138" y="227" on="0"/>
        <pt x="112" y="233" on="0"/>
        <pt x="112" y="250" on="1"/>
        <pt x="112" y="267" on="0"/>
        <pt x="138" y="273" on="0"/>
        <pt x="148" y="273" on="1"/>
        <pt x="447" y="273" on="1"/>
        <pt x="512" y="576" on="1"/>
        <pt x="514" y="585" on="0"/>
        <pt x="522" y="604" on="0"/>
        <pt x="536" y="604" on="1"/>
        <pt x="544" y="604" on="0"/>
        <pt x="559" y="593" on="0"/>
        <pt x="559" y="580" on="1"/>
        <pt x="559" y="578" on="0"/>
        <pt x="556" y="562" on="0"/>
        <pt x="555" y="560" on="1"/>
        <pt x="495" y="273" on="1"/>
        <pt x="783" y="273" on="1"/>
        <pt x="794" y="273" on="0"/>
        <pt x="819" y="267" on="0"/>
        <pt x="819" y="250" on="1"/>
        <pt x="819" y="233" on="0"/>
        <pt x="794" y="227" on="0"/>
        <pt x="783" y="227" on="1"/>
        <pt x="485" y="227" on="1"/>
      </contour>
    </TTGlyph>
    <TTGlyph name="q" xMin="76" yMin="-194" xMax="559" yMax="454">
      <contour>
        <pt x="422" y="-194" on="1"/>
        <pt x="335" y="-194" on="1"/>
        <pt x="386" y="49" on="1"/>
        <pt x="336" y="14" on="0"/>
        <pt x="243" y="-10" on="0"/>
        <pt x="211" y="-10" on="1"/>
        <pt x="177" y="-10" on="0"/>
        <pt x="126" y="19" on="0"/>
        <pt x="93" y="66" on="0"/>
        <pt x="76" y="126" on="0"/>
        <pt x="76" y="158" on="1"/>
        <pt x="76" y="217" on="0"/>
        <pt x="120" y="325" on="0"/>
        <pt x="191" y="406" on="0"/>
        <pt x="281" y="454" on="0"/>
        <pt x="328" y="454" on="1"/>
        <pt x="333" y="454" on="0"/>
        <pt x="362" y="452" on="0"/>
        <pt x="400" y="440" on="0"/>
        <pt x="443" y="413" on="0"/>
        <pt x="462" y="388" on="1"/>
        <pt x="475" y="454" on="1"/>
        <pt x="559" y="454" on="1"/>
      </contour>
      <contour>
        <pt x="439" y="280" on="1"/>
        <pt x="441" y="287" on="0"/>
        <pt x="441" y="292" on="0"/>
        <pt x="441" y="295" on="1"/>
        <pt x="441" y="330" on="0"/>
        <pt x="417" y="360" on="1"/>
        <pt x="409" y="368" on="0"/>
        <pt x="381" y="385" on="0"/>
        <pt x="358" y="385" on="1"/>
        <pt x="324" y="385" on="0"/>
        <pt x="255" y="354" on="0"/>
        <pt x="200" y="299" on="0"/>
        <pt x="166" y="225" on="0"/>
        <pt x="166" y="182" on="1"/>
        <pt x="166" y="125" on="0"/>
        <pt x="228" y="56" on="0"/>
        <pt x="278" y="56" on="1"/>
        <pt x="294" y="56" on="0"/>
        <pt x="355" y="73" on="0"/>
        <pt x="390" y="107" on="1"/>
        <pt x="395" y="112" on="0"/>
        <pt x="401" y="119" on="0"/>
        <pt x="404" y="125" on="0"/>
        <pt x="407" y="133" on="0"/>
        <pt x="408" y="139" on="1"/>
      </contour>
    </TTGlyph>
    <TTGlyph name="question" xMin="191" yMin="0" xMax="562" yMax="704">
      <contour>
        <pt x="197" y="652" on="1"/>
        <pt x="230" y="669" on="0"/>
        <pt x="324" y="704" on="0"/>
        <pt x="387" y="704" on="1"/>
        <pt x="410" y="704" on="0"/>
        <pt x="471" y="697" on="0"/>
        <pt x="525" y="671" on="0"/>
        <pt x="562" y="622" on="0"/>
        <pt x="562" y="581" on="1"/>
        <pt x="562" y="547" on="0"/>
        <pt x="540" y="494" on="0"/>
        <pt x="509" y="456" on="0"/>
        <pt x="476" y="431" on="0"/>
        <pt x="466" y="424" on="1"/>
        <pt x="439" y="405" on="0"/>
        <pt x="384" y="353" on="0"/>
        <pt x="365" y="327" on="1"/>
        <pt x="352" y="308" on="0"/>
        <pt x="337" y="280" on="0"/>
        <pt x="326" y="248" on="0"/>
        <pt x="316" y="209" on="0"/>
        <pt x="310" y="180" on="1"/>
        <pt x="238" y="180" on="1"/>
        <pt x="245" y="213" on="0"/>
        <pt x="265" y="287" on="0"/>
        <pt x="303" y="364" on="0"/>
        <pt x="366" y="440" on="0"/>
        <pt x="417" y="476" on="1"/>
        <pt x="426" y="482" on="0"/>
        <pt x="446" y="498" on="0"/>
        <pt x="463" y="521" on="0"/>
        <pt x="474" y="552" on="0"/>
        <pt x="474" y="573" on="1"/>
        <pt x="474" y="587" on="0"/>
        <pt x="467" y="610" on="0"/>
        <pt x="446" y="628" on="0"/>
        <pt x="407" y="638" on="0"/>
        <pt x="375" y="638" on="1"/>
        <pt x="346" y="638" on="0"/>
        <pt x="262" y="619" on="0"/>
        <pt x="208" y="584" on="1"/>
      </contour>
      <contour>
        <pt x="281" y="0" on="1"/>
        <pt x="191" y="0" on="1"/>
        <pt x="210" y="90" on="1"/>
        <pt x="300" y="90" on="1"/>
      </contour>
    </TTGlyph>
    <TTGlyph name="questiondown" xMin="44" yMin="-204" xMax="410" yMax="500">
      <contour>
        <pt x="368" y="410" on="1"/>
        <pt x="278" y="410" on="1"/>
        <pt x="297" y="500" on="1"/>
        <pt x="387" y="500" on="1"/>
      </contour>
      <contour>
        <pt x="410" y="-152" on="1"/>
        <pt x="351" y="-180" on="0"/>
        <pt x="242" y="-204" on="0"/>
        <pt x="195" y="-204" on="1"/>
        <pt x="185" y="-204" on="0"/>
        <pt x="135" y="-200" on="0"/>
        <pt x="83" y="-178" on="0"/>
        <pt x="44" y="-131" on="0"/>
        <pt x="44" y="-87" on="1"/>
        <pt x="44" y="-83" on="0"/>
        <pt x="46" y="-51" on="0"/>
        <pt x="61" y="-6" on="0"/>
        <pt x="92" y="46" on="0"/>
        <pt x="121" y="68" on="1"/>
        <pt x="164" y="101" on="0"/>
        <pt x="216" y="165" on="0"/>
        <pt x="247" y="228" on="0"/>
        <pt x="262" y="290" on="0"/>
        <pt x="268" y="320" on="1"/>
        <pt x="340" y="320" on="1"/>
        <pt x="334" y="288" on="0"/>
        <pt x="316" y="216" on="0"/>
        <pt x="281" y="139" on="0"/>
        <pt x="222" y="59" on="0"/>
        <pt x="174" y="18" on="1"/>
        <pt x="158" y="5" on="0"/>
        <pt x="140" y="-29" on="0"/>
        <pt x="132" y="-59" on="0"/>
        <pt x="131" y="-81" on="0"/>
        <pt x="131" y="-82" on="1"/>
        <pt x="131" y="-101" on="0"/>
        <pt x="146" y="-123" on="0"/>
        <pt x="168" y="-135" on="0"/>
        <pt x="195" y="-138" on="0"/>
        <pt x="208" y="-138" on="1"/>
        <pt x="236" y="-138" on="0"/>
        <pt x="333" y="-120" on="0"/>
        <pt x="400" y="-84" on="1"/>
      </contour>
    </TTGlyph>
    <TTGlyph name="quotedblleft" xMin="299" yMin="476" xMax="643" yMax="694">
      <contour>
        <pt x="380" y="566" on="1"/>
        <pt x="408" y="566" on="1"/>
        <pt x="389" y="476" on="1"/>
        <pt x="299" y="476" on="1"/>
        <pt x="318" y="565" on="1"/>
        <pt x="391" y="694" on="1"/>
        <pt x="436" y="694" on="1"/>
      </contour>
      <contour>
        <pt x="587" y="566" on="1"/>
        <pt x="615" y="566" on="1"/>
        <pt x="596" y="476" on="1"/>
        <pt x="506" y="476" on="1"/>
        <pt x="525" y="565" on="1"/>
        <pt x="598" y="694" on="1"/>
        <pt x="643" y="694" on="1"/>
      </contour>
    </TTGlyph>
    <TTGlyph name="quotedblright" xMin="136" yMin="476" xMax="479" yMax="694">
      <contour>
        <pt x="181" y="476" on="1"/>
        <pt x="136" y="476" on="1"/>
        <pt x="191" y="604" on="1"/>
        <pt x="163" y="604" on="1"/>
        <pt x="182" y="694" on="1"/>
        <pt x="272" y="694" on="1"/>
        <pt x="254" y="605" on="1"/>
      </contour>
      <contour>
        <pt x="388" y="476" on="1"/>
        <pt x="343" y="476" on="1"/>
        <pt x="398" y="604" on="1"/>
        <pt x="370" y="604" on="1"/>
        <pt x="389" y="694" on="1"/>
        <pt x="479" y="694" on="1"/>
        <pt x="461" y="605" on="1"/>
      </contour>
    </TTGlyph>
    <TTGlyph name="quoteleft" xMin="203" yMin="476" xMax="340" yMax="694">
      <contour>
        <pt x="284" y="566" on="1"/>
        <pt x="312" y="566" on="1"/>
        <pt x="293" y="476" on="1"/>
        <pt x="203" y="476" on="1"/>
        <pt x="222" y="565" on="1"/>
        <pt x="295" y="694" on="1"/>
        <pt x="340" y="694" on="1"/>
      </contour>
    </TTGlyph>
    <TTGlyph name="quoteright" xMin="203" yMin="476" xMax="339" yMax="694">
      <contour>
        <pt x="248" y="476" on="1"/>
        <pt x="203" y="476" on="1"/>
        <pt x="258" y="604" on="1"/>
        <pt x="230" y="604" on="1"/>
        <pt x="249" y="694" on="1"/>
        <pt x="339" y="694" on="1"/>
        <pt x="321" y="605" on="1"/>
      </contour>
    </TTGlyph>
    <TTGlyph name="r" xMin="85" yMin="0" xMax="443" yMax="454">
      <contour>
        <pt x="428" y="380" on="1"/>
        <pt x="387" y="379" on="0"/>
        <pt x="315" y="352" on="0"/>
        <pt x="260" y="308" on="0"/>
        <pt x="223" y="252" on="0"/>
        <pt x="216" y="223" on="1"/>
        <pt x="215" y="219" on="0"/>
        <pt x="208" y="187" on="0"/>
        <pt x="199" y="143" on="0"/>
        <pt x="188" y="93" on="0"/>
        <pt x="179" y="46" on="0"/>
        <pt x="171" y="9" on="0"/>
        <pt x="169" y="0" on="1"/>
        <pt x="85" y="0" on="1"/>
        <pt x="181" y="451" on="1"/>
        <pt x="258" y="451" on="1"/>
        <pt x="239" y="360" on="1"/>
        <pt x="245" y="366" on="0"/>
        <pt x="277" y="396" on="0"/>
        <pt x="329" y="428" on="0"/>
        <pt x="400" y="453" on="0"/>
        <pt x="443" y="454" on="1"/>
      </contour>
    </TTGlyph>
    <TTGlyph name="ring" xMin="398" yMin="527" xMax="639" yMax="694">
      <contour>
        <pt x="639" y="623" on="1"/>
        <pt x="639" y="604" on="0"/>
        <pt x="616" y="569" on="0"/>
        <pt x="578" y="543" on="0"/>
        <pt x="528" y="527" on="0"/>
        <pt x="501" y="527" on="1"/>
        <pt x="452" y="527" on="0"/>
        <pt x="398" y="571" on="0"/>
        <pt x="398" y="598" on="1"/>
        <pt x="398" y="617" on="0"/>
        <pt x="421" y="651" on="0"/>
        <pt x="459" y="678" on="0"/>
        <pt x="509" y="694" on="0"/>
        <pt x="536" y="694" on="1"/>
        <pt x="585" y="694" on="0"/>
        <pt x="639" y="651" on="0"/>
      </contour>
      <contour>
        <pt x="511" y="569" on="1"/>
        <pt x="536" y="569" on="0"/>
        <pt x="563" y="584" on="0"/>
        <pt x="576" y="602" on="0"/>
        <pt x="579" y="618" on="0"/>
        <pt x="579" y="619" on="1"/>
        <pt x="579" y="631" on="0"/>
        <pt x="566" y="645" on="0"/>
        <pt x="548" y="651" on="0"/>
        <pt x="531" y="652" on="0"/>
        <pt x="527" y="652" on="1"/>
        <pt x="505" y="652" on="0"/>
        <pt x="478" y="640" on="0"/>
        <pt x="463" y="624" on="0"/>
        <pt x="459" y="607" on="0"/>
        <pt x="459" y="602" on="1"/>
        <pt x="459" y="590" on="0"/>
        <pt x="470" y="577" on="0"/>
        <pt x="486" y="571" on="0"/>
        <pt x="504" y="569" on="0"/>
      </contour>
    </TTGlyph>
    <TTGlyph name="s" xMin="38" yMin="-10" xMax="456" yMax="459">
      <contour>
        <pt x="428" y="357" on="1"/>
        <pt x="393" y="377" on="0"/>
        <pt x="327" y="395" on="0"/>
        <pt x="285" y="395" on="1"/>
        <pt x="247" y="395" on="0"/>
        <pt x="206" y="375" on="0"/>
        <pt x="187" y="351" on="0"/>
        <pt x="184" y="330" on="0"/>
        <pt x="184" y="329" on="1"/>
        <pt x="184" y="315" on="0"/>
        <pt x="198" y="297" on="0"/>
        <pt x="218" y="287" on="0"/>
        <pt x="240" y="281" on="0"/>
        <pt x="248" y="279" on="1"/>
        <pt x="277" y="274" on="0"/>
        <pt x="314" y="267" on="0"/>
        <pt x="339" y="259" on="0"/>
        <pt x="357" y="250" on="0"/>
        <pt x="367" y="243" on="1"/>
        <pt x="388" y="227" on="0"/>
        <pt x="413" y="184" on="0"/>
        <pt x="413" y="155" on="1"/>
        <pt x="413" y="145" on="0"/>
        <pt x="407" y="116" on="0"/>
        <pt x="394" y="83" on="0"/>
        <pt x="371" y="49" on="0"/>
        <pt x="353" y="34" on="1"/>
        <pt x="333" y="18" on="0"/>
        <pt x="288" y="0" on="0"/>
        <pt x="247" y="-9" on="0"/>
        <pt x="214" y="-10" on="0"/>
        <pt x="206" y="-10" on="1"/>
        <pt x="169" y="-10" on="0"/>
        <pt x="107" y="3" on="0"/>
        <pt x="63" y="19" on="0"/>
        <pt x="38" y="34" on="0"/>
        <pt x="38" y="36" on="1"/>
        <pt x="38" y="38" on="0"/>
        <pt x="41" y="46" on="0"/>
        <pt x="42" y="48" on="1"/>
        <pt x="67" y="109" on="1"/>
        <pt x="96" y="85" on="0"/>
        <pt x="176" y="58" on="0"/>
        <pt x="221" y="58" on="1"/>
        <pt x="263" y="58" on="0"/>
        <pt x="308" y="81" on="0"/>
        <pt x="329" y="108" on="0"/>
        <pt x="332" y="131" on="0"/>
        <pt x="332" y="131" on="1"/>
        <pt x="332" y="146" on="0"/>
        <pt x="317" y="165" on="0"/>
        <pt x="292" y="178" on="0"/>
        <pt x="260" y="185" on="0"/>
        <pt x="243" y="188" on="1"/>
        <pt x="225" y="192" on="0"/>
        <pt x="176" y="204" on="0"/>
        <pt x="132" y="229" on="0"/>
        <pt x="102" y="270" on="0"/>
        <pt x="102" y="303" on="1"/>
        <pt x="102" y="303" on="0"/>
        <pt x="104" y="327" on="0"/>
        <pt x="115" y="361" on="0"/>
        <pt x="140" y="402" on="0"/>
        <pt x="186" y="436" on="0"/>
        <pt x="257" y="459" on="0"/>
        <pt x="308" y="459" on="1"/>
        <pt x="353" y="459" on="0"/>
        <pt x="418" y="445" on="0"/>
        <pt x="456" y="428" on="1"/>
      </contour>
    </TTGlyph>
    <TTGlyph name="semicolon" xMin="74" yMin="-128" xMax="286" yMax="444">
      <contour>
        <pt x="267" y="354" on="1"/>
        <pt x="177" y="354" on="1"/>
        <pt x="196" y="444" on="1"/>
        <pt x="286" y="444" on="1"/>
      </contour>
      <contour>
        <pt x="130" y="0" on="1"/>
        <pt x="102" y="0" on="1"/>
        <pt x="121" y="90" on="1"/>
        <pt x="211" y="90" on="1"/>
        <pt x="199" y="35" on="1"/>
        <pt x="197" y="24" on="0"/>
        <pt x="191" y="-1" on="0"/>
        <pt x="188" y="-6" on="1"/>
        <pt x="182" y="-17" on="0"/>
        <pt x="164" y="-50" on="0"/>
        <pt x="143" y="-85" on="0"/>
        <pt x="125" y="-118" on="0"/>
        <pt x="119" y="-128" on="1"/>
        <pt x="74" y="-128" on="1"/>
      </contour>
    </TTGlyph>
    <TTGlyph name="seven" xMin="158" yMin="-10" xMax="625" yMax="656">
      <contour>
        <pt x="167" y="579" on="1"/>
        <pt x="183" y="656" on="1"/>
        <pt x="625" y="656" on="1"/>
        <pt x="621" y="632" on="0"/>
        <pt x="615" y="605" on="0"/>
        <pt x="612" y="591" on="0"/>
        <pt x="610" y="588" on="0"/>
        <pt x="610" y="587" on="1"/>
        <pt x="596" y="573" on="1"/>
        <pt x="536" y="519" on="0"/>
        <pt x="457" y="425" on="0"/>
        <pt x="425" y="379" on="1"/>
        <pt x="365" y="296" on="0"/>
        <pt x="273" y="92" on="0"/>
        <pt x="252" y="-10" on="1"/>
        <pt x="158" y="-10" on="1"/>
        <pt x="173" y="66" on="0"/>
        <pt x="237" y="224" on="0"/>
        <pt x="332" y="377" on="0"/>
        <pt x="457" y="519" on="0"/>
        <pt x="533" y="580" on="1"/>
        <pt x="406" y="580" on="1"/>
        <pt x="397" y="580" on="0"/>
        <pt x="379" y="579" on="0"/>
        <pt x="370" y="579" on="1"/>
      </contour>
    </TTGlyph>
    <TTGlyph name="six" xMin="96" yMin="-21" xMax="579" yMax="677">
      <contour>
        <pt x="565" y="594" on="1"/>
        <pt x="535" y="607" on="0"/>
        <pt x="484" y="615" on="0"/>
        <pt x="460" y="615" on="1"/>
        <pt x="421" y="615" on="0"/>
        <pt x="349" y="583" on="0"/>
        <pt x="286" y="523" on="0"/>
        <pt x="236" y="437" on="0"/>
        <pt x="220" y="383" on="1"/>
        <pt x="263" y="422" on="0"/>
        <pt x="364" y="463" on="0"/>
        <pt x="416" y="463" on="1"/>
        <pt x="457" y="463" on="0"/>
        <pt x="506" y="423" on="0"/>
        <pt x="533" y="369" on="0"/>
        <pt x="542" y="313" on="0"/>
        <pt x="542" y="297" on="1"/>
        <pt x="542" y="226" on="0"/>
        <pt x="491" y="109" on="0"/>
        <pt x="411" y="25" on="0"/>
        <pt x="312" y="-21" on="0"/>
        <pt x="263" y="-21" on="1"/>
        <pt x="185" y="-21" on="0"/>
        <pt x="96" y="84" on="0"/>
        <pt x="96" y="187" on="1"/>
        <pt x="96" y="209" on="0"/>
        <pt x="103" y="288" on="0"/>
        <pt x="128" y="385" on="0"/>
        <pt x="177" y="492" on="0"/>
        <pt x="219" y="543" on="1"/>
        <pt x="231" y="558" on="0"/>
        <pt x="278" y="604" on="0"/>
        <pt x="342" y="646" on="0"/>
        <pt x="424" y="677" on="0"/>
        <pt x="471" y="677" on="1"/>
        <pt x="482" y="677" on="0"/>
        <pt x="541" y="672" on="0"/>
        <pt x="579" y="657" on="1"/>
      </contour>
      <contour>
        <pt x="186" y="221" on="1"/>
        <pt x="185" y="209" on="0"/>
        <pt x="183" y="184" on="0"/>
        <pt x="183" y="173" on="1"/>
        <pt x="183" y="159" on="0"/>
        <pt x="188" y="116" on="0"/>
        <pt x="206" y="75" on="0"/>
        <pt x="244" y="45" on="0"/>
        <pt x="277" y="45" on="1"/>
        <pt x="311" y="45" on="0"/>
        <pt x="376" y="80" on="0"/>
        <pt x="402" y="120" on="1"/>
        <pt x="418" y="143" on="0"/>
        <pt x="437" y="200" on="0"/>
        <pt x="448" y="251" on="0"/>
        <pt x="451" y="288" on="0"/>
        <pt x="451" y="292" on="1"/>
        <pt x="451" y="297" on="0"/>
        <pt x="448" y="330" on="0"/>
        <pt x="430" y="368" on="0"/>
        <pt x="392" y="397" on="0"/>
        <pt x="356" y="397" on="1"/>
        <pt x="325" y="397" on="0"/>
        <pt x="267" y="369" on="0"/>
        <pt x="221" y="321" on="0"/>
        <pt x="191" y="257" on="0"/>
      </contour>
    </TTGlyph>
    <TTGlyph name="slash" xMin="11" yMin="-250" xMax="625" yMax="750">
      <contour>
        <pt x="57" y="-233" on="1"/>
        <pt x="54" y="-238" on="0"/>
        <pt x="44" y="-250" on="0"/>
        <pt x="34" y="-250" on="1"/>
        <pt x="26" y="-250" on="0"/>
        <pt x="11" y="-238" on="0"/>
        <pt x="11" y="-227" on="1"/>
        <pt x="11" y="-223" on="0"/>
        <pt x="13" y="-217" on="0"/>
        <pt x="19" y="-208" on="1"/>
        <pt x="578" y="731" on="1"/>
        <pt x="583" y="739" on="0"/>
        <pt x="593" y="750" on="0"/>
        <pt x="603" y="750" on="1"/>
        <pt x="614" y="750" on="0"/>
        <pt x="625" y="735" on="0"/>
        <pt x="625" y="727" on="1"/>
        <pt x="625" y="726" on="0"/>
        <pt x="623" y="716" on="0"/>
        <pt x="618" y="707" on="1"/>
      </contour>
    </TTGlyph>
    <TTGlyph name="suppress" xMin="60" yMin="265" xMax="332" yMax="398">
      <contour>
        <pt x="65" y="265" on="1"/>
        <pt x="60" y="326" on="1"/>
        <pt x="328" y="398" on="1"/>
        <pt x="332" y="337" on="1"/>
      </contour>
    </TTGlyph>
    <TTGlyph name="t" xMin="101" yMin="-10" xMax="430" yMax="571">
      <contour>
        <pt x="217" y="134" on="1"/>
        <pt x="217" y="133" on="0"/>
        <pt x="214" y="117" on="0"/>
        <pt x="214" y="108" on="1"/>
        <pt x="214" y="79" on="0"/>
        <pt x="237" y="59" on="0"/>
        <pt x="254" y="59" on="1"/>
        <pt x="282" y="59" on="0"/>
        <pt x="332" y="76" on="0"/>
        <pt x="355" y="90" on="1"/>
        <pt x="360" y="27" on="1"/>
        <pt x="309" y="6" on="0"/>
        <pt x="228" y="-10" on="0"/>
        <pt x="195" y="-10" on="1"/>
        <pt x="157" y="-10" on="0"/>
        <pt x="128" y="35" on="0"/>
        <pt x="128" y="71" on="1"/>
        <pt x="128" y="88" on="0"/>
        <pt x="135" y="126" on="0"/>
        <pt x="137" y="139" on="1"/>
        <pt x="189" y="381" on="1"/>
        <pt x="101" y="381" on="1"/>
        <pt x="114" y="444" on="1"/>
        <pt x="205" y="444" on="1"/>
        <pt x="232" y="571" on="1"/>
        <pt x="309" y="571" on="1"/>
        <pt x="282" y="444" on="1"/>
        <pt x="430" y="444" on="1"/>
        <pt x="417" y="381" on="1"/>
        <pt x="269" y="381" on="1"/>
      </contour>
    </TTGlyph>
    <TTGlyph name="three" xMin="61" yMin="-21" xMax="570" yMax="677">
      <contour>
        <pt x="180" y="571" on="1"/>
        <pt x="192" y="583" on="0"/>
        <pt x="233" y="619" on="0"/>
        <pt x="290" y="653" on="0"/>
        <pt x="362" y="677" on="0"/>
        <pt x="406" y="677" on="1"/>
        <pt x="442" y="677" on="0"/>
        <pt x="502" y="658" on="0"/>
        <pt x="545" y="624" on="0"/>
        <pt x="570" y="578" on="0"/>
        <pt x="570" y="550" on="1"/>
        <pt x="570" y="532" on="0"/>
        <pt x="556" y="482" on="0"/>
        <pt x="520" y="428" on="0"/>
        <pt x="461" y="374" on="0"/>
        <pt x="416" y="353" on="1"/>
        <pt x="467" y="336" on="0"/>
        <pt x="528" y="263" on="0"/>
        <pt x="528" y="213" on="1"/>
        <pt x="528" y="173" on="0"/>
        <pt x="486" y="90" on="0"/>
        <pt x="413" y="22" on="0"/>
        <pt x="314" y="-21" on="0"/>
        <pt x="257" y="-21" on="1"/>
        <pt x="233" y="-21" on="0"/>
        <pt x="180" y="-11" on="0"/>
        <pt x="128" y="12" on="0"/>
        <pt x="80" y="50" on="0"/>
        <pt x="61" y="79" on="1"/>
        <pt x="87" y="143" on="1"/>
        <pt x="102" y="118" on="0"/>
        <pt x="143" y="81" on="0"/>
        <pt x="191" y="57" on="0"/>
        <pt x="244" y="45" on="0"/>
        <pt x="269" y="45" on="1"/>
        <pt x="306" y="45" on="0"/>
        <pt x="365" y="77" on="0"/>
        <pt x="406" y="127" on="0"/>
        <pt x="428" y="189" on="0"/>
        <pt x="428" y="219" on="1"/>
        <pt x="428" y="232" on="0"/>
        <pt x="421" y="267" on="0"/>
        <pt x="399" y="299" on="0"/>
        <pt x="358" y="321" on="0"/>
        <pt x="323" y="321" on="1"/>
        <pt x="245" y="321" on="1"/>
        <pt x="259" y="387" on="1"/>
        <pt x="292" y="390" on="0"/>
        <pt x="334" y="393" on="0"/>
        <pt x="362" y="399" on="0"/>
        <pt x="383" y="408" on="0"/>
        <pt x="396" y="416" on="1"/>
        <pt x="421" y="432" on="0"/>
        <pt x="453" y="469" on="0"/>
        <pt x="471" y="505" on="0"/>
        <pt x="478" y="535" on="0"/>
        <pt x="478" y="544" on="1"/>
        <pt x="478" y="576" on="0"/>
        <pt x="434" y="615" on="0"/>
        <pt x="392" y="615" on="1"/>
        <pt x="348" y="615" on="0"/>
        <pt x="248" y="567" on="0"/>
        <pt x="209" y="513" on="1"/>
      </contour>
    </TTGlyph>
    <TTGlyph name="tilde" xMin="207" yMin="555" xMax="585" yMax="680">
      <contour>
        <pt x="585" y="680" on="1"/>
        <pt x="578" y="650" on="0"/>
        <pt x="550" y="604" on="0"/>
        <pt x="514" y="572" on="0"/>
        <pt x="474" y="555" on="0"/>
        <pt x="455" y="555" on="1"/>
        <pt x="436" y="555" on="0"/>
        <pt x="406" y="571" on="0"/>
        <pt x="391" y="583" on="1"/>
        <pt x="376" y="594" on="0"/>
        <pt x="344" y="614" on="0"/>
        <pt x="325" y="614" on="1"/>
        <pt x="303" y="614" on="0"/>
        <pt x="278" y="576" on="0"/>
        <pt x="273" y="555" on="1"/>
        <pt x="207" y="555" on="1"/>
        <pt x="212" y="581" on="0"/>
        <pt x="238" y="626" on="0"/>
        <pt x="273" y="660" on="0"/>
        <pt x="315" y="680" on="0"/>
        <pt x="337" y="680" on="1"/>
        <pt x="352" y="680" on="0"/>
        <pt x="383" y="668" on="0"/>
        <pt x="406" y="650" on="1"/>
        <pt x="417" y="640" on="0"/>
        <pt x="448" y="621" on="0"/>
        <pt x="467" y="621" on="1"/>
        <pt x="483" y="621" on="0"/>
        <pt x="512" y="648" on="0"/>
        <pt x="519" y="680" on="1"/>
      </contour>
    </TTGlyph>
    <TTGlyph name="two" xMin="53" yMin="0" xMax="580" yMax="677">
      <contour>
        <pt x="154" y="518" on="1"/>
        <pt x="192" y="589" on="0"/>
        <pt x="309" y="677" on="0"/>
        <pt x="394" y="677" on="1"/>
        <pt x="438" y="677" on="0"/>
        <pt x="507" y="652" on="0"/>
        <pt x="555" y="607" on="0"/>
        <pt x="580" y="545" on="0"/>
        <pt x="580" y="508" on="1"/>
        <pt x="580" y="463" on="0"/>
        <pt x="550" y="392" on="0"/>
        <pt x="499" y="332" on="0"/>
        <pt x="430" y="279" on="0"/>
        <pt x="392" y="253" on="1"/>
        <pt x="368" y="237" on="0"/>
        <pt x="327" y="208" on="0"/>
        <pt x="274" y="170" on="0"/>
        <pt x="203" y="117" on="0"/>
        <pt x="149" y="76" on="1"/>
        <pt x="263" y="76" on="1"/>
        <pt x="272" y="76" on="0"/>
        <pt x="290" y="77" on="0"/>
        <pt x="299" y="77" on="1"/>
        <pt x="493" y="77" on="1"/>
        <pt x="477" y="0" on="1"/>
        <pt x="53" y="0" on="1"/>
        <pt x="56" y="13" on="0"/>
        <pt x="64" y="51" on="0"/>
        <pt x="66" y="62" on="1"/>
        <pt x="68" y="68" on="0"/>
        <pt x="70" y="70" on="1"/>
        <pt x="71" y="71" on="0"/>
        <pt x="85" y="82" on="0"/>
        <pt x="103" y="96" on="0"/>
        <pt x="123" y="112" on="0"/>
        <pt x="130" y="118" on="1"/>
        <pt x="293" y="243" on="1"/>
        <pt x="326" y="267" on="0"/>
        <pt x="395" y="320" on="0"/>
        <pt x="450" y="381" on="0"/>
        <pt x="486" y="452" on="0"/>
        <pt x="486" y="494" on="1"/>
        <pt x="486" y="517" on="0"/>
        <pt x="472" y="558" on="0"/>
        <pt x="442" y="589" on="0"/>
        <pt x="396" y="608" on="0"/>
        <pt x="365" y="608" on="1"/>
        <pt x="333" y="608" on="0"/>
        <pt x="281" y="585" on="0"/>
        <pt x="239" y="545" on="0"/>
        <pt x="204" y="491" on="0"/>
        <pt x="189" y="459" on="1"/>
      </contour>
    </TTGlyph>
    <TTGlyph name="u" xMin="101" yMin="-10" xMax="559" yMax="444">
      <contour>
        <pt x="465" y="0" on="1"/>
        <pt x="381" y="0" on="1"/>
        <pt x="390" y="45" on="1"/>
        <pt x="366" y="29" on="0"/>
        <pt x="311" y="8" on="0"/>
        <pt x="258" y="-5" on="0"/>
        <pt x="209" y="-10" on="0"/>
        <pt x="190" y="-10" on="1"/>
        <pt x="152" y="-10" on="0"/>
        <pt x="101" y="20" on="0"/>
        <pt x="101" y="65" on="1"/>
        <pt x="177" y="444" on="1"/>
        <pt x="264" y="444" on="1"/>
        <pt x="193" y="107" on="1"/>
        <pt x="193" y="106" on="0"/>
        <pt x="190" y="92" on="0"/>
        <pt x="190" y="87" on="1"/>
        <pt x="190" y="65" on="0"/>
        <pt x="224" y="49" on="0"/>
        <pt x="262" y="49" on="1"/>
        <pt x="295" y="49" on="0"/>
        <pt x="347" y="67" on="0"/>
        <pt x="383" y="94" on="0"/>
        <pt x="405" y="128" on="0"/>
        <pt x="409" y="144" on="1"/>
        <pt x="472" y="444" on="1"/>
        <pt x="559" y="444" on="1"/>
      </contour>
    </TTGlyph>
    <TTGlyph name="uni00AD" xMin="53" yMin="191" xMax="348" yMax="254">
      <contour>
        <pt x="335" y="191" on="1"/>
        <pt x="53" y="191" on="1"/>
        <pt x="66" y="254" on="1"/>
        <pt x="348" y="254" on="1"/>
      </contour>
    </TTGlyph>
    <TTGlyph name="uni0237" xMin="-100" yMin="-204" xMax="292" yMax="444">
      <contour>
        <pt x="184" y="-64" on="1"/>
        <pt x="178" y="-93" on="0"/>
        <pt x="146" y="-144" on="0"/>
        <pt x="103" y="-182" on="0"/>
        <pt x="49" y="-204" on="0"/>
        <pt x="20" y="-204" on="1"/>
        <pt x="-5" y="-204" on="0"/>
        <pt x="-49" y="-194" on="0"/>
        <pt x="-81" y="-182" on="0"/>
        <pt x="-100" y="-171" on="0"/>
        <pt x="-100" y="-169" on="1"/>
        <pt x="-100" y="-168" on="0"/>
        <pt x="-98" y="-165" on="0"/>
        <pt x="-94" y="-158" on="1"/>
        <pt x="-63" y="-104" on="1"/>
        <pt x="-49" y="-121" on="0"/>
        <pt x="-12" y="-134" on="0"/>
        <pt x="8" y="-134" on="1"/>
        <pt x="13" y="-134" on="0"/>
        <pt x="39" y="-131" on="0"/>
        <pt x="68" y="-119" on="0"/>
        <pt x="94" y="-93" on="0"/>
        <pt x="99" y="-69" on="1"/>
        <pt x="208" y="444" on="1"/>
        <pt x="292" y="444" on="1"/>
      </contour>
    </TTGlyph>
    <TTGlyph name="uni0394" xMin="44" yMin="0" xMax="840" yMax="694">
      <contour>
        <pt x="840" y="0" on="1"/>
        <pt x="44" y="0" on="1"/>
        <pt x="540" y="694" on="1"/>
        <pt x="639" y="694" on="1"/>
      </contour>
      <contour>
        <pt x="197" y="94" on="1"/>
        <pt x="699" y="94" on="1"/>
        <pt x="596" y="461" on="1"/>
        <pt x="591" y="479" on="0"/>
        <pt x="580" y="520" on="0"/>
        <pt x="569" y="562" on="0"/>
        <pt x="561" y="602" on="0"/>
        <pt x="559" y="618" on="1"/>
        <pt x="553" y="605" on="0"/>
        <pt x="540" y="583" on="0"/>
        <pt x="525" y="559" on="0"/>
        <pt x="506" y="531" on="0"/>
        <pt x="493" y="513" on="1"/>
        <pt x="393" y="370" on="1"/>
      </contour>
    </TTGlyph>
    <TTGlyph name="uni03A9" xMin="47" yMin="0" xMax="810" yMax="715">
      <contour>
        <pt x="719" y="0" on="1"/>
        <pt x="457" y="0" on="1"/>
        <pt x="464" y="31" on="0"/>
        <pt x="488" y="87" on="0"/>
        <pt x="521" y="145" on="0"/>
        <pt x="564" y="208" on="0"/>
        <pt x="591" y="245" on="1"/>
        <pt x="607" y="268" on="0"/>
        <pt x="648" y="329" on="0"/>
        <pt x="684" y="395" on="0"/>
        <pt x="708" y="465" on="0"/>
        <pt x="708" y="497" on="1"/>
        <pt x="708" y="532" on="0"/>
        <pt x="681" y="588" on="0"/>
        <pt x="631" y="627" on="0"/>
        <pt x="562" y="649" on="0"/>
        <pt x="521" y="649" on="1"/>
        <pt x="482" y="649" on="0"/>
        <pt x="388" y="623" on="0"/>
        <pt x="307" y="564" on="0"/>
        <pt x="252" y="469" on="0"/>
        <pt x="252" y="399" on="1"/>
        <pt x="252" y="380" on="0"/>
        <pt x="256" y="344" on="0"/>
        <pt x="264" y="303" on="0"/>
        <pt x="276" y="257" on="0"/>
        <pt x="284" y="228" on="1"/>
        <pt x="295" y="192" on="0"/>
        <pt x="316" y="107" on="0"/>
        <pt x="316" y="63" on="1"/>
        <pt x="316" y="48" on="0"/>
        <pt x="315" y="35" on="0"/>
        <pt x="313" y="23" on="1"/>
        <pt x="311" y="6" on="0"/>
        <pt x="305" y="0" on="0"/>
        <pt x="291" y="0" on="1"/>
        <pt x="47" y="0" on="1"/>
        <pt x="63" y="77" on="1"/>
        <pt x="154" y="77" on="1"/>
        <pt x="163" y="77" on="0"/>
        <pt x="181" y="76" on="0"/>
        <pt x="190" y="76" on="1"/>
        <pt x="247" y="76" on="1"/>
        <pt x="245" y="97" on="0"/>
        <pt x="238" y="132" on="0"/>
        <pt x="226" y="169" on="0"/>
        <pt x="208" y="212" on="0"/>
        <pt x="196" y="240" on="1"/>
        <pt x="175" y="292" on="0"/>
        <pt x="152" y="369" on="0"/>
        <pt x="152" y="410" on="1"/>
        <pt x="152" y="477" on="0"/>
        <pt x="219" y="589" on="0"/>
        <pt x="328" y="670" on="0"/>
        <pt x="465" y="715" on="0"/>
        <pt x="535" y="715" on="1"/>
        <pt x="598" y="715" on="0"/>
        <pt x="700" y="681" on="0"/>
        <pt x="772" y="623" on="0"/>
        <pt x="810" y="546" on="0"/>
        <pt x="810" y="503" on="1"/>
        <pt x="810" y="465" on="0"/>
        <pt x="782" y="392" on="0"/>
        <pt x="737" y="320" on="0"/>
        <pt x="681" y="251" on="0"/>
        <pt x="652" y="217" on="1"/>
        <pt x="626" y="187" on="0"/>
        <pt x="591" y="141" on="0"/>
        <pt x="568" y="107" on="0"/>
        <pt x="555" y="84" on="0"/>
        <pt x="551" y="76" on="1"/>
        <pt x="608" y="76" on="1"/>
        <pt x="617" y="76" on="0"/>
        <pt x="635" y="77" on="0"/>
        <pt x="644" y="77" on="1"/>
        <pt x="735" y="77" on="1"/>
      </contour>
    </TTGlyph>
    <TTGlyph name="v" xMin="109" yMin="0" xMax="569" yMax="444">
      <contour>
        <pt x="291" y="0" on="1"/>
        <pt x="197" y="0" on="1"/>
        <pt x="109" y="444" on="1"/>
        <pt x="193" y="444" on="1"/>
        <pt x="237" y="213" on="1"/>
        <pt x="243" y="182" on="0"/>
        <pt x="251" y="134" on="0"/>
        <pt x="256" y="98" on="0"/>
        <pt x="258" y="70" on="0"/>
        <pt x="258" y="59" on="1"/>
        <pt x="259" y="58" on="1"/>
        <pt x="268" y="81" on="0"/>
        <pt x="324" y="176" on="0"/>
        <pt x="364" y="242" on="1"/>
        <pt x="488" y="444" on="1"/>
        <pt x="569" y="444" on="1"/>
      </contour>
    </TTGlyph>
    <TTGlyph name="w" xMin="109" yMin="0" xMax="805" yMax="444">
      <contour>
        <pt x="564" y="0" on="1"/>
        <pt x="472" y="0" on="1"/>
        <pt x="450" y="201" on="1"/>
        <pt x="446" y="235" on="0"/>
        <pt x="440" y="318" on="0"/>
        <pt x="440" y="352" on="1"/>
        <pt x="440" y="382" on="1"/>
        <pt x="439" y="382" on="1"/>
        <pt x="435" y="368" on="0"/>
        <pt x="413" y="321" on="0"/>
        <pt x="386" y="267" on="0"/>
        <pt x="359" y="213" on="0"/>
        <pt x="348" y="192" on="1"/>
        <pt x="338" y="173" on="0"/>
        <pt x="304" y="109" on="0"/>
        <pt x="270" y="47" on="0"/>
        <pt x="245" y="1" on="0"/>
        <pt x="245" y="0" on="1"/>
        <pt x="161" y="0" on="1"/>
        <pt x="109" y="444" on="1"/>
        <pt x="191" y="444" on="1"/>
        <pt x="212" y="253" on="1"/>
        <pt x="216" y="218" on="0"/>
        <pt x="222" y="132" on="0"/>
        <pt x="222" y="97" on="1"/>
        <pt x="222" y="77" on="0"/>
        <pt x="222" y="68" on="0"/>
        <pt x="221" y="63" on="1"/>
        <pt x="222" y="62" on="1"/>
        <pt x="228" y="80" on="0"/>
        <pt x="249" y="129" on="0"/>
        <pt x="275" y="182" on="0"/>
        <pt x="303" y="235" on="0"/>
        <pt x="316" y="259" on="1"/>
        <pt x="415" y="444" on="1"/>
        <pt x="492" y="444" on="1"/>
        <pt x="517" y="215" on="1"/>
        <pt x="521" y="180" on="0"/>
        <pt x="527" y="113" on="0"/>
        <pt x="527" y="77" on="1"/>
        <pt x="527" y="61" on="1"/>
        <pt x="528" y="60" on="1"/>
        <pt x="531" y="70" on="0"/>
        <pt x="552" y="113" on="0"/>
        <pt x="577" y="163" on="0"/>
        <pt x="602" y="211" on="0"/>
        <pt x="609" y="225" on="1"/>
        <pt x="726" y="444" on="1"/>
        <pt x="805" y="444" on="1"/>
      </contour>
    </TTGlyph>
    <TTGlyph name="x" xMin="0" yMin="0" xMax="566" yMax="444">
      <contour>
        <pt x="489" y="0" on="1"/>
        <pt x="399" y="0" on="1"/>
        <pt x="281" y="188" on="1"/>
        <pt x="89" y="0" on="1"/>
        <pt x="0" y="0" on="1"/>
        <pt x="254" y="229" on="1"/>
        <pt x="100" y="444" on="1"/>
        <pt x="190" y="444" on="1"/>
        <pt x="301" y="280" on="1"/>
        <pt x="477" y="444" on="1"/>
        <pt x="566" y="444" on="1"/>
        <pt x="326" y="229" on="1"/>
      </contour>
    </TTGlyph>
    <TTGlyph name="y" xMin="3" yMin="-204" xMax="569" yMax="444">
      <contour>
        <pt x="221" y="-91" on="1"/>
        <pt x="194" y="-133" on="0"/>
        <pt x="149" y="-179" on="0"/>
        <pt x="114" y="-200" on="0"/>
        <pt x="87" y="-204" on="0"/>
        <pt x="77" y="-204" on="1"/>
        <pt x="53" y="-204" on="0"/>
        <pt x="10" y="-198" on="0"/>
        <pt x="3" y="-196" on="1"/>
        <pt x="12" y="-126" on="1"/>
        <pt x="32" y="-137" on="0"/>
        <pt x="78" y="-144" on="0"/>
        <pt x="91" y="-144" on="1"/>
        <pt x="97" y="-144" on="0"/>
        <pt x="111" y="-142" on="0"/>
        <pt x="129" y="-131" on="0"/>
        <pt x="153" y="-107" on="0"/>
        <pt x="168" y="-84" on="1"/>
        <pt x="171" y="-79" on="0"/>
        <pt x="188" y="-53" on="0"/>
        <pt x="207" y="-24" on="0"/>
        <pt x="221" y="0" on="0"/>
        <pt x="221" y="2" on="1"/>
        <pt x="219" y="15" on="1"/>
        <pt x="109" y="444" on="1"/>
        <pt x="195" y="444" on="1"/>
        <pt x="200" y="420" on="0"/>
        <pt x="228" y="316" on="0"/>
        <pt x="242" y="245" on="1"/>
        <pt x="247" y="224" on="0"/>
        <pt x="255" y="180" on="0"/>
        <pt x="262" y="137" on="0"/>
        <pt x="266" y="99" on="0"/>
        <pt x="266" y="84" on="1"/>
        <pt x="266" y="78" on="0"/>
        <pt x="265" y="65" on="0"/>
        <pt x="265" y="63" on="1"/>
        <pt x="266" y="63" on="1"/>
        <pt x="273" y="87" on="0"/>
        <pt x="310" y="158" on="0"/>
        <pt x="356" y="238" on="0"/>
        <pt x="407" y="318" on="0"/>
        <pt x="428" y="352" on="1"/>
        <pt x="487" y="444" on="1"/>
        <pt x="569" y="444" on="1"/>
      </contour>
    </TTGlyph>
    <TTGlyph name="z" xMin="30" yMin="0" xMax="518" yMax="444">
      <contour>
        <pt x="155" y="66" on="1"/>
        <pt x="248" y="66" on="1"/>
        <pt x="257" y="66" on="0"/>
        <pt x="275" y="67" on="0"/>
        <pt x="284" y="67" on="1"/>
        <pt x="441" y="67" on="1"/>
        <pt x="427" y="0" on="1"/>
        <pt x="30" y="0" on="1"/>
        <pt x="36" y="30" on="1"/>
        <pt x="39" y="40" on="0"/>
        <pt x="42" y="47" on="0"/>
        <pt x="49" y="53" on="1"/>
        <pt x="394" y="381" on="1"/>
        <pt x="310" y="381" on="1"/>
        <pt x="301" y="381" on="0"/>
        <pt x="283" y="380" on="0"/>
        <pt x="274" y="380" on="1"/>
        <pt x="125" y="380" on="1"/>
        <pt x="138" y="444" on="1"/>
        <pt x="518" y="444" on="1"/>
        <pt x="517" y="440" on="0"/>
        <pt x="513" y="417" on="0"/>
        <pt x="512" y="415" on="1"/>
        <pt x="510" y="406" on="0"/>
        <pt x="507" y="399" on="0"/>
        <pt x="500" y="393" on="1"/>
      </contour>
    </TTGlyph>
    <TTGlyph name="zero" xMin="92" yMin="-21" xMax="577" yMax="677">
      <contour>
        <pt x="577" y="477" on="1"/>
        <pt x="577" y="455" on="0"/>
        <pt x="567" y="372" on="0"/>
        <pt x="547" y="276" on="0"/>
        <pt x="515" y="176" on="0"/>
        <pt x="493" y="135" on="1"/>
        <pt x="451" y="58" on="0"/>
        <pt x="333" y="-21" on="0"/>
        <pt x="261" y="-21" on="1"/>
        <pt x="206" y="-21" on="0"/>
        <pt x="139" y="20" on="0"/>
        <pt x="103" y="80" on="0"/>
        <pt x="92" y="149" on="0"/>
        <pt x="92" y="177" on="1"/>
        <pt x="92" y="191" on="0"/>
        <pt x="100" y="276" on="0"/>
        <pt x="124" y="388" on="0"/>
        <pt x="167" y="509" on="0"/>
        <pt x="237" y="611" on="0"/>
        <pt x="339" y="677" on="0"/>
        <pt x="409" y="677" on="1"/>
        <pt x="457" y="677" on="0"/>
        <pt x="522" y="643" on="0"/>
        <pt x="561" y="588" on="0"/>
        <pt x="577" y="516" on="0"/>
      </contour>
      <contour>
        <pt x="275" y="45" on="1"/>
        <pt x="303" y="45" on="0"/>
        <pt x="350" y="68" on="0"/>
        <pt x="389" y="107" on="0"/>
        <pt x="419" y="158" on="0"/>
        <pt x="430" y="185" on="1"/>
        <pt x="442" y="213" on="0"/>
        <pt x="465" y="296" on="0"/>
        <pt x="483" y="382" on="0"/>
        <pt x="494" y="460" on="0"/>
        <pt x="494" y="482" on="1"/>
        <pt x="494" y="491" on="0"/>
        <pt x="491" y="534" on="0"/>
        <pt x="472" y="578" on="0"/>
        <pt x="432" y="611" on="0"/>
        <pt x="394" y="611" on="1"/>
        <pt x="355" y="611" on="0"/>
        <pt x="271" y="554" on="0"/>
        <pt x="243" y="488" on="1"/>
        <pt x="230" y="457" on="0"/>
        <pt x="207" y="370" on="0"/>
        <pt x="189" y="281" on="0"/>
        <pt x="178" y="202" on="0"/>
        <pt x="178" y="179" on="1"/>
        <pt x="178" y="170" on="0"/>
        <pt x="181" y="126" on="0"/>
        <pt x="199" y="80" on="0"/>
        <pt x="239" y="45" on="0"/>
      </contour>
    </TTGlyph>
</ttFont>
